<?xml version="1.0" standalone="no"?>
<!DOCTYPE svg PUBLIC "-//W3C//DTD SVG 1.1//EN" "http://www.w3.org/Graphics/SVG/1.1/DTD/svg11.dtd" >
<svg xmlns="http://www.w3.org/2000/svg">
<metadata>
This is a custom SVG webfont generated by Font Squirrel.
Copyright   : 2004 Martin Majoor published by FontShop International for the FontFont library
</metadata>
<defs>
<font id="NexusSerifRegularSCRegular" horiz-adv-x="1024" >
<font-face units-per-em="2048" ascent="1638" descent="-410" />
<missing-glyph horiz-adv-x="512" />
<glyph unicode=" "  horiz-adv-x="512" />
<glyph unicode="&#x09;" horiz-adv-x="512" />
<glyph unicode="&#xa0;" horiz-adv-x="512" />
<glyph unicode="!" horiz-adv-x="512" d="M121 111q0 53 41 92t94 39q55 0 97 -39t42 -92q0 -55 -42 -96.5t-95 -41.5q-55 0 -96 40.5t-41 97.5zM162 1118q0 53 16 53h4q8 0 37 7.5t45 7.5l103 -19q-12 -14 -13 -34q-6 -98 -16 -343t-23 -372l-110 -8q-43 554 -43 708z" />
<glyph unicode="&#x22;" horiz-adv-x="686" d="M92 1423q0 39 18.5 47.5t69.5 8.5h21q27 0 39 -2t20 -14.5t8 -37.5q0 -31 -21.5 -216t-23.5 -238h-82q-2 51 -25.5 236t-23.5 216zM420 1423q0 39 17.5 47.5t66.5 8.5h22q29 0 41.5 -2t20.5 -14.5t8 -37.5q0 -29 -22.5 -215t-24.5 -239h-80q-2 51 -25.5 236t-23.5 216z " />
<glyph unicode="#" d="M8 178v131h232l4 299h-234v131h236l8 447h137l-8 -447h274l9 447h135l-4 -447h219v-129h-225l-3 -301h228v-129h-230l-8 -467h-139l8 467h-276l-6 -467h-138l6 465h-225zM377 309h272l6 301h-274z" />
<glyph unicode="$" d="M63 0l9 41l12 299h94q4 -125 83 -202t216 -85v525q-74 41 -106 63q-86 55 -141.5 99t-105.5 123t-50 163q0 141 106.5 239.5t294.5 106.5v135h92v-135q51 -2 89 -9t63 -7q39 0 63.5 -1t45 -2t69.5 -1v-301h-96q-23 217 -234 239v-532l27 -17q18 -12 68.5 -41.5t74 -46 t65.5 -46t64.5 -56.5t47 -61.5t36 -75.5t11.5 -86q0 -147 -114 -241.5t-278 -113.5v-151h-92v149q-76 2 -136 15.5t-124 13.5h-154zM289 1077q0 -82 46 -139t140 -121l2 473q-88 -14 -138 -85t-50 -128zM567 61q84 20 133.5 76t49.5 135q0 129 -183 248v-459z" />
<glyph unicode="%" horiz-adv-x="2048" d="M170 1003.5q0 147.5 104.5 252t249.5 104.5q147 0 251 -104.5t104 -252t-103.5 -252t-251.5 -104.5q-145 0 -249.5 104.5t-104.5 252zM303 1004q0 -94 64.5 -159t156.5 -65q94 0 157.5 64.5t63.5 159.5q0 92 -64.5 157.5t-156.5 65.5t-156.5 -65.5t-64.5 -157.5zM426 -29 l1102 1430l102 -72l-1102 -1429zM1169 327.5q0 147.5 102.5 252t250.5 104.5q145 0 250.5 -104.5t105.5 -251.5q0 -145 -105.5 -250t-250.5 -105q-147 0 -250 103.5t-103 251zM1298 328q0 -92 64.5 -157t159.5 -65q92 0 156.5 65t64.5 157q0 94 -64.5 158.5t-156.5 64.5 q-94 0 -159 -64.5t-65 -158.5z" />
<glyph unicode="&#x26;" horiz-adv-x="1110" d="M20 248q0 150 183 280q10 8 33.5 22.5t33.5 22.5q-131 162 -131 271q0 102 81 171.5t198 69.5q113 0 177 -69.5t64 -157.5q0 -80 -53 -139.5t-155 -120.5l241 -362q184 217 185 544q0 33 -3.5 74t-3.5 49l-131 -10q-6 20 -6 43q0 29 17.5 37t70.5 8h344v-88l-135 10 q-16 -238 -80.5 -417t-197.5 -332q215 -295 249 -318q18 -10 86 -20l-20 -70q-160 27 -190 45q-70 37 -242 264q-111 -78 -283 -78q-129 0 -230.5 77t-101.5 194zM203 260q0 -76 58 -135t116 -59q92 0 194 65l-254 375q-114 -94 -114 -246zM311 866q0 -86 92 -200 q49 33 74 87t25 95q0 154 -96 153q-45 0 -70 -40t-25 -95z" />
<glyph unicode="'" horiz-adv-x="358" d="M92 1423q0 39 18.5 47.5t69.5 8.5h21q27 0 39 -2t20 -14.5t8 -37.5q0 -31 -21.5 -216t-23.5 -238h-82q-2 51 -25.5 236t-23.5 216z" />
<glyph unicode="(" horiz-adv-x="512" d="M25 514q0 270 96 505.5t287 487.5l104 -51q-162 -215 -260 -434t-98 -481q0 -160 30.5 -308.5t90 -281.5t109.5 -221t128 -207l-104 -51q-383 522 -383 1042z" />
<glyph unicode=")" horiz-adv-x="512" d="M0 -477q164 219 261 436t97 479q0 160 -30.5 309.5t-89 280.5t-110.5 222t-128 206l111 51q160 -219 268 -490.5t108 -553.5q0 -268 -94 -503.5t-282 -487.5z" />
<glyph unicode="*" d="M55 1112q0 23 15 66q10 31 19 47t13 16h4l359 -143l-29 389q0 14 76 14q35 0 53.5 -3t20.5 -7l2 -4l-29 -391l361 145l12 -14q12 -14 25.5 -46t13.5 -71l-2 -12l-381 -92l252 -297q0 -2 -24.5 -23.5t-54.5 -44.5t-38 -23h-4l-205 332l-205 -329h-2q-10 0 -64.5 36.5 t-54.5 49.5v2l248 297l-379 94q-2 2 -2 12z" />
<glyph unicode="+" d="M45 389v141h397v398h142v-398h397v-141h-397v-397h-142v397h-397z" />
<glyph unicode="," horiz-adv-x="460" d="M82 94q23 49 58.5 86t59 50.5t31.5 13.5q66 -6 100 -51.5t34 -90.5v-53q0 -12 -24 -74.5t-79 -159t-119 -159.5l-61 49q57 66 90 159t33 136q0 59 -123 94z" />
<glyph unicode="-" horiz-adv-x="768" d="M127 383v180h516v-178z" />
<glyph unicode="." horiz-adv-x="460" d="M94 111q0 53 41 92t96 39q53 0 94.5 -39t41.5 -92q0 -55 -41 -96.5t-95 -41.5q-55 0 -96 41.5t-41 96.5z" />
<glyph unicode="/" horiz-adv-x="641" d="M0 -528l506 2025h135l-508 -2025h-133z" />
<glyph unicode="0" d="M41 465q0 209 134 353.5t337 144.5t337 -144.5t134 -351.5q0 -209 -134 -353.5t-337 -144.5t-337 144.5t-134 351.5zM238 467q0 -154 68.5 -269.5t205.5 -115.5q152 0 252 113.5t100 271.5l2 -2q0 158 -101 272.5t-253 114.5q-133 0 -203.5 -115.5t-70.5 -269.5z" />
<glyph unicode="1" d="M166 -6v82l260 24v711h-260v82q180 10 293 22l139 19v-834l260 -22v-84l-338 12z" />
<glyph unicode="2" d="M90 0v74l320 264q127 104 170 187t43 200q0 51 -49.5 97t-116.5 46q-72 0 -151 -55t-113 -123l-78 51q127 231 395 232q129 0 219 -63.5t90 -190.5q0 -68 -18.5 -122t-67.5 -109.5t-88 -88t-127 -100.5l-221 -168q281 -6 352 -6l189 18l16 187h80v-330h-844z" />
<glyph unicode="3" d="M113 -432l20 94q45 -6 103 -6q195 0 316.5 86t121.5 256q0 137 -76 206.5t-203 69.5h-78l-20 84q70 25 117 46.5t98 56.5t76.5 83t25.5 109q0 88 -44 140.5t-128 52.5q-102 0 -229 -107l-68 84q154 127 338 127q152 0 239 -78.5t87 -216.5q0 -123 -85 -197.5t-212 -97.5 q141 0 249.5 -87t108.5 -263q0 -219 -179 -333.5t-439 -114.5q-88 0 -139 6z" />
<glyph unicode="4" d="M43 0v127q94 205 266 434q168 221 381 400h80v-830h92l119 23l-63 -154h-148v-358h-166v358h-561zM166 131h438v598q-150 -150 -256 -301q-43 -61 -89 -136t-71 -118z" />
<glyph unicode="5" d="M158 -432l20 94q41 -6 123 -6q174 10 270.5 95t96.5 282q0 86 -29 147.5t-72 95t-114.5 53t-135 24.5t-155.5 5l157 574q82 -8 134 -8l362 34v-192q-92 12 -307 12h-113l-84 -329q555 0 555 -386q0 -133 -50 -233t-136 -157.5t-190.5 -85t-223.5 -27.5q-57 0 -108 8z" />
<glyph unicode="6" d="M72 557q0 283 187 538t527 345l31 -90q-541 -166 -541 -781q0 -496 254 -495q115 0 172.5 104.5t57.5 239.5q0 152 -56.5 239.5t-181.5 81.5l-125 -4l21 88q100 39 160 39q190 0 282 -124t92 -310t-118.5 -321.5t-311.5 -135.5q-203 0 -326.5 165t-123.5 421z" />
<glyph unicode="7" d="M115 555v385q33 -2 87 -5t221 -8t302 1q102 0 184 22q-123 -436 -243 -735q-199 -494 -349 -692l-163 100q229 223 366 533q49 109 100.5 255t81 242.5t33.5 118.5q-14 0 -87 3t-105 1l-322 -12l-26 -209h-80z" />
<glyph unicode="8" d="M61 315q0 72 43 152t132 141l151 109l-88 61q-178 125 -178 342q0 129 120.5 224.5t284.5 95.5q156 0 264.5 -79t108.5 -226q0 -162 -172 -287l-111 -80l193 -133q61 -43 108.5 -121t47.5 -178q0 -156 -134.5 -259.5t-338.5 -103.5q-195 0 -313 97.5t-118 244.5zM209 330 q0 -111 78 -183.5t207 -72.5q139 0 205.5 78.5t66.5 179.5q0 121 -141 219l-162 111l-146 -111q-108 -82 -108 -221zM307 1143q0 -162 146 -260l84 -56l102 76q66 47 88.5 96.5t22.5 126.5q0 96 -69 156.5t-153 60.5q-96 0 -158.5 -58t-62.5 -142z" />
<glyph unicode="9" d="M72 494q0 188 120.5 322t333.5 134q205 0 315.5 -144t110.5 -400q0 -182 -70.5 -350.5t-232.5 -309.5t-391 -203l-31 90q129 39 224.5 102.5t150.5 134.5t89 163t45.5 176t11.5 184q0 242 -46.5 348.5t-181.5 106.5q-137 0 -196.5 -102.5t-59.5 -241.5q0 -152 56.5 -240 t181.5 -82l125 4l-21 -88q-100 -39 -160 -39q-190 0 -282 124.5t-92 310.5z" />
<glyph unicode=":" horiz-adv-x="460" d="M94 111q0 53 41 92t96 39q53 0 94.5 -39t41.5 -92q0 -55 -41 -96.5t-95 -41.5q-55 0 -96 41.5t-41 96.5zM94 813q0 53 42 94t95.5 41t94.5 -40t41 -93q0 -55 -40 -95t-95.5 -40t-96.5 39t-41 94z" />
<glyph unicode=";" horiz-adv-x="460" d="M80 94q23 49 58.5 86t58 50.5t30.5 13.5q68 -6 100.5 -50t32.5 -92v-53q0 -12 -22.5 -74.5t-77.5 -159t-119 -159.5l-61 49q57 66 90 159t33 136q0 57 -123 94zM94 813q0 53 42 94t95.5 41t94.5 -40t41 -93q0 -55 -40 -95t-95.5 -40t-96.5 39t-41 94z" />
<glyph unicode="&#x3c;" d="M45 399v131l934 410v-154l-754 -323l754 -320v-153z" />
<glyph unicode="=" d="M45 209v141h934v-141h-934zM45 571v142h934v-142h-934z" />
<glyph unicode="&#x3e;" d="M45 -10v153l754 320l-754 323v154l934 -410v-131z" />
<glyph unicode="?" horiz-adv-x="954" d="M145 934l58 221q205 0 354.5 -149.5t149.5 -333.5q0 -45 -20.5 -125t-51.5 -80h-268v-88h-117l-35 211q27 -10 90 -10h227q6 43 7 67q0 76 -16.5 155t-35.5 105q-23 35 -182 35h-55q-80 0 -105 -8zM178 106.5q0 53.5 38 91.5t87 38q51 0 88 -38t37 -91.5t-37 -92.5 t-88 -39q-49 0 -87 39t-38 92.5z" />
<glyph unicode="@" horiz-adv-x="2048" d="M106 453q0 195 74 368.5t197 296.5t292 194.5t355 71.5q383 0 650.5 -247.5t267.5 -638.5q0 -231 -117 -355q-156 -166 -588 -166q-45 0 -59.5 39t-14.5 121v201q-55 -190 -157.5 -282.5t-204.5 -92.5q-90 0 -156.5 130t-62.5 349q2 229 117.5 367.5t285.5 144.5 q59 2 112.5 -21.5t78.5 -47.5l22 -25q23 135 49 156q16 10 53 10q10 0 39 -4l-16 -928q295 0 399 103q90 88 90 297q0 238 -112.5 418t-289.5 269t-388 89q-322 0 -554 -235.5t-232 -577.5q0 -324 237.5 -555.5t550.5 -231.5q203 0 389 101l57 -103q-80 -47 -200.5 -80.5 t-243.5 -33.5q-240 0 -452 120.5t-340 328.5t-128 450zM766 451q0 -119 21.5 -209t47 -128t48.5 -38q53 0 119.5 102.5t113.5 235.5t49 221l2 145q-57 72 -141 72q-117 0 -127 -10q-57 -51 -94 -164t-39 -197v-30z" />
<glyph unicode="A" horiz-adv-x="1257" d="M0 -4v78l125 20l457 1262q37 31 65 102h25l471 -1364l114 -20v-78l-176 8l-307 -8v78l170 18l-147 430h-408l-156 -428l170 -20v-78l-239 8zM426 625h334l-119 350q-37 106 -43 145q-4 -37 -45 -147z" />
<glyph unicode="B" horiz-adv-x="1316" d="M45 1245v80q190 18 322 25q231 10 374 10q207 0 307.5 -95.5t100.5 -234.5q0 -121 -95.5 -209t-211.5 -100q154 -8 271.5 -102.5t117.5 -256.5q0 -164 -123 -266q-118 -98 -297 -98h-14l-406 4l-330 -6v78l222 20v1159zM471 215q0 -74 40 -97.5t136 -29.5q24 -2 47 -2 q140 0 229 76q103 88 103 211q0 115 -94 204t-225 89h-236v-451zM471 766h217q106 0 181 80t75 176q0 94 -64 168q-63 72 -168 72h-5l-236 -2v-494z" />
<glyph unicode="C" horiz-adv-x="1363" d="M104 670q0 293 203 500.5t484 207.5q188 0 374 -49l15 82h88v-94l10 -316h-86q-10 141 -104.5 212t-290.5 71q-195 0 -339.5 -178t-144.5 -424q0 -238 150.5 -426t359.5 -188q109 0 216.5 27.5t117.5 49.5q8 18 16.5 79t14.5 112l4 51h86v-334q-213 -80 -467 -80 q-129 0 -254 47.5t-226.5 132.5t-164 220t-62.5 297z" />
<glyph unicode="D" horiz-adv-x="1558" d="M45 1245v80q197 16 344 27q94 6 174 6q31 0 101.5 -1t117.5 -1q141 0 256 -41t187.5 -107.5t123 -155.5t71 -181.5t20.5 -188.5q0 -117 -39 -233.5t-116 -221t-213 -169.5q-128 -61 -291 -60h-21l-361 6l-338 -8v78l222 20v1159zM471 250q0 -100 57.5 -131t200.5 -31 q244 0 372 167t128 427q0 94 -25.5 190.5t-79 188.5t-152.5 149q-96 55 -222 56h-9l-270 -6v-1010z" />
<glyph unicode="E" horiz-adv-x="1218" d="M63 -4v78l220 20v1161l-199 19v80l303 -8l283 6h315l14 82h86v-80l13 -314h-88l-35 213h-504v-518h403l19 164h86v-432h-86l-19 168h-403v-457q0 -68 6 -78q8 -8 189 -8l182 2h17q45 0 101 8q67 10 72 21l27 188h86v-311h-576l-184 4z" />
<glyph unicode="F" horiz-adv-x="1112" d="M82 -4v78l201 20v1161l-201 19v80l305 -8l283 6h319l15 82h81v-80l13 -314h-82l-37 213h-508v-542h408l18 168h82v-437h-82l-18 172h-408v-522l256 -18v-78l-334 8z" />
<glyph unicode="G" horiz-adv-x="1503" d="M104 680q0 279 201 489.5t504 210.5q160 0 399 -51l17 82h86v-61l12 -349h-88q-39 283 -397 283q-213 0 -369 -183t-156 -421q0 -254 159 -433t382 -179q63 0 152.5 19t130.5 34v381l-203 18v78l305 -6l248 6v-78l-168 -18v-234q0 -20 -1 -38q0 -65 6 -113q7 -61 15 -78 l9 -16q-29 0 -201 -25t-307 -25q-338 0 -537 200t-199 507z" />
<glyph unicode="H" horiz-adv-x="1740" d="M82 -4v78l201 20v1163l-201 19v78l301 -6l287 6v-78l-199 -19v-528h803v528l-201 19v78l287 -6l303 6v-78l-201 -19v-1163l201 -20v-78l-287 8l-303 -8v78l201 20v535h-803v-535l199 -20v-78l-287 8z" />
<glyph unicode="I" horiz-adv-x="768" d="M68 -4v78l221 20v1163l-221 19v78l323 -6l307 6v-78l-221 -19v-1163l221 -20v-78l-307 8z" />
<glyph unicode="J" horiz-adv-x="741" d="M-51 -412q330 0 330 502v1167l-222 19v78l320 -6l291 6v-78l-201 -19v-1151q0 -276 -140.5 -434.5t-375.5 -158.5z" />
<glyph unicode="K" horiz-adv-x="1392" d="M82 -4v78l201 20v1163l-201 19v78l301 -6l287 6v-78l-199 -19v-555q88 29 166 97q53 43 159.5 156.5t186.5 205.5l82 92l-160 19v82l232 -6l211 6v-82l-154 -19q-311 -358 -426 -465l-59 -49q94 -45 190 -155l420 -500l84 -10v-78l-189 8l-256 -8v78l127 10l-415 481 q-33 39 -94.5 69t-104.5 38v-578l199 -20v-78l-287 8z" />
<glyph unicode="L" horiz-adv-x="1187" d="M82 -4v78l201 20v1166l-201 16v78l303 -6l285 6v-78l-199 -19v-1077q0 -68 6 -76q8 -10 240 -10h98h16q45 0 102 9q67 11 75 22l69 231h86l-43 -356h-547l-182 4z" />
<glyph unicode="M" horiz-adv-x="1916" d="M61 -4v78l185 20l37 1163l-203 19v78l268 -4l172 4l438 -1010l443 1010l139 -4l291 4v-78l-213 -19l35 -1163l205 -20v-78l-289 8l-299 -8v78l205 20l-35 1067l-529 -1188l-522 1207l-33 -1086l193 -20v-78l-252 8z" />
<glyph unicode="N" horiz-adv-x="1519" d="M53 1272v80h375l741 -1033v938l-192 19v78l248 -4l231 4v-78l-178 -19v-1275h-104l-793 1105v-993l192 -20v-78l-243 8l-240 -8v78l182 20v1094q-41 55 -73 72q-10 6 -46 9t-67 3h-33z" />
<glyph unicode="O" horiz-adv-x="1576" d="M113 674q0 289 192.5 496.5t487.5 207.5q293 0 483 -206.5t190 -495.5q0 -285 -191.5 -495t-481.5 -210q-295 0 -487.5 207t-192.5 496zM322 675.5q0 -237.5 135 -426t336 -188.5q199 0 331.5 190.5t132.5 424.5q0 229 -133 420.5t-331 191.5q-201 0 -336 -187.5 t-135 -425z" />
<glyph unicode="P" horiz-adv-x="1204" d="M45 1245v80q236 20 328 27q104 8 346 8q184 0 308 -107.5t124 -296.5q0 -186 -145.5 -298.5t-333.5 -112.5q-129 0 -201 8v-459l256 -20v-78l-360 8l-285 -8v78l201 20v1157zM471 633h139q141 0 236.5 85t95.5 238q0 137 -73 223q-71 83 -205 83h-7l-186 -2v-627z" />
<glyph unicode="Q" horiz-adv-x="1576" d="M113 674q0 289 193.5 496.5t488.5 207.5q291 0 481 -206.5t190 -495.5q0 -256 -159.5 -458t-411.5 -238q57 -100 145 -192.5t147.5 -136.5t69.5 -44q23 0 92.5 15.5t125.5 37.5l30 -59q-39 -35 -141 -75t-186 -40q-59 0 -142.5 64.5t-163 160.5t-128 161t-78.5 112 q-246 45 -399.5 240.5t-153.5 449.5zM324 675.5q0 -237.5 134 -426t337 -188.5q133 0 241.5 93.5t164.5 232.5t56 289q0 229 -133 420.5t-329 191.5q-203 0 -337 -187.5t-134 -425z" />
<glyph unicode="R" horiz-adv-x="1318" d="M45 1245v80q250 20 326 25q221 12 291 12q213 0 339.5 -97.5t126.5 -273.5q0 -141 -77.5 -229t-190.5 -121l70 -122q61 -108 124.5 -213t116.5 -181q61 -90 144 -139q6 -2 25.5 -14.5t31.5 -18.5l-18 -66q-96 12 -150 31q-90 29 -153.5 86t-149.5 182q-41 61 -77 124 t-85 153t-80 143q-43 -4 -98 -4q-16 0 -46 2t-44 2v-512l203 -20v-78l-301 8l-291 -8v78l201 20v1159zM471 694l160 6q139 2 213 86t74 201q0 113 -84 195q-82 80 -221 80h-7l-135 -2v-566z" />
<glyph unicode="S" horiz-adv-x="1069" d="M158 -29l6 70l12 299h88q4 -129 82 -208t209 -79q102 0 167.5 61.5t65.5 157.5q0 51 -19 95.5t-61 82t-77 63.5t-98.5 67t-92.5 61q-82 57 -132 101t-95 122t-45 162q0 145 104.5 245.5t290.5 100.5q66 0 107 -6t81 -19.5t64 -17.5l23 86h86v-364h-88q-12 119 -74 180 t-191 61q-96 0 -151 -73.5t-55 -141.5q0 -39 12 -75.5t26.5 -60t50 -55.5t54 -47.5t69 -50t68.5 -47.5q18 -14 71.5 -50t80 -54.5t68.5 -56t63.5 -70.5t38 -81t16.5 -101q0 -160 -126 -258.5t-292 -98.5q-76 0 -141.5 13.5t-89 22.5t-78.5 34l-10 -70h-88z" />
<glyph unicode="T" horiz-adv-x="1388" d="M16 985l47 367l3 82h88l10 -82h1077l12 82h86v-449h-86l-28 268h-441v-1159l224 -20v-78l-316 8l-319 -8v78l223 20v1159h-342q-49 0 -68.5 -17t-33.5 -77l-52 -174h-84z" />
<glyph unicode="U" horiz-adv-x="1533" d="M31 1276v78l278 -6l316 6v-78l-203 -19v-776q0 -193 108.5 -290t276.5 -97q170 0 279.5 98.5t109.5 290.5v774l-192 19v78l249 -4l230 4v-78l-178 -19v-784q0 -248 -149.5 -374t-381.5 -126q-217 0 -379 122t-162 327v835z" />
<glyph unicode="V" horiz-adv-x="1341" d="M14 1276v78l217 -6l304 6v-78l-193 -19l375 -987l360 990l-196 16v78l254 -6l190 6v-78l-131 -16l-477 -1293h-70l-502 1290z" />
<glyph unicode="W" horiz-adv-x="1933" d="M14 1276v78l187 -6l250 6v-78l-134 -16l394 -984l204 519l-196 473l-111 6v80l189 -6l196 6l170 -6l158 6v-80l-102 -6l-150 -402l256 -608l367 1002l-152 16v78l215 -6l162 6v-78l-111 -16l-475 -1291h-71l-283 678l-268 -678h-64l-522 1291zM901 1268l105 -246l96 246 l-96 4z" />
<glyph unicode="X" horiz-adv-x="1355" d="M16 -4v78l138 18l440 565l-422 603l-137 16v78l227 -6l313 6v-78l-180 -16l318 -449l344 449l-166 16v78l258 -6l188 6v-78l-149 -16l-418 -537l442 -631l129 -18v-78l-200 6l-330 -6v78l182 16l-340 479l-368 -477l170 -18v-78l-262 6z" />
<glyph unicode="Y" horiz-adv-x="1222" d="M12 1276v78l213 -6l289 6v-78l-166 -19l324 -563l307 566l-158 16v78l211 -6l178 6v-78l-114 -16l-375 -685v-481l223 -20v-78l-326 8l-309 -8v78l223 20v469l-397 694z" />
<glyph unicode="Z" horiz-adv-x="1191" d="M31 0v57l815 1196h-131q-391 0 -451 -6q-74 -6 -94 -71q-23 -68 -47 -193h-88l39 369l4 82h86l12 -82h911v-60l-811 -1196q41 -2 148 -2q176 0 373.5 7.5t208.5 13.5q4 4 12 64.5t14 119.5l6 57h88v-356h-1095z" />
<glyph unicode="[" horiz-adv-x="512" d="M135 -528v2029h377v-86l-248 -14v-1829l248 -14v-86h-377z" />
<glyph unicode="\" horiz-adv-x="641" d="M0 1497h133l508 -2025h-133z" />
<glyph unicode="]" horiz-adv-x="512" d="M0 -442l248 14v1829l-248 14v86h377v-2029h-377v86z" />
<glyph unicode="^" d="M35 537l414 933h126l414 -931l-153 -2l-326 753l-320 -753h-155z" />
<glyph unicode="_" d="M0 0h1024v-129h-1024v129z" />
<glyph unicode="`" horiz-adv-x="901" d="M160 1526v6q0 45 100 45q70 0 72 -23l211 -469v-2q0 -20 -62 -20q-6 0 -15 6t-15 12l-5 6z" />
<glyph unicode="a" horiz-adv-x="1114" d="M37 -2v74l104 14l346 897q47 51 64 102h24l371 -997l127 -14v-76l-186 4l-297 -4v76l176 12l-104 287h-312l-110 -287l194 -12v-76l-250 4zM387 467h238l-113 315z" />
<glyph unicode="b" horiz-adv-x="1103" d="M59 889v80q199 12 297 16q137 8 275 8q162 0 238.5 -70.5t76.5 -174.5q0 -74 -50 -134.5t-126 -85.5q102 -23 170 -89t68 -169q0 -121 -95 -197q-92 -75 -234 -75h-7l-297 4l-305 -4v76l211 14v807zM453 164q0 -47 23.5 -60.5t88.5 -19.5h27q102 0 165.5 57.5t63.5 137.5 q0 78 -64.5 138t-150.5 60h-153v-313zM453 567h139q68 0 120 53.5t52 120.5q0 66 -45 114q-43 46 -107 46h-6l-153 -2v-332z" />
<glyph unicode="c" horiz-adv-x="1105" d="M94 489q0 215 141.5 369t352.5 154q160 0 307 -37l10 55h74v-80l8 -235h-76q-16 209 -317 209q-127 0 -219 -124t-92 -300q0 -174 96 -307.5t233 -133.5q61 0 128 11.5t105 25t40 19.5q8 18 17 92t9 90h76v-256q-219 -70 -385 -70q-207 0 -357.5 143.5t-150.5 374.5z" />
<glyph unicode="d" horiz-adv-x="1253" d="M59 889v80q203 12 312 18q68 4 288 4q135 0 236.5 -46t156 -120.5t81 -156.5t26.5 -168q0 -84 -28.5 -169t-86 -163t-161.5 -125q-100 -45 -227 -45h-11l-264 4l-311 -4v76l211 14v807zM453 188q0 -66 36.5 -85t133.5 -19q166 0 257 114.5t91 301.5q0 68 -19.5 135 t-57.5 130.5t-107 102.5q-65 37 -147 37h-9l-178 -6v-711z" />
<glyph unicode="e" horiz-adv-x="1036" d="M74 -2v76l207 14v811l-193 14v78l285 -6l205 2h237l12 60h74v-68l8 -234h-75l-27 150h-354v-350h282l15 119h73v-330h-73l-15 121h-282v-273q0 -86 2 -96q264 2 278 2q117 0 121 12q4 4 11 72t9 72h74v-244h-440l-133 2z" />
<glyph unicode="f" horiz-adv-x="989" d="M88 -2v76l193 14v811l-193 14v78l285 -6l205 2h241l10 60h72v-68l8 -234h-71l-25 150h-360v-367h284l15 121h71v-332h-71l-15 123h-284v-354l235 -12v-76l-311 4z" />
<glyph unicode="g" horiz-adv-x="1234" d="M94 496q0 205 139.5 360.5t366.5 155.5q135 0 326 -37l14 55h70v-55l10 -260h-76q-27 209 -321 209q-141 0 -240.5 -128t-99.5 -300q0 -182 101 -309.5t249 -127.5q92 0 215 43v256l-195 15v78l287 -7l248 7v-78l-170 -13q0 -8 -1 -53t-1 -79.5t2 -80t9 -80t20 -51.5 q-41 0 -170 -18q-166 -27 -252 -27q-254 0 -392.5 149t-138.5 376z" />
<glyph unicode="h" horiz-adv-x="1458" d="M88 -2v76l193 14v811l-193 12v76l283 -4l274 4v-76l-192 -12v-356h551v356l-193 12v76l272 -4l285 4v-76l-192 -12v-811l192 -14v-76l-272 4l-285 -4v76l193 14v363h-551v-363l192 -14v-76l-274 4z" />
<glyph unicode="i" horiz-adv-x="735" d="M88 -2v76l193 14v811l-193 12v76l283 -4l276 4v-76l-194 -12v-811l194 -14v-76l-276 4z" />
<glyph unicode="j" horiz-adv-x="710" d="M37 -281q244 0 244 353v827l-207 12v76l293 -4l278 4v-76l-192 -12v-817q0 -203 -108.5 -320.5t-301.5 -117.5z" />
<glyph unicode="k" horiz-adv-x="1218" d="M88 -2v76l193 14v811l-193 12v76l283 -4l252 4v-76l-170 -12v-367q4 2 29.5 11.5t47 20.5t35.5 24q61 51 299 309l-106 14v76l164 -4l219 4v-76l-164 -16q-199 -225 -307 -328q-25 -20 -37 -26q74 -43 131 -107q45 -51 166 -194.5t135 -157.5l92 -8v-76l-180 4l-205 -4 v76l82 4l-291 332q-39 45 -110 65v-387l170 -14v-76l-252 4z" />
<glyph unicode="l" horiz-adv-x="1005" d="M88 -2v76l193 14v811l-193 12v76l285 -4l274 4v-76l-194 -12v-811h258q113 0 120 14q4 6 29 83t27 89h71l-34 -274h-414l-135 2z" />
<glyph unicode="m" horiz-adv-x="1599" d="M80 -2v74l182 14l25 813l-193 12v76l258 -2l140 2l313 -715l297 715l121 -2l278 2v-76l-201 -12l21 -813l201 -12v-76l-279 4l-235 -4v76l149 12l-24 737l-367 -872l-391 883l-23 -748l166 -14v-74l-203 4z" />
<glyph unicode="n" horiz-adv-x="1314" d="M74 909v78h342l540 -704v616l-180 12v76l215 -2l240 2v-76l-182 -12v-913h-82l-594 774v-674l182 -12v-76l-217 4l-238 -4v74l181 14v772q-39 39 -50 43q-16 8 -157 8z" />
<glyph unicode="o" horiz-adv-x="1212" d="M94 491.5q0 208.5 144.5 364.5t369.5 156q223 0 366.5 -153.5t143.5 -364.5q0 -207 -144.5 -365t-365.5 -158q-225 0 -369.5 156t-144.5 364.5zM283 494q0 -170 95 -305.5t230 -135.5q131 0 226.5 137.5t95.5 303.5q0 164 -95.5 300t-226.5 136q-135 0 -230 -133 t-95 -303z" />
<glyph unicode="p" horiz-adv-x="1036" d="M59 889v80q229 14 299 18q78 6 256 6q143 0 238.5 -81t95.5 -220q0 -135 -110.5 -219t-257.5 -84q-45 0 -127 4v-305l235 -14v-76l-330 4l-270 -4v76l193 14v807zM453 475h82q94 0 159.5 55.5t65.5 161.5q0 98 -50 155q-48 54 -134 54h-7l-116 -2v-424z" />
<glyph unicode="q" horiz-adv-x="1212" d="M94 489q0 211 144.5 367t369.5 156q223 0 366.5 -155t143.5 -365q0 -182 -114.5 -333t-298.5 -186q41 -66 99 -126t97 -87.5t45 -27.5q53 0 168 47l31 -64q-37 -31 -114 -61.5t-142 -30.5q-57 0 -147.5 80t-145.5 147.5t-94 122.5q-182 37 -295 184.5t-113 331.5z M283 492q0 -170 95 -306.5t230 -136.5q133 0 227.5 138.5t94.5 304.5q0 164 -94.5 301t-227.5 137q-135 0 -230 -134t-95 -304z" />
<glyph unicode="r" horiz-adv-x="1083" d="M59 889v80q244 12 299 16q143 10 213 10q166 0 271.5 -72.5t105.5 -201.5q0 -96 -76.5 -176t-160.5 -94q76 -121 182 -281q2 -2 21 -32l39 -59q19 -30 40 -55.5t27 -27.5q12 -4 23.5 -9t21.5 -8.5t31 -5.5l-23 -69l-112 20q-35 6 -74 33t-80 75t-61.5 74.5t-57.5 77.5 q-47 63 -164 248h-71v-346l172 -14v-76l-265 4l-272 -4v76l193 14v809zM453 516l98 4q92 4 150.5 60.5t58.5 134.5t-59 133q-56 53 -145 53h-7l-96 -2v-383z" />
<glyph unicode="s" horiz-adv-x="901" d="M160 -20l8 59l8 227h74q2 -96 65.5 -156.5t153.5 -60.5q63 0 109.5 45t46.5 113q0 43 -27 82t-52.5 58.5t-89 58t-83.5 53.5q-92 63 -147.5 129.5t-55.5 156.5q0 106 80 186.5t223 80.5q45 0 141 -21q10 -4 30 -9t26 -7l16 59h70v-284h-76q-10 88 -61.5 136t-137.5 48 q-59 0 -96 -52.5t-37 -99.5q0 -23 4 -43t17.5 -39.5t22.5 -32t34 -32t35 -27.5t44 -29.5t44 -29.5l55 -37q43 -29 59.5 -41t49 -42t47 -53.5t27 -58t12.5 -73.5q0 -121 -96.5 -197t-227.5 -76q-125 0 -233 49l-6 -40h-76z" />
<glyph unicode="t" horiz-adv-x="1126" d="M53 705l39 274v68h72l10 -60h801l8 60h74v-342h-74l-20 190h-310v-807l209 -14v-76l-295 4l-299 -4v76l213 14v807h-258q-29 0 -40 -10.5t-19 -46.5l-39 -133h-72z" />
<glyph unicode="u" horiz-adv-x="1288" d="M57 911v76l269 -4l292 4v-76l-192 -12v-545q0 -135 74.5 -200.5t187.5 -65.5q115 0 191.5 66.5t76.5 199.5v545l-188 12v76l244 -2l219 2v-76l-178 -12v-551q0 -180 -106.5 -274t-282.5 -94q-166 0 -289 91t-123 240v588z" />
<glyph unicode="v" horiz-adv-x="1134" d="M27 911v76l202 -4l263 4v-76l-160 -10l282 -688l269 686l-162 12v76l215 -4l174 4v-76l-131 -12l-365 -924h-77l-383 924z" />
<glyph unicode="w" horiz-adv-x="1558" d="M27 911v76l196 -4l201 4v-74l-92 -12l276 -676l133 318l-153 364l-84 4v76l155 -4l144 4l125 -4l135 4v-76l-84 -4l-102 -276l180 -420l258 690l-131 10v76l186 -4l172 4v-76l-131 -12l-348 -922h-78l-190 443l-185 -443h-75l-381 922zM760 907l63 -145l62 145l-72 2z " />
<glyph unicode="x" horiz-adv-x="1144" d="M41 -2v76l135 12l316 393l-302 420l-127 12v76l205 -4l271 4v-76l-146 -10l217 -295l238 295l-137 10v76l217 -4l174 4v-76l-146 -12l-297 -371l316 -442l129 -12v-76l-195 4l-280 -4v76l147 10l-229 317l-260 -317l141 -10v-76l-221 4z" />
<glyph unicode="y" horiz-adv-x="1038" d="M16 913v74l203 -4l252 4v-76l-139 -10l237 -383l234 383l-131 10v76l180 -4l170 4v-74l-121 -14l-287 -479v-332l213 -14v-76l-305 4l-289 -4v76l209 14v322l-305 489z" />
<glyph unicode="z" horiz-adv-x="1015" d="M90 0v53l586 842q-393 0 -420 -2q-39 -6 -53 -45q-16 -47 -35 -146h-76l31 277l2 68h74l8 -56h690v-57l-586 -844q48 -1 101 -1t111 1q116 2 210 4t96 4l7 41q4 41 9 88t5 52h76v-279h-836z" />
<glyph unicode="{" horiz-adv-x="641" d="M12 469v72l84 4q100 6 138 71.5t38 174.5q0 72 -12 194.5t-12 194.5q0 152 58.5 238.5t223.5 86.5h111v-71l-90 -4q-180 -10 -180 -234q0 -78 20.5 -210t20.5 -208q2 -109 -36 -179.5t-143 -94.5q182 -45 179 -281q-2 -76 -19.5 -205t-17.5 -202q-8 -250 176 -260l90 -7 v-71h-111q-164 0 -223 85t-59 232q0 78 12 211t12 211q0 236 -174 246z" />
<glyph unicode="|" horiz-adv-x="512" d="M193 -528v2025h126v-2025h-126z" />
<glyph unicode="}" horiz-adv-x="641" d="M0 -451l90 5q182 12 178 262q0 74 -17.5 202.5t-19.5 204.5q-8 233 177 281q-104 25 -142.5 95.5t-36.5 178.5q2 74 22.5 206t20.5 212q0 223 -182 231l-90 7v71h111q164 0 224 -87t60 -238q0 -72 -12 -195t-12 -194q0 -109 35.5 -174.5t136.5 -71.5l84 -4v-72l-84 -6 q-172 -10 -172 -246q0 -78 12 -211t12 -211q0 -147 -60.5 -232t-223.5 -85h-111v71z" />
<glyph unicode="~" d="M14 463l19 12q16 12 48 31.5t70.5 39t87 33t93.5 13.5q72 0 194.5 -59.5t180.5 -59.5q29 0 63.5 11.5t62 27.5t51 32.5t38.5 26.5l12 11l76 -123l-45 -31q-45 -31 -125 -64.5t-152 -33.5t-192.5 59.5t-176.5 59.5q-31 0 -64.5 -11.5t-62 -28t-52 -33t-38.5 -26.5l-12 -10 z" />
<glyph unicode="&#xa1;" horiz-adv-x="512" d="M123 866q0 55 41 95t94 40q55 0 96 -39.5t41 -95.5q0 -53 -41 -92t-96 -39q-53 0 -94 39t-41 92zM147 -193q12 16 15 37q14 211 31 633l6 82l110 8q41 -539 41 -663q4 -8 4 -45q0 -41 -10 -49q0 -6 -8 -7h-2q-8 0 -36 -6t-46 -6q-27 0 -53.5 4t-38.5 8z" />
<glyph unicode="&#xa2;" d="M74 489q0 215 141 370t352 153h31l33 266h104l-33 -270q49 -4 172 -33l11 55h73v-80l9 -235h-76q-12 166 -199 200l-104 -856h4q61 0 127.5 11.5t104.5 25t40 19.5q8 18 17.5 92t9.5 90h76v-256q-229 -72 -385 -70h-4l-31 -245h-105l31 256q-172 37 -285.5 172.5 t-113.5 334.5zM262 500q0 -137 62.5 -254t160.5 -162l103 840h-15q-127 2 -219 -123t-92 -301z" />
<glyph unicode="&#xa3;" d="M4 -313q0 63 62.5 104t175.5 41q29 0 73 -4q47 197 56 266l-178 -14q-2 61 16 81.5t53 20.5q8 0 26.5 -1t26.5 -1q59 0 74 60q6 23 60.5 383t58.5 381q14 90 40.5 156.5t77 127t135.5 92t204 31.5q92 0 158.5 -30.5t66.5 -98.5q0 -37 -10.5 -55.5t-44.5 -55.5l-107 -18 q8 33 8 88q0 70 -80 70q-98 0 -112 -8q-131 -102 -150 -256q-6 -55 -63.5 -447.5t-61.5 -421.5h244l-12 -98l-244 14q4 4 -8 -54t-33.5 -139t-40.5 -124q4 -2 51 -29t67.5 -38t60.5 -29.5t68 -26.5t50 -8q66 0 109 55t43 152l90 18q20 -84 20 -143q0 -55 -25.5 -93 t-67.5 -53.5t-76 -20.5t-68 -5q-180 0 -373 122q-41 -59 -114.5 -89.5t-151.5 -30.5q-80 0 -117 39t-37 90zM135 -313q0 -25 18.5 -39.5t36.5 -14.5q57 0 99 113q-53 14 -76 14q-31 0 -54.5 -19t-23.5 -54z" />
<glyph unicode="&#xa4;" d="M31 76l217 215q-51 80 -51 172q0 94 51 172l-217 217l100 100l217 -221q76 47 164 47q94 0 172 -49l221 223l101 -100l-226 -225q47 -72 47 -164q0 -88 -47 -164l226 -221l-99 -101l-223 224q-76 -53 -172 -54q-84 0 -164 48l-217 -218zM328 463q0 -78 53 -131t131 -53 t132 53t54 131t-54 133t-132 55t-131 -54t-53 -134z" />
<glyph unicode="&#xa5;" d="M-29 1276v78l195 -6l287 6v-78l-166 -19l282 -563l267 566l-158 16v78l211 -6l158 6v-78l-95 -16l-297 -615h293v-82h-330v-141h330v-82h-330v-246l224 -20v-78l-324 8l-311 -8v78l223 20v246h-352v82h352v141h-352v82h305l-309 612z" />
<glyph unicode="&#xa6;" horiz-adv-x="512" d="M195 346h114v-874h-114v874zM195 625v872h114v-872h-114z" />
<glyph unicode="&#xa7;" horiz-adv-x="897" d="M94 -387q0 14 3 26.5t11.5 27t11.5 20.5t18.5 23.5t17.5 21.5l118 10q0 -35 7.5 -74t13.5 -61l8 -21q20 -6 47 -6q150 0 208 104.5t58 303.5q0 193 -27.5 360.5t-94 423.5t-86.5 346q0 -2 6 5t22.5 17.5t36.5 10.5q6 0 10 -4t6 -8l3 -4q268 -641 268 -1035 q0 -127 -21.5 -233.5t-66.5 -197.5t-129 -142t-199 -51q-47 0 -101.5 13t-101.5 46t-47 78zM135 868q0 172 36 306.5t133 227.5t249 93q47 0 101.5 -13.5t100.5 -46t46 -77.5q0 -14 -3 -26.5t-11.5 -27t-11.5 -20.5t-18.5 -23.5t-17.5 -21.5l-116 -10q0 35 -7.5 73.5 t-13.5 61.5l-8 20q-20 6 -49 7q-147 0 -206.5 -105.5t-59.5 -302.5q0 -193 27.5 -362.5t95 -422.5t87.5 -350q2 -2 -4 -8t-18 -10t-25 -4l-36 8q-271 641 -271 1034z" />
<glyph unicode="&#xa8;" horiz-adv-x="901" d="M152 1190q0 47 30.5 82t75.5 35t77 -35t32 -82q0 -43 -33 -77t-76 -34q-45 0 -75.5 33t-30.5 78zM502 1190q0 47 31.5 82t76.5 35q43 0 74 -35t31 -82q0 -45 -31 -78t-74 -33q-45 0 -76.5 33t-31.5 78z" />
<glyph unicode="&#xa9;" horiz-adv-x="2048" d="M106 469q0 379 270.5 647t649.5 268q381 0 648.5 -268t267.5 -647q0 -248 -122 -459t-333 -333.5t-461 -122.5q-379 0 -649.5 268t-270.5 647zM236 467q0 -328 231 -562.5t557 -234.5t557 234.5t231 560.5q0 330 -231 567.5t-557 237.5t-557 -237.5t-231 -565.5zM543 463 q0 227 149.5 361t351.5 134q88 0 234 -43l6 58h96v-62l9 -241h-93q-6 96 -65.5 143t-183.5 47q-137 0 -232.5 -106.5t-95.5 -282.5q0 -170 100.5 -283.5t247.5 -113.5q215 0 225 32q10 29 27 179h92v-248q-166 -59 -354 -60q-90 0 -178 30t-165 87.5t-124 153.5t-47 215z " />
<glyph unicode="&#xaa;" horiz-adv-x="968" d="M25 559v62l77 12l326 758h109l313 -758l84 -10v-64l-158 6l-254 -6v66l121 10l-59 151h-308l-67 -149l127 -10v-68l-172 6zM315 877h230l-103 292z" />
<glyph unicode="&#xab;" horiz-adv-x="1011" d="M53 451q102 84 113 92q72 57 213 194q14 14 32.5 34t28 29t19.5 18t17 13.5t11 4.5q8 0 11.5 -2.5t9.5 -9.5t14 -13q-20 -35 -49 -82q-14 -23 -123 -194q-14 -23 -31.5 -44.5t-27.5 -31.5l-8 -8q35 -31 63 -80q23 -39 69 -108.5t56 -86.5l51 -84q-6 -4 -12 -11t-10 -9 t-13 -2q-4 0 -11 4t-17 13l-20 18l-27 28l-33 33q-129 129 -213 194zM481 451q102 84 113 92q72 57 213 194l33 33q18 18 27.5 28.5t19.5 19.5t16 13.5t10 4.5q8 0 12.5 -2.5t11.5 -9.5l13 -13q-20 -35 -49 -82q-14 -23 -123 -194q-14 -23 -31.5 -44.5t-27.5 -31.5l-10 -8 q37 -31 65 -80q23 -39 70 -111t55 -84l51 -84q-6 -4 -11 -9l-7 -7q-2 -2 -7 -4t-12 -2q-4 0 -10 4t-16 13l-20 18l-27 28l-33 33q-121 121 -213 194z" />
<glyph unicode="&#xac;" d="M29 788v140h966v-572h-137v432h-829z" />
<glyph unicode="&#xad;" horiz-adv-x="768" d="M127 383v180h516v-178z" />
<glyph unicode="&#xae;" horiz-adv-x="1280" d="M61 776.5q0 239.5 170 409.5t412 170q240 0 408 -170t168 -409.5t-168 -409.5t-408 -170t-411 170t-171 409.5zM168 778q0 -195 138 -335t333 -140q197 0 334 139.5t137 335.5h2q0 197 -138 334t-333 137q-197 0 -335 -137t-138 -334zM326 1024v63q152 8 186 13 q8 0 77.5 2t86.5 2q102 0 169.5 -45t67.5 -127q0 -68 -49 -120t-104 -56q25 -47 49.5 -86t36.5 -56l12 -16q37 -63 62 -88q23 -23 32 -29l-22 -41l-62 19q-70 20 -145 131q-72 96 -96 147h-66v-194l94 -11v-65l-141 4l-172 -4v65l96 11v485zM561 807l94 2q76 2 100.5 31.5 t24.5 89.5q0 104 -125 102l-94 -2v-223z" />
<glyph unicode="&#xaf;" horiz-adv-x="901" d="M78 1151v109h696v-107z" />
<glyph unicode="&#xb0;" horiz-adv-x="768" d="M70 1178q0 131 92 223t223 92t222 -92t91 -223t-91 -223.5t-222 -92.5t-223 92.5t-92 223.5zM201 1178q0 -76 53 -130.5t131 -54.5t132 53.5t54 131t-54 132t-132 54.5t-131 -54t-53 -132z" />
<glyph unicode="&#xb1;" d="M45 2v141h934v-141h-934zM45 547v141h395v338h142v-338h397v-139h-397v-340h-142v338h-395z" />
<glyph unicode="&#xb2;" horiz-adv-x="681" d="M16 1313q106 203 355 203q109 0 180.5 -65t71.5 -183q0 -207 -215 -430l-199 -205q70 -4 256 -4q23 0 104 8l21 147h74v-258h-621v62l254 286q133 156 133 379q0 61 -34 105.5t-85 44.5q-119 0 -209 -143z" />
<glyph unicode="&#xb3;" horiz-adv-x="681" d="M10 623l78 79q111 -98 203 -98q66 0 129 52.5t63 142.5q0 86 -52 138t-112 58l-98 11v57q223 39 223 235q0 37 -28.5 74t-75.5 37q-68 0 -110 -16.5t-101 -63.5l-70 84q90 61 149.5 82t158.5 21q127 0 199.5 -61.5t72.5 -158.5q0 -94 -66.5 -161.5t-164.5 -90.5 q111 -4 190.5 -70.5t79.5 -166.5q0 -131 -101.5 -213t-275.5 -82q-102 0 -165 27t-126 84z" />
<glyph unicode="&#xb4;" horiz-adv-x="901" d="M356 1079l2 6l203 453q33 37 107 37q80 0 80 -31l-3 -6l-301 -463q-25 -12 -55 -12q-33 0 -33 16z" />
<glyph unicode="&#xb5;" horiz-adv-x="1599" d="M80 -2v74l182 14l25 813l-193 12v76l258 -2l140 2l313 -715l297 715l121 -2l278 2v-76l-201 -12l21 -813l201 -12v-76l-279 4l-235 -4v76l149 12l-24 737l-367 -872l-391 883l-23 -748l166 -14v-74l-203 4z" />
<glyph unicode="&#xb6;" horiz-adv-x="1351" d="M139 911q0 246 150.5 400.5t376.5 154.5h600v-84l-193 -22v-1880h-125v1882h-133v-1882h-129v889h-49q-213 0 -355.5 150t-142.5 392z" />
<glyph unicode="&#xb7;" d="M377 469q0 53 41 92t94 39t94 -39t41 -92q0 -55 -41 -96t-94 -41t-94 41t-41 96z" />
<glyph unicode="&#xb8;" horiz-adv-x="882" d="M248 -397q0 10 11 22.5t22 20.5l10 8q82 -35 127 -35q47 0 77.5 25.5t30.5 76.5q0 109 -194 109l100 170h88l-69 -125q86 0 151.5 -42t65.5 -107q0 -86 -69 -132.5t-161 -46.5q-190 1 -190 56z" />
<glyph unicode="&#xb9;" horiz-adv-x="681" d="M39 1309v77l309 123h86v-897l203 -12v-74l-272 9l-312 -9v74l205 12v744z" />
<glyph unicode="&#xba;" d="M66 950q0 164 115.5 286t332.5 122q219 0 333 -120t114 -283.5t-115 -287.5t-332 -124t-332.5 121.5t-115.5 285.5zM268 954q0 -137 63.5 -231t182.5 -94t181.5 96t62.5 229v-2q0 133 -62.5 227.5t-181.5 94.5t-182.5 -92.5t-63.5 -227.5z" />
<glyph unicode="&#xbb;" horiz-adv-x="1011" d="M61 92q20 37 52 84q111 172 123 195q29 49 67 80q-37 33 -70 84q-109 172 -122 194l-50 82q8 6 14.5 13t9.5 9.5t11 2.5q4 0 11.5 -4.5t17.5 -13.5t19.5 -18t27.5 -28.5t33 -34.5q141 -137 213 -194l112 -92l-112 -91q-84 -66 -213 -194l-33 -33l-28 -28q-9 -9 -19 -18 t-16.5 -13t-10.5 -4q-12 -1 -37 22zM489 92q20 37 52 84q111 172 123 194.5t28.5 42t26.5 29.5l10 9q-35 33 -67 84q-109 172 -123 194l-50 82q8 6 14.5 13t9.5 9.5t11 2.5t18.5 -9.5t40 -40t50.5 -49.5q147 -143 213 -194l112 -92l-112 -91q-84 -66 -213 -194l-49 -49 q-29 -29 -40.5 -38t-19.5 -9q-10 -1 -35 22z" />
<glyph unicode="&#xbc;" horiz-adv-x="2048" d="M213 1208v70l287 115h80v-826l184 -12v-68l-252 7l-285 -7v68l189 12v684zM580 -35l811 1467l100 -56l-813 -1466zM1176 268v62q82 162 161 280q47 70 105.5 144.5t93.5 113.5l37 41h86v-567h98q43 0 64 6l-45 -80h-117v-268h-146v268h-337zM1286 342h227v354 q-186 -252 -227 -354z" />
<glyph unicode="&#xbd;" horiz-adv-x="2048" d="M213 1208v70l287 115h80v-826l184 -12v-68l-252 7l-285 -7v68l189 12v684zM580 -35l811 1467l100 -56l-813 -1466zM1219 723q100 186 325 186q100 0 166 -60.5t66 -168.5q0 -188 -199 -395l-180 -189q63 -2 235 -2q41 0 97 6l18 136h65v-236h-569v57l234 262 q123 141 122 351q0 55 -30.5 95t-77.5 40q-111 0 -195 -131z" />
<glyph unicode="&#xbe;" horiz-adv-x="2048" d="M188 565l70 74q117 -88 186 -88q59 0 118 47t59 129t-46.5 129t-103.5 53l-90 9v53q205 35 205 217q0 35 -27 68.5t-70 33.5q-61 0 -100 -15t-92 -61l-64 78q80 57 136.5 77t146.5 20q117 0 181.5 -57.5t64.5 -147.5q0 -86 -60.5 -148.5t-148.5 -81.5q100 -4 174 -65.5 t74 -151.5q0 -119 -93.5 -194.5t-254.5 -75.5q-92 0 -150 24.5t-115 73.5zM580 -35l811 1467l100 -56l-813 -1466zM1176 268v62q82 162 161 280q47 70 105.5 144.5t93.5 113.5l37 41h86v-567h98q43 0 64 6l-45 -80h-117v-268h-146v268h-337zM1286 342h227v354 q-186 -252 -227 -354z" />
<glyph unicode="&#xbf;" horiz-adv-x="954" d="M213 305q0 47 19.5 126t50.5 79h270v86h117l35 -209q-29 10 -93 10h-225q-2 -33 -2 -65q0 -197 47 -262q27 -37 215 -37q61 0 127 10l-57 -221q-205 0 -354.5 148.5t-149.5 334.5zM492 868q0 55 36.5 94t87.5 39q49 0 86 -38.5t37 -94.5q0 -51 -36.5 -89t-86.5 -38 q-51 0 -87.5 38t-36.5 89z" />
<glyph unicode="&#xc0;" horiz-adv-x="1257" d="M0 -4v78l125 20l457 1262q37 31 65 102h25l471 -1364l114 -20v-78l-176 8l-307 -8v78l170 18l-147 430h-408l-156 -428l170 -20v-78l-239 8zM371 1835v4q0 33 96 33l68 -14l202 -347q4 -16 -59 -16l-35 18zM426 625h334l-119 350q-37 106 -43 145q-4 -37 -45 -147z" />
<glyph unicode="&#xc1;" horiz-adv-x="1257" d="M0 -4v78l125 20l457 1262q37 31 65 102h25l471 -1364l114 -20v-78l-176 8l-307 -8v78l170 18l-147 430h-408l-156 -428l170 -20v-78l-239 8zM426 625h334l-119 350q-37 106 -43 145q-4 -37 -45 -147zM594 1495v6l190 332q37 25 107 25q76 0 76 -21l-2 -4l-291 -342 q-20 -10 -51 -10q-29 0 -29 14z" />
<glyph unicode="&#xc2;" horiz-adv-x="1257" d="M0 -4v78l125 20l457 1262q37 31 65 102h25l471 -1364l114 -20v-78l-176 8l-307 -8v78l170 18l-147 430h-408l-156 -428l170 -20v-78l-239 8zM387 1434v6l195 332q18 25 73 24q39 0 54 -12l202 -348q4 -16 -59 -17q-6 0 -15.5 5.5t-13.5 9.5l-6 6l-170 223l-176 -233 q-25 -10 -55 -11q-29 1 -29 15zM426 625h334l-119 350q-37 106 -43 145q-4 -37 -45 -147z" />
<glyph unicode="&#xc3;" horiz-adv-x="1257" d="M0 -4v78l125 20l457 1262q37 31 65 102h25l471 -1364l114 -20v-78l-176 8l-307 -8v78l170 18l-147 430h-408l-156 -428l170 -20v-78l-239 8zM332 1532l2 6q121 137 233 137q45 0 124 -52t145 -52q45 0 75.5 13t77.5 58q39 -14 39 -28l-6 -10q-68 -76 -117 -102.5 t-106 -26.5q-76 0 -146 49q-45 33 -66.5 41t-62.5 8q-74 0 -151 -70h-2q-6 0 -22.5 10.5t-16.5 18.5zM426 625h334l-119 350q-37 106 -43 145q-4 -37 -45 -147z" />
<glyph unicode="&#xc4;" horiz-adv-x="1257" d="M0 -4v78l125 20l457 1262q37 31 65 102h25l471 -1364l114 -20v-78l-176 8l-307 -8v78l170 18l-147 430h-408l-156 -428l170 -20v-78l-239 8zM356 1538q0 43 28 73.5t71 30.5t73.5 -30.5t30.5 -73.5t-29.5 -72.5t-74.5 -29.5q-43 0 -71 29.5t-28 72.5zM426 625h334 l-119 350q-37 106 -43 145q-4 -37 -45 -147zM721 1538q0 43 27.5 73.5t70.5 30.5t74 -30.5t31 -73.5t-30 -72.5t-75 -29.5q-43 0 -70.5 29.5t-27.5 72.5z" />
<glyph unicode="&#xc5;" horiz-adv-x="1257" d="M0 -4v78l125 20l457 1262q20 18 32 41q-72 10 -117.5 64.5t-45.5 127.5q0 84 56 141.5t138 57.5q84 0 143.5 -58.5t59.5 -140.5q0 -70 -44 -122t-112 -68l451 -1305l114 -20v-78l-176 8l-307 -8v78l170 18l-147 430h-408l-156 -428l170 -20v-78l-239 8zM426 625h334 l-119 350q-37 106 -43 145q-4 -37 -45 -147zM532 1589q0 -45 33 -78.5t80 -33.5t83 33.5t36 78.5q0 47 -35 80t-84 33q-47 0 -80 -33t-33 -80z" />
<glyph unicode="&#xc6;" horiz-adv-x="1763" d="M0 -4v78l139 20l590 1161l-141 19v80l344 -8l282 6h316l14 82h88v-80l13 -314h-89l-34 213h-504v-518h401l21 164h86v-432h-86l-21 168h-401v-457q0 -68 6 -78q8 -8 188 -8l183 2q51 -2 116.5 8.5t73.5 20.5l27 188h86v-311h-578l-182 4l-328 -8v78l219 20v336h-393 l-170 -336l170 -20v-78l-237 8zM487 530h342v668z" />
<glyph unicode="&#xc7;" horiz-adv-x="1363" d="M104 670q0 293 203 500.5t484 207.5q188 0 374 -49l15 82h88l10 -94v-316h-86q-10 141 -104.5 212t-290.5 71q-195 0 -339.5 -178t-144.5 -424q0 -238 150.5 -426t359.5 -188q109 0 216.5 27.5t117.5 49.5q8 18 16.5 79t14.5 112l4 51h86v-334q-182 -68 -420 -80l-55 -88 q84 0 146.5 -39t62.5 -98q0 -80 -66.5 -123t-154.5 -43q-59 0 -121 12.5t-62 38.5q0 8 10.5 20.5t19.5 21t11 8.5q78 -33 123 -33q104 0 105 94q0 100 -187 100l80 129q-266 16 -466 204t-200 493z" />
<glyph unicode="&#xc8;" horiz-adv-x="1218" d="M63 -4v78l220 20v1161l-199 19v80l303 -8l283 6h315l14 82h86v-80l13 -314h-88l-35 213h-504v-518h403l19 164h86v-432h-86l-19 168h-403v-457q0 -68 6 -78q8 -8 189 -8l182 2q51 -2 117.5 8.5t72.5 20.5l27 188h86v-311h-576l-184 4zM395 1774v4q0 33 97 32l67 -14 l203 -346q4 -16 -60 -16l-34 18z" />
<glyph unicode="&#xc9;" horiz-adv-x="1218" d="M63 -4v78l220 20v1161l-199 19v80l303 -8l283 6h315l14 82h86v-80l13 -314h-88l-35 213h-504v-518h403l19 164h86v-432h-86l-19 168h-403v-457q0 -68 6 -78q8 -8 189 -8l182 2q51 -2 117.5 8.5t72.5 20.5l27 188h86v-311h-576l-184 4zM557 1434v6l191 332q37 25 106 24 q76 0 76 -20l-2 -4l-291 -342q-20 -10 -51 -11q-29 1 -29 15z" />
<glyph unicode="&#xca;" horiz-adv-x="1218" d="M63 -4v78l220 20v1161l-199 19v80l303 -8l283 6h315l14 82h86v-80l13 -314h-88l-35 213h-504v-518h403l19 164h86v-432h-86l-19 168h-403v-457q0 -68 6 -78q8 -8 189 -8l182 2q51 -2 117.5 8.5t72.5 20.5l27 188h86v-311h-576l-184 4zM385 1434v6l195 332q18 25 73 24 q39 0 54 -12l202 -348q4 -16 -59 -17q-6 0 -15.5 5.5t-15.5 9.5l-4 6l-170 223l-176 -233q-25 -10 -55 -11q-29 1 -29 15z" />
<glyph unicode="&#xcb;" horiz-adv-x="1218" d="M63 -4v78l220 20v1161l-199 19v80l303 -8l283 6h315l14 82h86v-80l13 -314h-88l-35 213h-504v-518h403l19 164h86v-432h-86l-19 168h-403v-457q0 -68 6 -78q8 -8 189 -8l182 2q51 -2 117.5 8.5t72.5 20.5l27 188h86v-311h-576l-184 4zM334 1548q0 43 27.5 74t70.5 31 t74 -31t31 -74t-30 -72.5t-75 -29.5q-43 0 -70.5 29.5t-27.5 72.5zM727 1548q0 43 27.5 74t70.5 31t74 -31t31 -74t-30 -72.5t-75 -29.5q-43 0 -70.5 29.5t-27.5 72.5z" />
<glyph unicode="&#xcc;" horiz-adv-x="768" d="M68 -4v78l221 20v1163l-221 19v78l323 -6l307 6v-78l-221 -19v-1163l221 -20v-78l-307 8zM98 1759v4q0 33 97 33l67 -14l203 -346q4 -16 -59 -17l-35 19z" />
<glyph unicode="&#xcd;" horiz-adv-x="768" d="M68 -4v78l221 20v1163l-221 19v78l323 -6l307 6v-78l-221 -19v-1163l221 -20v-78l-307 8zM340 1434v6l190 332q37 25 107 24q76 0 76 -20l-2 -4l-291 -342q-20 -10 -51 -11q-29 1 -29 15z" />
<glyph unicode="&#xce;" horiz-adv-x="768" d="M68 -4v78l221 20v1163l-221 19v78l323 -6l307 6v-78l-221 -19v-1163l221 -20v-78l-307 8zM125 1434v6l194 332q18 25 74 24q39 0 53 -12l203 -348q4 -16 -59 -17q-6 0 -15.5 5.5t-13.5 9.5l-6 6l-170 223l-176 -233q-25 -10 -55 -11q-29 1 -29 15z" />
<glyph unicode="&#xcf;" horiz-adv-x="768" d="M68 -4v78l221 20v1163l-221 19v78l323 -6l307 6v-78l-221 -19v-1163l221 -20v-78l-307 8zM100 1548q0 43 28 74t71 31t73.5 -31t30.5 -74t-29.5 -72.5t-74.5 -29.5q-43 0 -71 29.5t-28 72.5zM465 1548q0 43 27.5 74t70.5 31t74 -31t31 -74t-30 -72.5t-75 -29.5 q-43 0 -70.5 29.5t-27.5 72.5z" />
<glyph unicode="&#xd0;" horiz-adv-x="1558" d="M-18 662v77h301v514l-238 -8v80q197 16 344 27q57 4 393 4q141 0 256 -41t187.5 -107.5t123 -155.5t71 -181.5t20.5 -188.5q0 -117 -39 -233.5t-116 -221t-213 -169t-312 -60.5l-361 6l-338 -8v78l222 20v568h-301zM471 250q0 -100 57.5 -131t200.5 -31q244 0 372 167 t128 427q0 94 -25.5 190.5t-79 188.5t-153 149.5t-230.5 55.5l-270 -6v-521h311v-77h-311v-412z" />
<glyph unicode="&#xd1;" horiz-adv-x="1519" d="M53 1272v80h375l741 -1033v938l-192 19v78l248 -4l231 4v-78l-178 -19v-1275h-104l-793 1105v-993l192 -20v-78l-243 8l-240 -8v78l182 20v1094q-41 55 -73 72q-10 6 -46 9t-67 3h-33zM426 1532l2 6q121 137 234 137q45 0 123.5 -52t144.5 -52q45 0 75.5 13t77.5 58 q39 -14 39 -28l-6 -10q-68 -76 -117 -102.5t-106 -26.5q-76 0 -145 49q-45 33 -67 41t-63 8q-74 0 -151 -70h-2q-6 0 -22.5 10.5t-16.5 18.5z" />
<glyph unicode="&#xd2;" horiz-adv-x="1576" d="M113 674q0 289 192.5 496.5t487.5 207.5q293 0 483 -206.5t190 -495.5q0 -285 -191.5 -495t-481.5 -210q-295 0 -487.5 207t-192.5 496zM322 675.5q0 -237.5 135 -426t336 -188.5q199 0 331.5 190.5t132.5 424.5q0 229 -133 420.5t-331 191.5q-201 0 -336 -187.5 t-135 -425zM518 1780v4q0 33 96 33l68 -15l203 -346q4 -16 -60 -16l-34 18z" />
<glyph unicode="&#xd3;" horiz-adv-x="1576" d="M113 674q0 289 192.5 496.5t487.5 207.5q293 0 483 -206.5t190 -495.5q0 -285 -191.5 -495t-481.5 -210q-295 0 -487.5 207t-192.5 496zM322 675.5q0 -237.5 135 -426t336 -188.5q199 0 331.5 190.5t132.5 424.5q0 229 -133 420.5t-331 191.5q-201 0 -336 -187.5 t-135 -425zM727 1434v6l191 332q37 25 106 24q76 0 76 -20l-2 -4l-291 -342q-20 -10 -51 -11q-29 1 -29 15z" />
<glyph unicode="&#xd4;" horiz-adv-x="1576" d="M113 674q0 289 192.5 496.5t487.5 207.5q293 0 483 -206.5t190 -495.5q0 -285 -191.5 -495t-481.5 -210q-295 0 -487.5 207t-192.5 496zM322 675.5q0 -237.5 135 -426t336 -188.5q199 0 331.5 190.5t132.5 424.5q0 229 -133 420.5t-331 191.5q-201 0 -336 -187.5 t-135 -425zM539 1434v6l194 332q18 25 74 24q39 0 53 -12l203 -348q4 -16 -59 -17q-6 0 -15.5 5.5t-13.5 9.5l-6 6l-170 223l-176 -233q-25 -10 -56 -11q-28 1 -28 15z" />
<glyph unicode="&#xd5;" horiz-adv-x="1576" d="M113 674q0 289 192.5 496.5t487.5 207.5q293 0 483 -206.5t190 -495.5q0 -285 -191.5 -495t-481.5 -210q-295 0 -487.5 207t-192.5 496zM322 675.5q0 -237.5 135 -426t336 -188.5q199 0 331.5 190.5t132.5 424.5q0 229 -133 420.5t-331 191.5q-201 0 -336 -187.5 t-135 -425zM442 1532l2 6q121 137 234 137q45 0 124 -52t144 -52q45 0 76 13t78 58q39 -14 39 -28l-6 -10q-68 -76 -117 -102.5t-107 -26.5q-76 0 -145 49q-45 33 -66.5 41t-62.5 8q-74 0 -152 -70h-2q-6 0 -22.5 10.5t-16.5 18.5z" />
<glyph unicode="&#xd6;" horiz-adv-x="1576" d="M113 674q0 289 192.5 496.5t487.5 207.5q293 0 483 -206.5t190 -495.5q0 -285 -191.5 -495t-481.5 -210q-295 0 -487.5 207t-192.5 496zM322 675.5q0 -237.5 135 -426t336 -188.5q199 0 331.5 190.5t132.5 424.5q0 229 -133 420.5t-331 191.5q-201 0 -336 -187.5 t-135 -425zM453 1548q0 43 27.5 74t70.5 31t73.5 -31t30.5 -74t-29.5 -72.5t-74.5 -29.5q-43 0 -70.5 29.5t-27.5 72.5zM926 1548q0 43 27.5 74t70.5 31t73.5 -31t30.5 -74t-29.5 -72.5t-74.5 -29.5q-43 0 -70.5 29.5t-27.5 72.5z" />
<glyph unicode="&#xd7;" d="M31 76l389 389l-387 387l100 100l387 -387l387 387l99 -100l-385 -385l389 -389l-101 -101l-389 390l-389 -390z" />
<glyph unicode="&#xd8;" horiz-adv-x="1576" d="M113 674q0 289 193.5 496.5t488.5 207.5q238 0 419 -149l154 178l62 -55l-156 -178q193 -199 192 -498q0 -184 -84 -344t-239.5 -260.5t-347.5 -100.5q-250 0 -430 154l-156 -178l-62 53l156 178q-190 211 -190 496zM324 676q0 -195 96 -365l694 801q-131 176 -319 176 q-203 0 -337 -187t-134 -425zM465 240q135 -178 330 -179q133 0 241.5 93.5t164.5 232.5t56 289q0 195 -96 364z" />
<glyph unicode="&#xd9;" horiz-adv-x="1533" d="M31 1276v78l278 -6l316 6v-78l-203 -19v-776q0 -193 108.5 -290t276.5 -97q170 0 279.5 98.5t109.5 290.5v774l-192 19v78l249 -4l230 4v-78l-178 -19v-784q0 -248 -149.5 -374t-381.5 -126q-217 0 -379 122t-162 327v835zM508 1759v4q0 33 96 33l68 -14l202 -346 q4 -16 -59 -17l-35 19z" />
<glyph unicode="&#xda;" horiz-adv-x="1533" d="M31 1276v78l278 -6l316 6v-78l-203 -19v-776q0 -193 108.5 -290t276.5 -97q170 0 279.5 98.5t109.5 290.5v774l-192 19v78l249 -4l230 4v-78l-178 -19v-784q0 -248 -149.5 -374t-381.5 -126q-217 0 -379 122t-162 327v835zM721 1434v6l190 332q37 25 107 24q76 0 76 -20 l-2 -4l-291 -342q-20 -10 -51 -11q-29 1 -29 15z" />
<glyph unicode="&#xdb;" horiz-adv-x="1533" d="M31 1276v78l278 -6l316 6v-78l-203 -19v-776q0 -193 108.5 -290t276.5 -97q170 0 279.5 98.5t109.5 290.5v774l-192 19v78l249 -4l230 4v-78l-178 -19v-784q0 -248 -149.5 -374t-381.5 -126q-217 0 -379 122t-162 327v835zM539 1434v6l194 332q18 25 74 24q39 0 53 -12 l203 -348q4 -16 -59 -17q-6 0 -15.5 5.5t-13.5 9.5l-6 6l-170 223l-176 -233q-25 -10 -56 -11q-28 1 -28 15z" />
<glyph unicode="&#xdc;" horiz-adv-x="1533" d="M31 1276v78l278 -6l316 6v-78l-203 -19v-776q0 -193 108.5 -290t276.5 -97q170 0 279.5 98.5t109.5 290.5v774l-192 19v78l249 -4l230 4v-78l-178 -19v-784q0 -248 -149.5 -374t-381.5 -126q-217 0 -379 122t-162 327v835zM453 1548q0 43 27.5 74t70.5 31t73.5 -31 t30.5 -74t-29.5 -72.5t-74.5 -29.5q-43 0 -70.5 29.5t-27.5 72.5zM948 1548q0 43 28 74t71 31t73.5 -31t30.5 -74t-29.5 -72.5t-74.5 -29.5q-43 0 -71 29.5t-28 72.5z" />
<glyph unicode="&#xdd;" horiz-adv-x="1222" d="M12 1276v78l213 -6l289 6v-78l-166 -19l324 -563l307 566l-158 16v78l211 -6l178 6v-78l-114 -16l-375 -685v-481l223 -20v-78l-326 8l-309 -8v78l223 20v469l-397 694zM563 1434v6l191 332q37 25 106 24q76 0 76 -20l-2 -4l-291 -342q-20 -10 -51 -11q-29 1 -29 15z" />
<glyph unicode="&#xde;" horiz-adv-x="1204" d="M68 -4v78l221 20v1163l-221 19v78l323 -6l309 6v-78l-223 -19v-161q184 4 248 4q184 0 309 -107.5t125 -296.5q0 -184 -146.5 -297.5t-334.5 -113.5q-131 0 -201 10v-201l223 -20v-78l-309 8zM477 375h139q141 0 236.5 85t95.5 236q0 137 -72.5 223.5t-211.5 84.5 l-187 -3v-626z" />
<glyph unicode="&#xdf;" horiz-adv-x="1804" d="M160 -20l8 59l8 227h74q2 -96 65.5 -156.5t153.5 -60.5q63 0 109.5 45t46.5 113q0 43 -27 82t-52.5 58.5t-89 58t-83.5 53.5q-92 63 -147.5 129.5t-55.5 156.5q0 106 80 186.5t223 80.5q45 0 141 -21q10 -4 30 -9t26 -7l16 59h70v-284h-76q-10 88 -61.5 136t-137.5 48 q-59 0 -96 -52.5t-37 -99.5q0 -23 4 -43t17.5 -39.5t22.5 -32t34 -32t35 -27.5t44 -29.5t44 -29.5l55 -37q43 -29 59.5 -41t49 -42t47 -53.5t27 -58t12.5 -73.5q0 -121 -96.5 -197t-227.5 -76q-125 0 -233 49l-6 -40h-76zM1063 -20l8 59l8 227h74q2 -96 65.5 -156.5 t153.5 -60.5q63 0 109.5 45t46.5 113q0 43 -26.5 82t-52.5 58.5t-89.5 58t-83.5 53.5q-92 63 -147.5 129.5t-55.5 156.5q0 106 80 186.5t223 80.5q45 0 142 -21q10 -4 30.5 -9t24.5 -7l16 59h70v-284h-76q-10 88 -61.5 136t-137.5 48q-59 0 -96 -52.5t-37 -99.5 q0 -23 4.5 -43t17.5 -39.5t22.5 -32t34 -32t34.5 -27.5t44 -29.5t44 -29.5l55 -37q43 -29 59.5 -41t49.5 -42t47 -53.5t26.5 -58t12.5 -73.5q0 -121 -96.5 -197t-227.5 -76q-125 0 -233 49l-6 -40h-76z" />
<glyph unicode="&#xe0;" horiz-adv-x="1114" d="M37 -2v74l104 14l346 897q47 51 64 102h24l371 -997l127 -14v-76l-186 4l-297 -4v76l176 12l-104 287h-312l-110 -287l194 -12v-76l-250 4zM287 1536q0 41 100 41q31 0 48.5 -5t19.5 -11l4 -5l182 -413q2 -20 -63 -21l-35 23l-254 383q-2 4 -2 8zM387 467h238l-113 315z " />
<glyph unicode="&#xe1;" horiz-adv-x="1114" d="M37 -2v74l104 14l346 897q47 51 64 102h24l371 -997l127 -14v-76l-186 4l-297 -4v76l176 12l-104 287h-312l-110 -287l194 -12v-76l-250 4zM387 467h238l-113 315zM489 1141l3 6l163 393q37 37 111 37q78 0 78 -29l-2 -6l-264 -407q-25 -10 -58 -11q-31 1 -31 17z" />
<glyph unicode="&#xe2;" horiz-adv-x="1114" d="M37 -2v74l104 14l346 897q47 51 64 102h24l371 -997l127 -14v-76l-186 4l-297 -4v76l176 12l-104 287h-312l-110 -287l194 -12v-76l-250 4zM297 1075l2 8l197 453q23 35 82 35q43 0 51 -19l215 -471v-2q0 -20 -62 -20q-6 0 -15 6t-15 12l-7 6l-178 289l-182 -301 q-25 -12 -57 -12q-31 0 -31 16zM387 467h238l-113 315z" />
<glyph unicode="&#xe3;" horiz-adv-x="1114" d="M37 -2v74l104 14l346 897q47 51 64 102h24l371 -997l127 -14v-76l-186 4l-297 -4v76l176 12l-104 287h-312l-110 -287l194 -12v-76l-250 4zM190 1196l5 18q102 133 233 134q45 0 124 -60.5t144 -60.5q45 0 74 15t78 65l8 -9q10 -6 21.5 -17t11.5 -19l-6 -21 q-61 -80 -110.5 -102.5t-113.5 -22.5q-76 0 -145 55q-47 39 -68.5 48.5t-62.5 9.5q-74 0 -150 -82l-28 22q-15 13 -15 27zM387 467h238l-113 315z" />
<glyph unicode="&#xe4;" horiz-adv-x="1114" d="M37 -2v74l104 14l346 897q47 51 64 102h24l371 -997l127 -14v-76l-186 4l-297 -4v76l176 12l-104 287h-312l-110 -287l194 -12v-76l-250 4zM287 1217q0 45 29.5 77.5t72.5 32.5q41 0 72 -32.5t31 -77.5q0 -43 -31 -75t-72 -32q-43 0 -72.5 32t-29.5 75zM387 467h238 l-113 315zM623 1216.5q0 45.5 30.5 78t71.5 32.5q43 0 72.5 -32.5t29.5 -78t-29.5 -76t-72.5 -30.5q-41 0 -71.5 30.5t-30.5 76z" />
<glyph unicode="&#xe5;" horiz-adv-x="1114" d="M37 -2v74l104 14l346 897q47 51 64 102h24l371 -997l127 -14v-76l-186 4l-297 -4v76l176 12l-104 287h-312l-110 -287l194 -12v-76l-250 4zM350 1331q0 88 56.5 147.5t140.5 59.5t143.5 -60.5t59.5 -146.5t-59.5 -144.5t-143.5 -58.5t-140.5 58.5t-56.5 144.5zM387 467 h238l-113 315zM434 1331q0 -47 34 -82t79 -35q47 0 82 35t35 82q0 49 -35 84t-82 35t-80 -34t-33 -85z" />
<glyph unicode="&#xe6;" horiz-adv-x="1437" d="M41 -2v74l102 16l455 813l-94 12v78l266 -6l207 2h237l11 60h75v-68l9 -234h-78l-25 150h-354v-350h281l14 119h76v-330h-76l-14 121h-281v-322q0 -43 2 -47q262 2 276 2q115 0 123 12q2 2 6.5 35t9.5 69t5 40h76v-244h-441l-135 2l-256 -4v76l160 14v252h-291l-137 -254 l121 -12v-76l-170 4zM438 432h240v426z" />
<glyph unicode="&#xe7;" horiz-adv-x="1105" d="M94 489q0 215 141.5 369t352.5 154q160 0 307 -37l10 55h82v-315h-76q-16 209 -317 209q-127 0 -219 -124t-92 -300q0 -174 96 -307.5t233 -133.5q61 0 128 11.5t105 25t40 19.5q8 18 17 92t9 90h76v-256q-203 -63 -352 -70l-53 -98q84 0 146.5 -40t62.5 -101 q0 -84 -67 -128t-155 -44q-182 0 -182 53q0 8 10.5 20.5t19.5 20.5t11 8q82 -35 123 -35q45 0 74.5 24.5t29.5 74.5q0 106 -186 106l86 141q-193 18 -327 157.5t-134 358.5z" />
<glyph unicode="&#xe8;" horiz-adv-x="1036" d="M74 -2v76l207 14v811l-193 14v78l285 -6l205 2h237l12 60h74v-68l8 -234h-75l-27 150h-354v-350h282l15 119h73v-330h-73l-15 121h-282v-273q0 -86 2 -96q264 2 278 2q117 0 121 12q4 4 11 72t9 72h74v-244h-440l-133 2zM225 1526v6q0 45 103 45q68 0 69 -23l213 -469v-2 q0 -20 -61 -20q-8 0 -16.5 6t-12.5 12l-6 6z" />
<glyph unicode="&#xe9;" horiz-adv-x="1036" d="M74 -2v76l207 14v811l-193 14v78l285 -6l205 2h237l12 60h74v-68l8 -234h-75l-27 150h-354v-350h282l15 119h73v-330h-73l-15 121h-282v-273q0 -86 2 -96q264 2 278 2q117 0 121 12q4 4 11 72t9 72h74v-244h-440l-133 2zM426 1079l2 6l203 453q33 37 106 37q80 0 80 -31 l-2 -6l-301 -463q-25 -12 -55 -12q-33 0 -33 16z" />
<glyph unicode="&#xea;" horiz-adv-x="1036" d="M74 -2v76l207 14v811l-193 14v78l285 -6l205 2h237l12 60h74v-68l8 -234h-75l-27 150h-354v-350h282l15 119h73v-330h-73l-15 121h-282v-273q0 -86 2 -96q264 2 278 2q117 0 121 12q4 4 11 72t9 72h74v-244h-440l-133 2zM274 1077l2 8l203 451q18 37 78 37q41 0 55 -21 l211 -471q0 -4 -1 -7t-16 -9t-44 -6q-6 0 -15.5 7t-15.5 13l-6 6l-178 304l-185 -316q-25 -14 -55 -14q-33 0 -33 18z" />
<glyph unicode="&#xeb;" horiz-adv-x="1036" d="M74 -2v76l207 14v811l-193 14v78l285 -6l205 2h237l12 60h74v-68l8 -234h-75l-27 150h-354v-350h282l15 119h73v-330h-73l-15 121h-282v-273q0 -86 2 -96q264 2 278 2q117 0 121 12q4 4 11 72t9 72h74v-244h-440l-133 2zM244 1217q0 45 28.5 77.5t71.5 32.5t74 -32.5 t31 -77.5q0 -43 -31 -75t-74 -32t-71.5 32t-28.5 75zM598 1216.5q0 45.5 30.5 78t73.5 32.5q41 0 71 -32.5t30 -78t-30 -76t-71 -30.5q-43 0 -73.5 30.5t-30.5 76z" />
<glyph unicode="&#xec;" horiz-adv-x="735" d="M63 1526v6q0 45 103 45q68 0 70 -23l213 -469v-2q0 -20 -62 -20q-8 0 -16.5 6t-14.5 12l-4 6zM88 -2v76l193 14v811l-193 12v76l283 -4l276 4v-76l-194 -12v-811l194 -14v-76l-276 4z" />
<glyph unicode="&#xed;" horiz-adv-x="735" d="M88 -2v76l193 14v811l-193 12v76l283 -4l276 4v-76l-194 -12v-811l194 -14v-76l-276 4zM317 1079l2 6l203 453q33 37 107 37q80 0 80 -31l-2 -6l-301 -463q-25 -12 -56 -12q-33 0 -33 16z" />
<glyph unicode="&#xee;" horiz-adv-x="735" d="M88 -2v76l193 14v811l-193 12v76l283 -4l276 4v-76l-194 -12v-811l194 -14v-76l-276 4zM100 1077l2 8l203 451q18 37 78 37q39 0 55 -21l211 -471q0 -4 -1 -7t-16.5 -9t-43.5 -6q-6 0 -15.5 7t-15.5 13l-6 6l-178 304l-185 -316q-25 -14 -55 -14q-33 0 -33 18z" />
<glyph unicode="&#xef;" horiz-adv-x="735" d="M88 -2v76l193 14v811l-193 12v76l283 -4l276 4v-76l-194 -12v-811l194 -14v-76l-276 4zM111 1217q0 45 28.5 77.5t71.5 32.5t73.5 -32.5t30.5 -77.5q0 -43 -30.5 -75t-73.5 -32t-71.5 32t-28.5 75zM444 1216.5q0 45.5 31 78t74 32.5t71.5 -32.5t28.5 -78t-28.5 -76 t-71.5 -30.5t-74 30.5t-31 76z" />
<glyph unicode="&#xf0;" horiz-adv-x="1253" d="M29 489v80h252v326l-222 -6v80q203 12 312 18q68 4 288 4q135 0 236.5 -46t156 -120.5t81 -156.5t26.5 -168q0 -84 -28.5 -169t-86 -163t-162 -125t-237.5 -45l-264 4l-311 -4v76l211 14v401h-252zM453 188q0 -66 36.5 -85t133.5 -19q166 0 257 114.5t91 301.5 q0 68 -19.5 135t-57.5 130.5t-106.5 102.5t-156.5 37l-178 -6v-330h258v-80h-258v-301z" />
<glyph unicode="&#xf1;" horiz-adv-x="1314" d="M74 909v78h342l540 -704v616l-180 12v76l215 -2l240 2v-76l-182 -12v-913h-82l-594 774v-674l182 -12v-76l-217 4l-238 -4v74l181 14v772q-39 39 -50 43q-16 8 -157 8zM309 1196l4 18q98 133 234 134q43 0 123 -60.5t145 -60.5q45 0 72.5 14t77.5 66l10 -9q8 -6 19.5 -17 t11.5 -21l-5 -19q-63 -80 -111 -102.5t-114 -22.5q-76 0 -145 55q-45 37 -67.5 47.5t-61.5 10.5q-72 0 -152 -82l-26 22q-15 13 -15 27z" />
<glyph unicode="&#xf2;" horiz-adv-x="1212" d="M94 491.5q0 208.5 144.5 364.5t369.5 156q223 0 366.5 -153.5t143.5 -364.5q0 -207 -144.5 -365t-365.5 -158q-225 0 -369.5 156t-144.5 364.5zM283 494q0 -170 95 -305.5t230 -135.5q131 0 226.5 137.5t95.5 303.5q0 164 -95.5 300t-226.5 136q-135 0 -230 -133 t-95 -303zM309 1526v6q0 45 103 45q68 0 69 -23l213 -469v-2q0 -20 -61 -20q-8 0 -16.5 6t-14.5 12l-4 6z" />
<glyph unicode="&#xf3;" horiz-adv-x="1212" d="M94 491.5q0 208.5 144.5 364.5t369.5 156q223 0 366.5 -153.5t143.5 -364.5q0 -207 -144.5 -365t-365.5 -158q-225 0 -369.5 156t-144.5 364.5zM283 494q0 -170 95 -305.5t230 -135.5q131 0 226.5 137.5t95.5 303.5q0 164 -95.5 300t-226.5 136q-135 0 -230 -133 t-95 -303zM535 1079l2 6l202 453q33 37 107 37q80 0 80 -31l-2 -6l-301 -463q-25 -12 -56 -12q-32 0 -32 16z" />
<glyph unicode="&#xf4;" horiz-adv-x="1212" d="M94 491.5q0 208.5 144.5 364.5t369.5 156q223 0 366.5 -153.5t143.5 -364.5q0 -207 -144.5 -365t-365.5 -158q-225 0 -369.5 156t-144.5 364.5zM283 494q0 -170 95 -305.5t230 -135.5q131 0 226.5 137.5t95.5 303.5q0 164 -95.5 300t-226.5 136q-135 0 -230 -133 t-95 -303zM336 1077l2 8l203 451q18 37 77 37q41 0 56 -21l211 -471q0 -4 -1 -7t-16.5 -9t-44.5 -6q-6 0 -15 7t-15 13l-7 6l-178 304l-184 -316q-25 -14 -55 -14q-33 0 -33 18z" />
<glyph unicode="&#xf5;" horiz-adv-x="1212" d="M94 491.5q0 208.5 144.5 364.5t369.5 156q223 0 366.5 -153.5t143.5 -364.5q0 -207 -144.5 -365t-365.5 -158q-225 0 -369.5 156t-144.5 364.5zM274 1196l5 18q98 133 233 134q45 0 124 -60.5t144 -60.5q43 0 72 15t78 65l8 -9q10 -6 21.5 -17t11.5 -19l-6 -21 q-61 -80 -109.5 -102.5t-114.5 -22.5q-76 0 -145 55q-45 37 -67.5 47.5t-61.5 10.5q-72 0 -152 -82l-28 22q-13 11 -13 27zM283 494q0 -170 95 -305.5t230 -135.5q131 0 226.5 137.5t95.5 303.5q0 164 -95.5 300t-226.5 136q-135 0 -230 -133t-95 -303z" />
<glyph unicode="&#xf6;" horiz-adv-x="1212" d="M94 491.5q0 208.5 144.5 364.5t369.5 156q223 0 366.5 -153.5t143.5 -364.5q0 -207 -144.5 -365t-365.5 -158q-225 0 -369.5 156t-144.5 364.5zM283 494q0 -170 95 -305.5t230 -135.5q131 0 226.5 137.5t95.5 303.5q0 164 -95.5 300t-226.5 136q-135 0 -230 -133 t-95 -303zM338 1217q0 45 28.5 77.5t71.5 32.5t74 -32.5t31 -77.5q0 -43 -31 -75t-74 -32t-71.5 32t-28.5 75zM713 1216.5q0 45.5 30.5 78t73.5 32.5q41 0 71 -32.5t30 -78t-30 -76t-71 -30.5q-43 0 -73.5 30.5t-30.5 76z" />
<glyph unicode="&#xf7;" d="M45 393v142h934v-142h-934zM377 111q0 53 41 92t94 39t94 -39t41 -92q0 -55 -41 -96.5t-94 -41.5t-94 40.5t-41 97.5zM377 817q0 53 41 92t94 39t94 -39t41 -92q0 -55 -41 -96t-94 -41t-94 41t-41 96z" />
<glyph unicode="&#xf8;" horiz-adv-x="1212" d="M94 492q0 211 144.5 367.5t369.5 156.5q172 0 307 -105l111 125l70 -57l-113 -129q135 -152 135 -356.5t-144.5 -362.5t-365.5 -158q-178 0 -311 103l-111 -125l-69 59l114 127q-137 148 -137 355zM283 494q0 -119 53 -236l487 551q-92 123 -215 123q-135 0 -230 -134 t-95 -304zM387 180q96 -123 221 -123q133 0 227.5 136.5t94.5 300.5q0 119 -56 235z" />
<glyph unicode="&#xf9;" horiz-adv-x="1288" d="M57 911v76l269 -4l292 4v-76l-192 -12v-545q0 -135 74.5 -200.5t187.5 -65.5q115 0 191.5 66.5t76.5 199.5v545l-188 12v76l244 -2l219 2v-76l-178 -12v-551q0 -180 -106.5 -274t-282.5 -94q-166 0 -289 91t-123 240v588zM403 1526v6q0 45 103 45q68 0 69 -23l213 -469 v-2q0 -20 -61 -20q-8 0 -16.5 6t-14.5 12l-4 6z" />
<glyph unicode="&#xfa;" horiz-adv-x="1288" d="M57 911v76l269 -4l292 4v-76l-192 -12v-545q0 -135 74.5 -200.5t187.5 -65.5q115 0 191.5 66.5t76.5 199.5v545l-188 12v76l244 -2l219 2v-76l-178 -12v-551q0 -180 -106.5 -274t-282.5 -94q-166 0 -289 91t-123 240v588zM625 1079l2 6l202 453q33 37 107 37q80 0 80 -31 l-2 -6l-301 -463q-25 -12 -56 -12q-32 0 -32 16z" />
<glyph unicode="&#xfb;" horiz-adv-x="1288" d="M57 911v76l269 -4l292 4v-76l-192 -12v-545q0 -135 74.5 -200.5t187.5 -65.5q115 0 191.5 66.5t76.5 199.5v545l-188 12v76l244 -2l219 2v-76l-178 -12v-551q0 -180 -106.5 -274t-282.5 -94q-166 0 -289 91t-123 240v588zM412 1077l2 8l202 451q18 37 78 37q39 0 56 -21 l211 -471q0 -4 -1.5 -7t-16.5 -9t-44 -6q-6 0 -15.5 7t-15.5 13l-6 6l-178 304l-184 -316q-25 -14 -56 -14q-32 0 -32 18z" />
<glyph unicode="&#xfc;" horiz-adv-x="1288" d="M57 911v76l269 -4l292 4v-76l-192 -12v-545q0 -135 74.5 -200.5t187.5 -65.5q115 0 191.5 66.5t76.5 199.5v545l-188 12v76l244 -2l219 2v-76l-178 -12v-551q0 -180 -106.5 -274t-282.5 -94q-166 0 -289 91t-123 240v588zM373 1217q0 47 30.5 81.5t75.5 34.5 q43 0 75 -34.5t32 -81.5q0 -43 -32 -77t-75 -34q-45 0 -75.5 33t-30.5 78zM791 1217q0 47 30.5 81.5t75.5 34.5q43 0 75 -34.5t32 -81.5q0 -43 -32 -77t-75 -34q-45 0 -75.5 33t-30.5 78z" />
<glyph unicode="&#xfd;" horiz-adv-x="1038" d="M16 913v74l203 -4l252 4v-76l-139 -10l237 -383l234 383l-131 10v76l180 -4l170 4v-74l-121 -14l-287 -479v-332l213 -14v-76l-305 4l-289 -4v76l209 14v322l-305 489zM500 1141l2 6l141 364q35 37 107 37q74 0 73 -30l-2 -7l-237 -374q-23 -12 -53.5 -12t-30.5 16z" />
<glyph unicode="&#xfe;" horiz-adv-x="1036" d="M88 -2v76l193 14v807l-193 16v76l287 -6l270 4v-76l-192 -14v-100q68 2 161 2q143 0 238.5 -81t95.5 -220q0 -135 -110.5 -219t-257.5 -84q-45 0 -127 4v-109l192 -14v-76l-287 4zM453 279h82q94 0 159.5 55t65.5 162q0 98 -50.5 154.5t-140.5 54.5l-116 -3v-423z" />
<glyph unicode="&#xff;" horiz-adv-x="1038" d="M16 913v74l203 -4l252 4v-76l-139 -10l237 -383l234 383l-131 10v76l180 -4l170 4v-74l-121 -14l-287 -479v-332l213 -14v-76l-305 4l-289 -4v76l209 14v322l-305 489zM307 1249q0 47 31 82t76 35q43 0 74.5 -35t31.5 -82q0 -43 -31.5 -76.5t-74.5 -33.5q-45 0 -76 32.5 t-31 77.5zM641 1249q0 47 30.5 82t76.5 35q43 0 74.5 -35t31.5 -82q0 -43 -31.5 -76.5t-74.5 -33.5q-45 0 -76 32.5t-31 77.5z" />
<glyph unicode="&#x152;" horiz-adv-x="2025" d="M113 674q0 289 193.5 496.5t488.5 207.5q61 0 195 -17.5t204 -14.5l283 6h315l14 82h88v-80l11 -314h-86l-35 213h-506v-518h403l19 164h88v-432h-88l-19 168h-403v-449q0 -76 8 -86q6 -8 189 -8l180 2q53 -2 118.5 8.5t73.5 20.5l25 188h88v-311h-578l-184 4 q-70 2 -205 -15.5t-198 -17.5q-295 0 -488.5 207t-193.5 496zM324 675.5q0 -237.5 134 -426t337 -188.5q51 0 92 5.5t59.5 9.5t67.5 18.5t76 22.5v1114q-6 2 -32 11t-33 11t-29.5 9.5t-33.5 9.5l-34 6q-23 4 -40.5 6t-42 3t-50.5 1q-203 0 -337 -187.5t-134 -425z" />
<glyph unicode="&#x153;" horiz-adv-x="1564" d="M94 491.5q0 208.5 144.5 361.5t369.5 153q49 0 145.5 -10.5t145.5 -10.5l207 2h235l13 60h76v-68l6 -234h-74l-27 150h-356v-350h283l14 119h76v-330h-76l-14 121h-283v-273q0 -88 6 -96q260 2 275 2q119 0 122 12q2 2 6.5 35t8.5 69t4 40h76v-244h-439q-203 0 -280 -8 q-147 -12 -150 -12q-227 0 -370.5 151.5t-143.5 360zM283 494q0 -168 95 -299.5t230 -131.5q25 0 44.5 1.5t31.5 3.5t29.5 6t27 6t32 9t34.5 11v785q-104 37 -199 37q-135 0 -230 -130t-95 -298z" />
<glyph unicode="&#x178;" horiz-adv-x="1222" d="M12 1276v78l213 -6l289 6v-78l-166 -19l324 -563l307 566l-158 16v78l211 -6l178 6v-78l-114 -16l-375 -685v-481l223 -20v-78l-326 8l-309 -8v78l223 20v469l-397 694zM313 1548q0 43 28 74t71 31t73.5 -31t30.5 -74t-29.5 -72.5t-74.5 -29.5q-43 0 -71 29.5t-28 72.5z M782 1548q0 43 28 74t71 31t73.5 -31t30.5 -74t-29.5 -72.5t-74.5 -29.5q-43 0 -71 29.5t-28 72.5z" />
<glyph unicode="&#x2c6;" horiz-adv-x="997" d="M162 1077l2 8l203 451q18 37 77 37q39 0 56 -21l211 -471q0 -4 -1 -7t-16.5 -9t-44.5 -6q-6 0 -15 7t-16 13l-6 6l-178 304l-184 -316q-25 -14 -55 -14q-33 0 -33 18z" />
<glyph unicode="&#x2dc;" horiz-adv-x="901" d="M66 1157l4 19q102 137 241 137q49 0 133 -61.5t148 -61.5q47 0 76.5 15.5t81.5 70.5l10 -8q10 -8 21.5 -20.5t11.5 -22.5l-7 -21q-66 -82 -115.5 -105.5t-117.5 -23.5q-78 0 -152 60q-49 39 -71.5 49t-63.5 10q-72 0 -157 -86l-11 6q-10 8 -21 20.5t-11 22.5z" />
<glyph unicode="&#x2013;" d="M-6 397v142h1030v-142h-1030z" />
<glyph unicode="&#x2014;" horiz-adv-x="2048" d="M-6 397v142h2054v-142h-2054z" />
<glyph unicode="&#x2018;" horiz-adv-x="460" d="M90 1083v54q0 12 22.5 73.5t78 157.5t118.5 160l62 -47q-57 -66 -90 -159t-33 -136q0 -57 123 -94q-23 -49 -59 -86t-58.5 -50.5t-30.5 -13.5q-68 6 -100.5 50t-32.5 91z" />
<glyph unicode="&#x2019;" horiz-adv-x="460" d="M90 965q57 66 90 159t33 136q0 57 -123 94q23 49 58.5 86t58 50t31.5 13q68 -6 100.5 -50t32.5 -91v-53q0 -12 -22.5 -75t-78 -159t-118.5 -160z" />
<glyph unicode="&#x201a;" horiz-adv-x="460" d="M90 94q23 49 58.5 86t58 50.5t31.5 13.5q68 -6 100.5 -50t32.5 -92v-53q0 -12 -22.5 -74.5t-78 -159t-118.5 -159.5l-62 49q57 66 90 159t33 136q0 57 -123 94z" />
<glyph unicode="&#x201c;" horiz-adv-x="845" d="M90 1083v54q0 12 22.5 73.5t78 157.5t118.5 160l62 -47q-57 -66 -90 -159t-33 -136q0 -57 123 -94q-23 -49 -59 -86t-58.5 -50.5t-30.5 -13.5q-68 6 -100.5 50t-32.5 91zM473 1083v54q0 12 23.5 73.5t79 157.5t118.5 160l62 -47q-57 -66 -90 -159t-33 -136q0 -59 123 -94 q-23 -49 -58.5 -86t-59.5 -50.5t-32 -13.5q-66 6 -99.5 51t-33.5 90z" />
<glyph unicode="&#x201d;" horiz-adv-x="845" d="M90 965q57 66 90 159t33 136q0 57 -123 94q23 49 58.5 86t58 50t31.5 13q68 -6 100.5 -50t32.5 -91v-53q0 -12 -22.5 -75t-78 -159t-118.5 -160zM473 965q57 66 90 159t33 136q0 59 -123 94q23 49 58.5 86t59 50t32.5 13q68 -6 100.5 -50t32.5 -91v-53q0 -12 -23.5 -75 t-79 -159t-118.5 -160z" />
<glyph unicode="&#x201e;" horiz-adv-x="845" d="M90 94q23 49 58.5 86t58 50.5t31.5 13.5q68 -6 100.5 -50t32.5 -92v-53q0 -12 -22.5 -74.5t-78 -159t-118.5 -159.5l-62 49q57 66 90 159t33 136q0 57 -123 94zM473 94q23 49 58.5 86t59 50.5t32.5 13.5q68 -6 100.5 -50t32.5 -92v-53q0 -12 -23.5 -74.5t-79 -159 t-118.5 -159.5l-62 49q57 66 90 159t33 136q0 59 -123 94z" />
<glyph unicode="&#x2022;" horiz-adv-x="641" d="M70 463q0 100 75.5 175t178 75t177 -74t74.5 -176q0 -104 -74.5 -179t-176.5 -75q-104 0 -179 75t-75 179z" />
<glyph unicode="&#x2026;" horiz-adv-x="2048" d="M274 111q0 53 41 92t94.5 39t94.5 -39t41 -92q0 -55 -41 -96.5t-94.5 -41.5t-94.5 40.5t-41 97.5zM889 111q0 53 41 92t94 39t94 -39t41 -92q0 -55 -41 -96.5t-94 -41.5t-94 40.5t-41 97.5zM1503 111q0 53 41 92t94.5 39t94.5 -39t41 -92q0 -55 -41 -96.5t-94.5 -41.5 t-94.5 40.5t-41 97.5z" />
<glyph unicode="&#x2039;" horiz-adv-x="583" d="M53 451q102 84 113 92q72 57 213 194q14 14 32.5 34t28 29t19.5 18t17 13.5t11 4.5q8 0 11.5 -2.5t9.5 -9.5t14 -13q-20 -35 -49 -82q-14 -23 -123 -194q-14 -23 -31.5 -44.5t-27.5 -31.5l-8 -8q35 -31 63 -80q23 -39 69 -108.5t56 -86.5l51 -84q-6 -4 -12 -11t-10 -9 t-13 -2q-4 0 -11 4t-17 13l-20 18l-27 28l-33 33q-129 129 -213 194z" />
<glyph unicode="&#x203a;" horiz-adv-x="583" d="M61 92q20 37 52 84q111 172 123 195q29 49 67 80q-37 33 -70 84q-109 172 -122 194l-50 82q8 6 14.5 13t9.5 9.5t11 2.5q4 0 11.5 -4.5t17.5 -13.5t19.5 -18t27.5 -28.5t33 -34.5q141 -137 213 -194l112 -92l-112 -91q-84 -66 -213 -194l-33 -33l-28 -28q-9 -9 -19 -18 t-16.5 -13t-10.5 -4q-12 -1 -37 22z" />
<glyph unicode="&#x20ac;" d="M-166 524q-8 53 23 88q4 4 112 4q63 0 68 56q0 27 4 88l-174 -10q-8 51 22 86q6 6 113 6q49 0 57 26q131 510 519 510q43 0 85 -5t66.5 -11t67.5 -17.5t61 -15.5l14 82h95v-94l14 -316h-94q-12 135 -93 209t-210 74q-133 0 -202 -114.5t-106 -331.5h494l-12 -82l-492 4 q-2 -25 -2 -78q0 -43 2 -68h492l-13 -82l-469 5q18 -106 41 -182t61 -146t97.5 -105.5t138.5 -35.5q66 0 145 27.5t89 49.5q8 18 17 79t16 112l4 51h96v-334q-143 -49 -212 -64.5t-169 -15.5q-219 0 -365.5 146.5t-187.5 417.5h-27z" />
<glyph unicode="&#x2122;" horiz-adv-x="2304" d="M74 1094l30 272l2 49h68l8 -59h666l6 59h68v-319l-66 -2l-20 188h-252v-653l155 -15v-59l-231 8l-240 -8v57l160 17v653h-174q-37 0 -54.5 -15.5t-27.5 -58.5q-4 -16 -17.5 -61t-15.5 -53h-65zM1065 555v57l127 17l29 655l-144 12v62l205 -4l119 4l237 -551l256 551 l105 -4l203 4v-62l-150 -12l25 -655l143 -15v-59l-203 8l-213 -8v57l144 17l-25 594l-324 -668l-296 686l-25 -612l133 -15v-59l-166 8z" />
<glyph unicode="&#xe000;" horiz-adv-x="985" d="M0 985h985v-985h-985v985z" />
<glyph unicode="&#xfb01;" horiz-adv-x="1724" d="M88 -2v76l193 14v811l-193 14v78l285 -6l205 2h241l10 60h72v-68l8 -234h-71l-25 150h-360v-367h284l15 121h71v-332h-71l-15 123h-284v-354l235 -12v-76l-311 4zM1079 -2v76l193 14v811l-193 12v76l283 -4l276 4v-76l-194 -12v-811l194 -14v-76l-276 4z" />
<glyph unicode="&#xfb02;" horiz-adv-x="1996" d="M88 -2v76l193 14v811l-193 14v78l285 -6l205 2h241l10 60h72v-68l8 -234h-71l-25 150h-360v-367h284l15 121h71v-332h-71l-15 123h-284v-354l235 -12v-76l-311 4zM1079 -2v76l193 14v811l-193 12v76l285 -4l274 4v-76l-194 -12v-811h258q113 0 121 14q4 6 28.5 83 t26.5 89h72l-35 -274h-414l-135 2z" />
<glyph unicode="&#xfb03;" horiz-adv-x="2713" d="M2066 -2v76l193 14v811l-193 12v76l283 -4l276 4v-76l-194 -12v-811l194 -14v-76l-276 4zM1077 -2v76l193 14v811l-193 14v78l285 -6l205 2h241l10 60h72v-68l8 -234h-71l-25 150h-360v-367h284l15 121h71v-332h-71l-15 123h-284v-354l235 -12v-76l-311 4zM88 -2v76 l193 14v811l-193 14v78l285 -6l205 2h241l10 60h72v-68l8 -234h-71l-25 150h-360v-367h284l15 121h71v-332h-71l-15 123h-284v-354l235 -12v-76l-311 4z" />
<glyph unicode="&#xfb04;" horiz-adv-x="2983" d="M2066 -2v76l193 14v811l-193 12v76l285 -4l274 4v-76l-194 -12v-811h258q113 0 120 14q4 6 29 83t27 89h71l-34 -274h-414l-135 2zM1077 -2v76l193 14v811l-193 14v78l285 -6l205 2h241l10 60h72v-68l8 -234h-71l-25 150h-360v-367h284l15 121h71v-332h-71l-15 123h-284 v-354l235 -12v-76l-311 4zM88 -2v76l193 14v811l-193 14v78l285 -6l205 2h241l10 60h72v-68l8 -234h-71l-25 150h-360v-367h284l15 121h71v-332h-71l-15 123h-284v-354l235 -12v-76l-311 4z" />
<glyph horiz-adv-x="512" />
</font>
</defs>
</svg>
