<?xml version="1.0" standalone="no"?>
<!DOCTYPE svg PUBLIC "-//W3C//DTD SVG 1.1//EN" "http://www.w3.org/Graphics/SVG/1.1/DTD/svg11.dtd" >
<svg xmlns="http://www.w3.org/2000/svg">
<metadata>
This is a custom SVG webfont generated by Font Squirrel.
Copyright   : 2004 Martin Majoor published by FontShop International for the FontFont library
</metadata>
<defs>
<font id="NexusSerifBoldRegular" horiz-adv-x="512" >
<font-face units-per-em="2048" ascent="1638" descent="-410" />
<missing-glyph horiz-adv-x="500" />
<glyph unicode=" " />
<glyph unicode="!" horiz-adv-x="589" d="M121 147.5q0 71.5 52 120.5t122 49t122 -49t52 -121v3q0 -74 -52 -125.5t-122 -51.5t-122 51.5t-52 123zM152 1407q0 68 24 78q57 27 143 26q111 0 140 -26q-10 -20 -13 -51q-12 -164 -45 -852q-4 -109 -10 -113q-4 -4 -48 -8t-85 -6h-43q-57 813 -59 897q-4 26 -4 55z " />
<glyph unicode="&#x22;" horiz-adv-x="768" d="M66 1442q0 39 129 39q133 0 133 -39l-52 -471h-157q-4 70 -28.5 253t-24.5 218zM444 1444q0 37 127 37q133 0 134 -39l-52 -471h-155q-4 70 -29 253t-25 220z" />
<glyph unicode="#" horiz-adv-x="1306" d="M59 162v174h295l4 239h-297v175h299l9 434h182l-8 -434h235l8 434h183l-8 -434h286v-175h-289l-4 -239h293v-174h-297l-8 -451h-182l8 451h-238l-8 -451h-182l8 451h-289zM535 336h239l4 239h-237z" />
<glyph unicode="$" horiz-adv-x="1159" d="M190 1020q0 133 103.5 232.5t265.5 117.5v137h146v-139q20 -2 54 -7t63.5 -8t58.5 -3h118v-320h-125v17q0 121 -46 165.5t-152 44.5q-100 0 -143.5 -61t-43.5 -127q0 -27 5.5 -49.5t11.5 -39.5t23.5 -39.5t27.5 -35t40 -36t43 -34t54 -41t60 -42.5q12 -8 71.5 -51.5 t79 -58.5t63.5 -57t60 -73t32.5 -79t16.5 -99q0 -143 -103.5 -241.5t-268.5 -115.5v-141h-146v139q-176 25 -233 25h-121l6 53l12 307h125q-2 -18 -2 -53q0 -123 55.5 -169t167.5 -46q100 0 156.5 48t56.5 118q0 29 -10 58.5t-35.5 60.5t-45 53.5t-60.5 55t-59.5 47 t-64.5 46t-54 37.5q-131 96 -174 146q-89 106 -89 258z" />
<glyph unicode="%" horiz-adv-x="1722" d="M70 985q0 156 109.5 266.5t262.5 110.5q156 0 266.5 -109.5t110.5 -267.5q0 -156 -109.5 -264.5t-267.5 -108.5q-154 0 -263 108.5t-109 264.5zM238 -6l1093 1419l162 -106l-1096 -1420zM268 985q0 -72 51.5 -123t122.5 -51q74 0 126.5 51t52.5 123q0 74 -52.5 126 t-126.5 52q-72 0 -123 -52t-51 -126zM930 342q0 158 108.5 267.5t264.5 109.5q154 0 265 -110.5t111 -264.5t-111.5 -263.5t-264.5 -109.5q-156 0 -264.5 108.5t-108.5 262.5zM1126 344q0 -72 52.5 -122t124.5 -50q74 0 124 49t50 121q0 76 -50.5 127t-123.5 51 q-72 0 -124.5 -51t-52.5 -125z" />
<glyph unicode="&#x26;" horiz-adv-x="1462" d="M88 344q0 92 53.5 173t115.5 128t165 107q-158 205 -158 348q0 135 95.5 218t275.5 83q147 0 236.5 -81t89.5 -200q0 -102 -78 -188t-176 -129l297 -443q68 115 67 289v84l-172 -10q-8 29 -8 59q0 33 10 47q16 16 268 17h35q104 -2 287 -2v-121l-207 12 q0 -139 -51 -282.5t-131 -241.5q25 -31 91.5 -127t88.5 -127q125 -172 152 -188q23 -12 106 -31l-29 -96q-29 6 -90 15t-93 15t-70.5 17.5t-61.5 25.5q-53 33 -158 160q-25 33 -69.5 94.5t-57.5 79.5q-135 -78 -358 -78q-199 0 -332 106.5t-133 266.5zM375 360 q0 -109 58.5 -185.5t150.5 -76.5q150 0 239 60l-338 495q-110 -88 -110 -293zM530 1133q0 -20 3.5 -40t12.5 -41.5t14 -33.5t20.5 -37t20.5 -32t23.5 -32.5t20.5 -27.5q90 63 90 244q0 72 -27.5 111.5t-74.5 39.5q-49 0 -76 -44t-27 -107z" />
<glyph unicode="'" horiz-adv-x="389" d="M66 1442q0 39 129 39q133 0 133 -39l-52 -471h-157q-4 70 -28.5 253t-24.5 218z" />
<glyph unicode="(" d="M23 512q0 268 77.5 502.5t243.5 509.5l168 -103q-145 -242 -221 -444.5t-76 -437.5q0 -147 22.5 -280.5t69.5 -261.5t88 -216t113 -223l-164 -101q-321 543 -321 1055z" />
<glyph unicode=")" d="M0 -440q145 240 221 441.5t76 438.5q0 193 -46 379.5t-99.5 305t-149.5 298.5l170 101q317 -549 317 -1057q0 -266 -76.5 -500.5t-240.5 -509.5z" />
<glyph unicode="*" horiz-adv-x="1024" d="M49 1108q0 29 21 90q29 86 43 90l327 -139l-22 356q8 16 102 17l101 -17l-31 -350l323 131q16 -4 48 -92q18 -55 18 -82l-4 -18l-338 -80l225 -271q0 -20 -71 -71q-66 -47 -86 -47h-3l-184 303l-190 -305h-2q-25 0 -90 47q-72 55 -72 71l231 271l-344 84q-2 2 -2 12z" />
<glyph unicode="+" horiz-adv-x="1067" d="M47 369v184h391v375h191v-375h389v-184h-389v-375h-191v375h-391z" />
<glyph unicode="," d="M66 111q68 209 192 208q88 0 138 -56t50 -122q0 -119 -68.5 -245.5t-166.5 -225.5l-125 82q119 129 119 287q0 29 -139 72z" />
<glyph unicode="-" horiz-adv-x="768" d="M127 358v232h516v-232h-516z" />
<glyph unicode="." d="M82 147.5q0 71.5 52 120.5t122 49t122 -49t52 -118q0 -74 -52 -125.5t-122 -51.5t-122 51.5t-52 123z" />
<glyph unicode="/" horiz-adv-x="641" d="M-31 -528l508 2046h197l-508 -2046h-197z" />
<glyph unicode="0" horiz-adv-x="1144" d="M74 465q0 203 139 350.5t373 147.5q231 0 358 -144.5t127 -351.5t-128 -352.5t-357 -145.5q-233 0 -372.5 146.5t-139.5 349.5zM381 467q0 -145 55.5 -250.5t173.5 -105.5q131 0 208 98t77 258v-2q0 160 -77 260t-208 100q-115 0 -172 -106.5t-57 -251.5z" />
<glyph unicode="1" horiz-adv-x="919" d="M86 -8v108l236 23v665h-236v107q317 23 512 63v-835l236 -23v-108q-33 2 -165 8t-202 6q-74 0 -211 -7t-170 -7z" />
<glyph unicode="2" horiz-adv-x="999" d="M82 0v90l270 256q168 160 168 344q0 45 -32.5 85t-84.5 40q-49 0 -104 -41t-100 -117l-97 78q63 125 159.5 181.5t238.5 56.5q150 0 232.5 -67.5t82.5 -192.5q0 -72 -40 -145.5t-117.5 -150.5t-143 -131.5t-168.5 -129.5q72 -2 258 -2q127 0 182 10l17 186h119v-350h-840 z" />
<glyph unicode="3" horiz-adv-x="929" d="M51 -428l25 127q111 -14 147 -14q137 0 239.5 76.5t102.5 240.5q0 125 -49 179.5t-147 54.5h-125l-23 104q129 25 216 101.5t87 193.5q0 74 -37.5 128t-107.5 54q-115 0 -242 -112l-80 96q182 150 394 149q170 0 263 -76.5t93 -216.5q0 -184 -240 -286q143 -27 219 -106 t76 -249q0 -217 -172 -335.5t-452 -118.5q-93 0 -187 10z" />
<glyph unicode="4" horiz-adv-x="1046" d="M33 0v143q121 244 266 436.5t340 381.5h149v-799h27l193 4l-66 -166h-154v-420h-243v420h-512zM205 162h340v500q-211 -248 -340 -500z" />
<glyph unicode="5" horiz-adv-x="888" d="M51 -428l27 127q74 -14 168 -14q57 4 108.5 20t102.5 53t81.5 109t30.5 172q0 154 -72.5 203t-217.5 49q-27 0 -82.5 -1t-83.5 -1l106 643q76 -8 176 -8q305 0 412 14v-184q-164 -4 -338 -4h-53l-56 -344q84 0 141.5 -5.5t131.5 -27t119 -60.5t76.5 -113.5t31.5 -181.5 q0 -223 -170 -339.5t-442 -116.5q-117 0 -197 10z" />
<glyph unicode="6" horiz-adv-x="1093" d="M74 561q0 309 191.5 548t582.5 351l41 -129q-131 -43 -229.5 -110.5t-153.5 -140t-88 -165t-43 -171t-10 -173.5q0 -461 186 -460q82 0 135 98t53 215q0 125 -48 213t-124 88h-14l-72 -8l25 110q129 49 182 50q164 0 247 -128t83 -317q0 -190 -128 -325.5t-347 -135.5 q-156 0 -264.5 83t-156.5 213t-48 294z" />
<glyph unicode="7" horiz-adv-x="897" d="M74 532v412q281 -18 561 -18q102 0 242 16q-84 -381 -195 -676q-106 -283 -184 -440.5t-172 -288.5l-205 150q213 225 338 526q100 250 164 535h-52q-190 0 -360 -11l-23 -205h-114z" />
<glyph unicode="8" horiz-adv-x="1058" d="M70 317q0 88 40 147.5t134 139.5l121 101l-78 63q-176 152 -176 326q0 141 119.5 243.5t308.5 102.5q184 0 279 -86t95 -248q0 -29 -8 -57.5t-17 -50t-32 -48.5l-34 -40q-11 -13 -42.5 -37.5t-40 -31.5t-43.5 -30l-32 -25l176 -143q147 -119 147 -278.5t-119.5 -275.5 t-349.5 -116q-213 0 -330.5 101.5t-117.5 242.5zM322 334q0 -102 52 -167t146 -65q90 0 136 72t46 162q0 98 -141 211l-96 78q-143 -121 -143 -291zM385 1137q0 -117 170 -275q70 70 100.5 124t30.5 138q0 88 -44 140.5t-103 52.5q-57 0 -105.5 -54t-48.5 -126z" />
<glyph unicode="9" horiz-adv-x="1093" d="M74 492q0 190 126 325t349 135q233 0 351 -148.5t118 -397.5q0 -309 -190.5 -538.5t-583.5 -340.5l-43 127q133 43 231 108.5t153.5 135t88.5 158.5t43 166t10 171q0 219 -43 320.5t-143 101.5q-82 0 -134.5 -99.5t-52.5 -215.5q0 -127 48.5 -214t125.5 -87h13l69 8 l-22 -109q-123 -49 -185 -49q-160 0 -244.5 128.5t-84.5 314.5z" />
<glyph unicode=":" d="M82 147.5q0 71.5 52 120.5t122 49t122 -49t52 -121v3q0 -74 -52 -125.5t-122 -51.5t-122 51.5t-52 123zM82 782.5q0 71.5 52 120.5t122 49t122 -49t52 -119q0 -74 -52 -125t-122 -51t-122 51.5t-52 123z" />
<glyph unicode=";" d="M51 111q68 209 193 208q88 0 137 -56t49 -122q0 -119 -68.5 -246.5t-166.5 -224.5l-123 82q119 129 118 287q0 29 -139 72zM82 782.5q0 71.5 52 120.5t122 49t122 -49t52 -119q0 -74 -52 -125t-122 -51q-72 0 -123 51.5t-51 123z" />
<glyph unicode="&#x3c;" horiz-adv-x="1024" d="M45 379v172l934 412v-228l-631 -272l631 -268v-228z" />
<glyph unicode="=" horiz-adv-x="1024" d="M45 164v184h934v-184h-934zM45 573v185h934v-185h-934z" />
<glyph unicode="&#x3e;" horiz-adv-x="1024" d="M45 -33v228l631 268l-631 272v228l934 -412v-172z" />
<glyph unicode="?" horiz-adv-x="880" d="M90 1247l72 260q365 -37 500 -164q186 -178 186 -421q0 -102 -56.5 -201.5t-99.5 -99.5h-229v-189h-252l-51 346q74 -16 174 -16h174q20 80 20 190q0 72 -14 139.5t-26.5 99.5t-20.5 42q-16 25 -176 24q-123 0 -201 -10zM145 147.5q0 71.5 52.5 120.5t122 49t122 -49 t52.5 -121v3q0 -74 -52.5 -125.5t-122 -51.5t-122 51.5t-52.5 123z" />
<glyph unicode="@" horiz-adv-x="2048" d="M106 473q0 199 77 372t205 289.5t294 183t344 66.5q401 0 658.5 -247.5t257.5 -642.5q0 -123 -35 -216.5t-92.5 -149.5t-143.5 -92t-177 -49.5t-206 -13.5q-131 0 -131 166q0 8 1 24.5t1 22.5q-31 -80 -96.5 -131t-122.5 -66.5t-113 -15.5q-102 0 -194 122t-92 331 q0 240 119.5 378t340.5 146q111 0 199 -37q14 51 48 69.5t93 18.5q31 0 99 -10l-17 -882q86 0 147.5 22.5t96.5 55t54.5 87t24.5 103.5t5 117q0 184 -62.5 326.5t-169 226t-232.5 127t-263 43.5q-281 0 -504 -215.5t-223 -522.5q0 -229 111.5 -405t281.5 -263t363 -87 q74 0 147.5 19t114.5 38.5t110 56.5l80 -143q-238 -141 -469 -141q-385 0 -657.5 270t-272.5 649zM840 436q0 -311 96 -311q92 0 151.5 154.5t63.5 349.5l4 172q-41 27 -94 26q-74 0 -82 -10q-72 -57 -105.5 -174t-33.5 -207z" />
<glyph unicode="A" horiz-adv-x="1312" d="M0 -6v100l125 21l455 1233q6 4 19 15t17.5 15t14.5 13.5t15 14.5t12.5 14.5t12.5 18.5t9 19h43l473 -1343l113 -21v-100l-209 10l-375 -10v102l201 19l-131 374h-365l-135 -374l203 -19v-102l-293 10zM477 616h271l-134 383z" />
<glyph unicode="B" horiz-adv-x="1396" d="M78 1219v104q223 20 350 27q172 10 369 10q209 0 325.5 -99.5t116.5 -238.5q0 -102 -68.5 -183t-179.5 -116q145 -29 235.5 -121t90.5 -231q0 -162 -122 -267.5t-339 -105.5h-10l-385 4l-367 -8v102l209 19v1110zM594 223q0 -66 25.5 -85t101.5 -25q6 0 17.5 -1t15.5 -1 q131 0 193.5 77.5t62.5 190.5q0 111 -66.5 192.5t-179.5 81.5h-170v-430zM594 776h149q92 0 140.5 72t48.5 168q0 221 -164 221h-4l-170 -2v-459z" />
<glyph unicode="C" horiz-adv-x="1409" d="M135 670q0 289 200 498.5t509 209.5q82 0 142.5 -3t86 -6t72.5 -11t69 -12l13 65h102v-106l10 -326h-104q-16 174 -85 226t-280 52q-170 0 -298 -165.5t-128 -409.5q0 -236 135.5 -412t317.5 -176q86 0 158.5 12.5t106.5 25.5t38 26q18 37 37 250h102v-345 q-233 -90 -477 -90q-305 0 -516 192t-211 505z" />
<glyph unicode="D" horiz-adv-x="1632" d="M82 1219v102q227 23 371 31q98 6 192 6q31 0 95.5 -1t97.5 -1q156 0 277.5 -43t195 -110.5t123 -159t68 -180.5t18.5 -181q0 -86 -20.5 -175t-71 -182.5t-125 -164t-195.5 -116.5t-270 -46h-23l-340 6l-377 -10v102l211 19v1110zM600 258q0 -51 13.5 -83t44 -44t56 -15 t74.5 -3q188 0 304 158.5t116 410.5q0 94 -16 180t-55 177t-121 145.5t-199 54.5h-12l-205 -4v-977z" />
<glyph unicode="E" horiz-adv-x="1302" d="M94 -6v102l207 19v1120l-188 18v103l342 -8l266 6h315l15 80h102v-93l12 -321h-102l-33 207h-438v-477h340l16 161h105v-454h-105l-16 168h-340v-437q0 -66 6 -73q4 -4 53 -4l307 10q29 0 60 4t49 7t18 5q8 8 29 197h100v-334h-583l-172 4z" />
<glyph unicode="F" horiz-adv-x="1171" d="M111 -6v102l190 19v1120l-190 18v103l350 -8q12 0 133 3t125 3h321l15 80h104v-93l8 -321h-100l-35 207h-440v-502h346l16 166h103v-457h-103l-16 168h-346v-487l244 -19v-102l-375 10z" />
<glyph unicode="G" horiz-adv-x="1583" d="M141 680q0 131 49.5 255t138.5 223t229 160.5t308 61.5q68 0 120 -2t97 -6t62.5 -6t63.5 -10t53 -10l14 65h100v-76l10 -356h-102q-25 170 -98.5 224t-292.5 54q-166 0 -303 -156.5t-137 -420.5q0 -274 141 -430t315 -156q123 0 211 31v369l-192 20v102l348 -8l291 8 v-102l-154 -16l-4 -219v-27q0 -78 9 -135.5t20 -75.5l8 -18q-88 0 -271.5 -25t-279.5 -25q-365 0 -559.5 202t-194.5 505z" />
<glyph unicode="H" horiz-adv-x="1810" d="M125 -6v100l190 19v1124l-190 16v103l342 -8l330 8v-103l-191 -16v-494h651v494l-190 16v103l330 -8l342 8v-103l-191 -16v-1124l191 -19v-100l-328 10l-344 -10v100l190 19v501h-651v-501l191 -19v-100l-330 10z" />
<glyph unicode="I" horiz-adv-x="864" d="M88 -6v102l209 19v1120l-209 18v103l363 -8l348 8v-103l-211 -18v-1120l211 -19v-102l-348 10z" />
<glyph unicode="J" horiz-adv-x="788" d="M-31 -360q76 0 131.5 16t89 53t53 72t28 97.5t10.5 102t2 113.5v1141l-209 18v103l360 -8l330 8v-103l-193 -18v-1124q0 -279 -148.5 -438.5t-451.5 -159.5z" />
<glyph unicode="K" horiz-adv-x="1474" d="M117 -6v100l192 21v1122l-192 16v103l344 -8l327 8v-103l-188 -16v-516q8 6 26.5 18.5t26.5 18.5q133 115 424 473l-141 20v105l242 -8l254 8v-105l-154 -20q-203 -262 -397 -449q-27 -27 -52 -43q84 -43 175 -151q47 -57 136 -165t169 -206t90 -111l88 -12v-100l-240 10 l-295 -10v102l111 10l-383 459q-23 27 -80 60v-510l188 -21v-100l-327 10z" />
<glyph unicode="L" horiz-adv-x="1273" d="M113 -6v100l188 21v1122l-188 16v103l344 -8l325 8v-103l-188 -16v-987q0 -2 -1 -27.5t-1 -42.5q0 -53 8 -63q2 -2 53 -2l273 6q27 0 58.5 4t51 8t19.5 6q8 8 73 238h101l-45 -377h-551l-172 4z" />
<glyph unicode="M" horiz-adv-x="1937" d="M109 -6v100l174 21l34 1120l-190 18v101l276 -4l191 6l422 -897l403 897l150 -6l286 4v-101l-202 -18l37 -1120l192 -21v-100l-330 10l-329 -10v100l194 21l-31 815l-448 -979l-461 995l-35 -831l185 -21v-100l-275 10z" />
<glyph unicode="N" horiz-adv-x="1597" d="M92 1243v109h459l657 -940v825l-184 16v101l264 -4l250 6v-101l-170 -18v-1255h-203l-706 1036v-903l184 -21v-100l-262 10l-254 -10v100l174 21v1061q-27 27 -63 51q-23 16 -146 16z" />
<glyph unicode="O" horiz-adv-x="1652" d="M152 674q0 182 78.5 339.5t241.5 261t380 103.5q322 0 510 -207.5t188 -494.5q0 -133 -47 -258t-132 -225.5t-220 -161t-299 -60.5q-217 0 -380 102.5t-241.5 259.5t-78.5 341zM461 676q0 -244 113.5 -414t275.5 -170t275.5 170t113.5 414t-113.5 412.5t-275.5 168.5 t-275.5 -169.5t-113.5 -411.5z" />
<glyph unicode="P" horiz-adv-x="1288" d="M76 1219v104q264 23 352 29q109 8 342 8q217 0 343 -111.5t126 -300.5q0 -182 -146.5 -299t-367.5 -117q-23 0 -133 5v-420l244 -21v-102l-398 10l-327 -10v100l190 21v1108zM592 647q12 0 37.5 1t40.5 1q92 0 175 77t83 222q0 133 -45 211t-162 78h-4l-125 -2v-588z" />
<glyph unicode="Q" horiz-adv-x="1652" d="M152 670q0 182 78.5 340.5t241.5 263t380 104.5t379 -102t240.5 -261t78.5 -343q0 -246 -146.5 -439.5t-393.5 -246.5q53 -92 126.5 -170t122 -111t58.5 -33q135 0 219 43l49 -104q-43 -39 -159.5 -82t-206.5 -43q-57 0 -142.5 64.5t-168.5 157.5t-139 164t-89 118 q-244 53 -386 242.5t-142 437.5zM461 676q0 -244 113.5 -414t275.5 -170t275.5 170t113.5 414t-113.5 412.5t-275.5 168.5t-275.5 -169.5t-113.5 -411.5z" />
<glyph unicode="R" horiz-adv-x="1400" d="M82 1219v104q279 23 348 27q246 12 295 12q244 0 382 -102.5t138 -274.5q0 -131 -90 -238.5t-209 -128.5q41 -61 119 -186t129 -199q121 -176 217 -235q31 -18 92 -33l-26 -102l-226 45q-166 33 -338 268q-41 55 -71.5 102.5t-89 140.5t-109.5 173h-45v-479l193 -19v-104 l-340 12l-334 -12v104l192 19v1112zM598 709l90 2q123 4 185.5 81.5t62.5 186.5q0 111 -55.5 184.5t-178.5 73.5h-8l-96 -2v-526z" />
<glyph unicode="S" horiz-adv-x="1159" d="M190 1020q0 145 122 248.5t311 103.5q180 0 258 -20l18 63h100v-385h-125v17q0 121 -46 165.5t-152 44.5q-100 0 -143.5 -61t-43.5 -127q0 -27 5.5 -49.5t11.5 -39.5t23.5 -39.5t27.5 -35t40 -36t43 -34t54 -41t60 -42.5q12 -8 71.5 -51.5t79 -58.5t63.5 -57t60 -73 t32.5 -79t16.5 -99q0 -160 -126 -261.5t-326 -101.5q-217 0 -314 58l-6 -58h-100l6 82l12 307h125q-2 -18 -2 -53q0 -123 55.5 -169t167.5 -46q100 0 156.5 48t56.5 118q0 29 -10 58.5t-35.5 60.5t-45 53.5t-60.5 55t-59.5 47t-64.5 46t-54 37.5q-131 96 -174 146 q-89 106 -89 258z" />
<glyph unicode="T" horiz-adv-x="1470" d="M74 965l47 374l2 95h113l12 -80h1026l12 80h113v-469h-113l-29 262h-362v-1110l211 -21v-102l-354 10l-361 -10v102l211 21v1110h-278q-41 0 -58.5 -14.5t-29.5 -63.5l-52 -184h-110z" />
<glyph unicode="U" horiz-adv-x="1556" d="M68 1253v103l321 -8l354 8v-103l-190 -18v-750q0 -186 96 -275t215 -89q121 0 227.5 92t106.5 274v750l-182 16v101l258 -4l254 6v-101l-172 -18v-760q0 -248 -133 -376t-392 -128q-246 0 -407.5 126t-161.5 327v809z" />
<glyph unicode="V" horiz-adv-x="1423" d="M20 1255v101l269 -8l344 8v-103l-178 -16l348 -889l295 889l-183 16v103l267 -8l227 8v-101l-141 -16l-445 -1272h-168l-499 1270z" />
<glyph unicode="W" horiz-adv-x="1998" d="M35 1251v105l262 -8l295 8v-105l-123 -12l348 -895l135 377l-211 522l-86 8v105l207 -8l189 6l161 -6l205 8v-105l-110 -8l-144 -397l199 -514l330 907l-140 12v105l238 -8l192 8v-105l-124 -12l-469 -1272h-136l-215 539l-202 -539h-166l-498 1272zM1006 1243l71 -178 l64 178l-64 8z" />
<glyph unicode="X" horiz-adv-x="1439" d="M66 -6v100l149 19l399 528l-407 598l-137 16v101l272 -8l352 8v-103l-162 -14l254 -369l273 369l-152 14v103l277 -8l219 8v-101l-156 -18l-383 -494l434 -630l134 -19v-100l-258 8l-367 -8v102l168 15l-273 397l-296 -395l153 -19v-100l-278 8z" />
<glyph unicode="Y" horiz-adv-x="1284" d="M14 1255v101l267 -8l329 8v-101l-151 -18l276 -467l266 469l-143 16v101l254 -8l193 8v-101l-125 -16l-351 -621v-503l211 -19v-102l-364 10l-350 -10v102l211 19v450l-396 672z" />
<glyph unicode="Z" horiz-adv-x="1275" d="M61 0v70l762 1157q-508 0 -534 -2q-6 0 -10 -1l-9 -2q-4 -1 -7 -3t-5 -3.5t-4 -5.5t-4 -6t-3 -8t-2 -8t-3 -10.5t-4 -12.5l-48 -202h-106l39 376l4 95h104l11 -80h936v-72l-764 -1159q90 -2 206 -2q87 0 190 1q239 3 245 9q2 2 32 246h103v-377h-1129z" />
<glyph unicode="[" d="M33 -528v2029h479v-137l-287 -14v-1727l287 -14v-137h-479z" />
<glyph unicode="\" horiz-adv-x="641" d="M-31 1518h197l508 -2046h-197z" />
<glyph unicode="]" d="M2 -391l287 14v1727l-287 14v137h479v-2029h-479v137z" />
<glyph unicode="^" horiz-adv-x="1024" d="M12 541l416 932h168l416 -932h-228l-272 628l-270 -628h-230z" />
<glyph unicode="_" horiz-adv-x="1024" d="M0 0h1024v-193h-1024v193z" />
<glyph unicode="`" horiz-adv-x="901" d="M147 1520q0 2 1.5 6t9.5 14t23.5 17.5t49 13.5t78.5 6l47 -2l211 -479q0 -2 2 -6q0 -25 -80 -25l-67 4z" />
<glyph unicode="a" horiz-adv-x="942" d="M68 193q0 98 32 145q4 10 82 44t148 56q49 14 86 22.5t76.5 13.5t56.5 9v215q0 117 -10 121q-16 8 -76 8q-96 0 -96 -10q-6 -35 -7 -84q0 -8 1 -25.5t1 -23.5l-256 -37q-8 43 -8 78q0 37 11 57q20 43 141 106.5t244 63.5q137 0 234 -63.5t97 -165.5v-551q0 -27 7.5 -37 t31.5 -10h86v-92q-195 -43 -284 -51h-21q-59 0 -74 61q-8 25 -8 41q-92 -111 -239 -111q-117 0 -186.5 55.5t-69.5 164.5zM344 258q0 -55 18.5 -95t53.5 -40q78 0 133 74v184q-72 -14 -96 -21q-39 -10 -101 -32q-8 -41 -8 -70z" />
<glyph unicode="b" horiz-adv-x="1118" d="M-25 1350v106q410 47 476 68v-645q115 74 239 73q381 0 381 -458q0 -240 -130 -378.5t-396 -138.5q-102 0 -371 35v1346zM451 131q45 -20 110 -20q88 0 151.5 95t63.5 275.5t-51 253.5q-41 53 -113 53q-86 0 -161 -14v-643z" />
<glyph unicode="c" horiz-adv-x="931" d="M84 471q0 215 128 347t337 132q154 0 253 -39t99 -110q0 -59 -33 -125l-241 -21q2 12 2 43q0 80 -11 121q-16 2 -40 2q-96 0 -109 -6q-29 -27 -58.5 -122t-29.5 -216q0 -174 66.5 -270t142.5 -96h14q139 0 254 114l68 -92q-78 -74 -163 -112.5t-212 -38.5 q-221 0 -344 132t-123 357z" />
<glyph unicode="d" horiz-adv-x="1140" d="M88 469q0 217 124 350t366 133q100 0 149 -8v414l-197 -8v106q39 6 144.5 16.5t186.5 22.5t140 29v-1358q0 -31 6.5 -36t36.5 -5h86v-94q-260 -37 -368 -58l-25 109q-90 -109 -233 -109q-193 0 -304.5 143.5t-111.5 352.5zM385 483q0 -172 48 -272t130 -100q90 0 164 86 v471q0 96 -23.5 124.5t-119.5 28.5q-100 0 -113 -12q-35 -33 -60.5 -126.5t-25.5 -199.5z" />
<glyph unicode="e" horiz-adv-x="958" d="M84 453q0 221 122 358t318 137q397 0 398 -317q0 -72 -4 -113h-535q-2 -37 -2 -55q0 -147 52 -249.5t165 -102.5q176 0 289 102l57 -88q-160 -143 -393 -143q-211 0 -339 128t-128 343zM393 625h90q111 0 158 10q2 14 2 41q0 63 -23.5 104t-70.5 41q-74 0 -90 -6 q-12 -8 -35 -70.5t-31 -119.5z" />
<glyph unicode="f" horiz-adv-x="679" d="M59 846q0 45 11 65q4 12 53 13h8q70 0 70 39l8 141q8 162 140 272.5t306 110.5q199 0 291 -34t92 -116q0 -39 -22 -108l-182 -21q-4 29 -8.5 50.5t-13.5 38t-13 22.5t-17.5 20.5t-15.5 16.5q-10 2 -41 2q-98 0 -129 -10q-51 -25 -72 -58q-45 -70 -45 -227v-135h180v-146 l-180 15v-676l150 -21v-108l-277 14l-280 -14v108l133 21v674l-142 -13q-4 31 -4 64z" />
<glyph unicode="g" horiz-adv-x="1083" d="M51 -293q0 20 7.5 41t15.5 36t27.5 31.5t30.5 25.5t36 22.5t33 17.5t35 17l26 12q-57 10 -94 28.5t-51.5 44t-18.5 43t-4 40.5v8q0 12 4 25.5t8.5 24.5t14.5 24.5t17 22.5t21.5 22.5t21.5 19.5t24.5 19.5t24 17.5t23.5 16.5t19 14.5q-90 53 -138 124.5t-48 192.5 q0 150 120 250t324 100q197 0 297 -65q143 4 246 30q10 -41 10 -82q0 -37 -12 -73q-10 -10 -86 -10q-41 0 -61 2q49 -98 49 -150q0 -172 -120 -267t-325 -95q-102 0 -149 6q-47 -84 -47 -115q0 -33 57 -33q49 0 149.5 7.5t153.5 7.5q209 0 297 -51.5t88 -172.5 q0 -182 -171 -298.5t-421 -116.5q-217 0 -325.5 53t-108.5 182zM307 -250q0 -162 207 -162q111 0 216.5 58.5t105.5 163.5q0 61 -35 83.5t-133 22.5q-33 0 -86.5 -3t-117 -7t-87.5 -6q-70 -101 -70 -150zM379 596q0 -133 33.5 -185.5t117.5 -52.5q27 0 69 14.5t48 28.5 q33 82 33 195q0 127 -27.5 180t-122.5 53q-25 0 -62.5 -10t-49.5 -22q-12 -14 -25.5 -78t-13.5 -123z" />
<glyph unicode="h" horiz-adv-x="1175" d="M-4 1350v106q401 47 473 68v-664q86 92 252 92q326 0 346 -254q8 -109 8 -241q0 -170 -18 -338l108 -21v-106l-245 14l-267 -14v104l129 21q20 111 21 395q0 244 -41 285q-18 18 -82 18q-61 0 -102 -10q-4 -4 -47.5 -43t-61.5 -57v-586l129 -21v-106l-258 14l-279 -14 v104l134 21v1241z" />
<glyph unicode="i" horiz-adv-x="624" d="M51 786v107q324 39 428 68v-842l127 -21v-106l-258 14l-276 -14v104l131 21v678zM170 1262q0 68 46 114.5t118 46.5t117 -46t45 -111q0 -70 -45 -116t-117 -46t-118 46t-46 112z" />
<glyph unicode="j" horiz-adv-x="595" d="M-313 -371q0 51 49 125l231 21q0 -139 10 -168q10 -2 46 -2q55 0 59 4q16 14 38.5 48t48.5 120t26 190v828l-152 -9v107q336 41 428 68v-828q0 -127 -19.5 -234.5t-64.5 -207t-133 -156.5t-211 -57q-172 0 -264 46t-92 105zM164 1262q0 70 45 115.5t116.5 45.5t117.5 -46 t46 -111q0 -68 -46 -115t-117.5 -47t-116.5 46t-45 112z" />
<glyph unicode="k" horiz-adv-x="1116" d="M-8 1350v106q328 31 475 68v-1035l301 322l-141 16v105l276 -10l174 10v-105l-139 -18l-223 -238q94 -166 293 -428q18 -29 41 -32l65 -13v-106l-227 16l-236 -18v110l64 6l-248 383v-370l127 -21v-106l-268 14l-269 -14v104l133 21v1241z" />
<glyph unicode="l" horiz-adv-x="598" d="M-23 1350v106q328 31 476 68v-1405l127 -21v-106l-269 14l-268 -14v104l133 21v1241z" />
<glyph unicode="m" horiz-adv-x="1816" d="M84 786v107q260 31 391 68l17 -113q43 47 122.5 75.5t147.5 28.5q236 0 311 -131q131 131 295 131q328 0 348 -254q8 -109 8 -241q0 -170 -18 -338l109 -21v-106l-246 14l-266 -14v104l127 21q20 63 20 393q0 248 -39 287q-18 18 -82 18q-61 0 -102 -10q-4 -4 -47 -43 t-62 -57v-586l127 -21v-106l-258 14l-276 -14v104l133 21v438q0 119 -19 186q-10 43 -22 56q-18 18 -80 18q-63 0 -105 -10q-2 -2 -45 -42t-61 -58v-586l127 -21v-106l-258 14l-279 -14v104l134 21v678z" />
<glyph unicode="n" horiz-adv-x="1200" d="M66 786v107q260 31 391 68l16 -113q43 47 123 75.5t147 28.5q326 0 347 -254q10 -137 10 -241q0 -170 -19 -338l107 -21v-106l-246 14l-264 -14v104l127 21q20 68 20 372q0 252 -39 308q-18 18 -81 18q-61 0 -103 -10q-80 -70 -108 -100v-586l127 -21v-106l-259 14 l-276 -14v104l131 21v678z" />
<glyph unicode="o" horiz-adv-x="1105" d="M88 463q0 98 26.5 183t81 155.5t150.5 111.5t225 41q236 0 364 -136t128 -355q0 -215 -123 -352.5t-367 -137.5q-233 0 -359 136.5t-126 353.5zM383 485q0 -172 53 -276.5t137 -104.5q94 0 115 27q10 10 27.5 51t35 116t17.5 146q0 31 -2 45q-29 336 -197 336 q-82 0 -110 -28q-18 -18 -47 -115t-29 -197z" />
<glyph unicode="p" horiz-adv-x="1167" d="M49 786v107q307 41 391 65l17 -114q109 109 276 108q199 0 294 -114.5t95 -370.5q0 -227 -132 -364.5t-380 -139.5q-76 0 -133 23v-389l197 -27v-105l-322 11l-282 -11v103l131 24v1203zM477 276q0 -117 23.5 -148.5t109.5 -31.5q88 0 138.5 54.5t63.5 129t13 193.5 q0 260 -71 330q-10 12 -64 12q-84 0 -104 -10q-39 -23 -109 -107v-422z" />
<glyph unicode="q" horiz-adv-x="1118" d="M88 471q0 215 124 348t359 133q74 0 217.5 -12t212.5 -12v-1340l132 -18v-105l-269 11l-311 -11v105l174 20v400q-98 -23 -201 -23q-211 0 -324.5 145.5t-113.5 358.5zM385 469q0 -168 52 -266.5t145 -98.5q68 0 145 35v529q0 102 -25.5 127.5t-138.5 25.5q-78 0 -90 -12 q-88 -84 -88 -340z" />
<glyph unicode="r" horiz-adv-x="806" d="M59 786v107q264 31 392 68l18 -142q80 131 190 131q76 0 112 -31.5t36 -117.5q0 -72 -64 -150l-155 -22q0 113 -8 129q-4 4 -13 4q-6 0 -8 -2q-37 -16 -72 -98v-543l172 -21v-106l-307 14l-272 -14v104l131 21v678z" />
<glyph unicode="s" horiz-adv-x="856" d="M88 668q0 141 93 212.5t251 71.5q143 0 230 -41l16 47h121q-35 -203 -41 -303h-121v19q0 164 -148 164q-92 0 -120 -29q-25 -25 -25 -100q0 -61 223 -158q141 -61 197.5 -130t56.5 -177q0 -104 -88 -187.5t-280 -83.5q-141 0 -240 47l-2 -47h-117v320h117q2 -119 51 -160 t146 -41q68 0 113.5 32t45.5 91q0 53 -50 91t-181 91q-248 105 -248 271z" />
<glyph unicode="t" horiz-adv-x="698" d="M47 844q0 45 14 65q8 12 136 17q0 25 -2 80t-2 77q0 55 8 72q18 35 192 35q31 0 76 -4l-6 -258h209v-146l-209 15v-592q0 -45 16.5 -67.5t36.5 -22.5q61 0 150 57l51 -111q-49 -31 -130 -55t-141 -24q-254 0 -253 233v580l-140 -13q-6 29 -6 62z" />
<glyph unicode="u" horiz-adv-x="1181" d="M41 786v105q299 43 428 70v-707q0 -82 19.5 -111.5t70.5 -29.5q84 0 98 10q37 25 109 96v576l-150 -9v107q303 37 428 68v-799q0 -25 6.5 -31t30.5 -6h88v-94q-150 -16 -368 -58l-25 109q-63 -66 -120.5 -87.5t-149.5 -21.5q-174 0 -243.5 80t-69.5 254v488z" />
<glyph unicode="v" horiz-adv-x="974" d="M0 834v104l221 -12l268 12v-102l-100 -17l191 -510l172 510l-99 15v104l162 -8l170 8v-102l-100 -17l-303 -846h-156l-326 846z" />
<glyph unicode="w" horiz-adv-x="1429" d="M0 834v104l225 -12l289 8l213 -8l246 12v-102l-123 -17l190 -502l166 502l-121 15v104l183 -8l172 8v-102l-101 -17l-303 -846h-114l-181 467l-166 -467h-149l-326 846zM385 817l195 -500l96 289l-82 211l-82 21z" />
<glyph unicode="x" horiz-adv-x="1036" d="M61 -8v104l107 15l252 317l-256 393l-103 13v100l226 -10l264 10v-98l-88 -15l119 -192l155 192l-88 13v100l172 -10l187 10v-98l-115 -15l-240 -293l277 -417l100 -13v-106l-221 10l-270 -10v104l88 15l-135 215l-175 -215l86 -13v-106l-180 10z" />
<glyph unicode="y" horiz-adv-x="970" d="M0 831v107l236 -12l253 12v-107l-100 -12l189 -514l174 516l-123 10v107l170 -12l182 12v-107l-96 -6l-445 -1243l125 -20v-101l-231 11l-201 -11v103l152 18q59 82 98 189q43 121 57 166l-340 884z" />
<glyph unicode="z" horiz-adv-x="907" d="M53 608l41 320h780v-97l-489 -725h123q82 0 229 19l25 203h108v-328h-809v90l496 735h-127q-55 0 -219 -10l-49 -207h-109z" />
<glyph unicode="{" horiz-adv-x="641" d="M12 459v92l84 6q88 6 119 67.5t31 161.5q0 70 -11.5 191t-11.5 192q0 336 307 336h115v-96l-80 -6q-88 -6 -118.5 -62.5t-30.5 -154.5q0 -76 18.5 -205t18.5 -205q0 -100 -32 -168.5t-124 -103.5q156 -59 156 -266q0 -78 -17.5 -208t-17.5 -204q0 -113 28.5 -177.5 t118.5 -68.5l80 -4v-98h-115q-307 0 -307 327q0 74 11.5 200t11.5 196q0 72 -8.5 118t-43 83.5t-96.5 46.5z" />
<glyph unicode="|" d="M160 -528v2046h194v-2046h-194z" />
<glyph unicode="}" horiz-adv-x="641" d="M0 -426l80 6q88 6 117.5 65.5t29.5 161.5q0 78 -17 209t-17 209q0 102 31.5 173t123.5 106q-156 57 -155 260q0 80 19 212t19 210q0 209 -151 217l-80 4v98h115q307 0 307 -327q0 -74 -11.5 -197t-11.5 -195q0 -102 30 -160.5t120 -66.5l84 -8v-92l-84 -10 q-86 -10 -118 -70t-32 -158q0 -76 11.5 -208t11.5 -208q0 -328 -307 -327h-115v96z" />
<glyph unicode="~" horiz-adv-x="1024" d="M14 483l19 13q16 12 48 31.5t70.5 39t87 32.5t93.5 13q72 0 194.5 -59t180.5 -59q31 0 63.5 10t57 24.5t46 28.5t31.5 25l13 8l92 -152l-45 -30q-45 -31 -125 -65t-152 -34t-192.5 59.5t-176.5 59.5q-31 0 -63.5 -10t-58 -24.5t-46 -29t-32.5 -24.5l-10 -8z" />
<glyph unicode="&#xa0;" />
<glyph unicode="&#xa1;" horiz-adv-x="589" d="M121 780q0 72 52 123t122 51t122 -51t52 -123q0 -70 -52 -119t-122 -49t-122 49t-52 119zM131 -494q10 20 12 52q18 270 43 790q6 109 10.5 113t49.5 7t86 3l43 2q57 -795 57 -833q4 -27 4 -56q0 -68 -24 -78q-57 -27 -144 -26q-49 0 -82.5 6t-44.5 14z" />
<glyph unicode="&#xa2;" horiz-adv-x="931" d="M84 471q0 197 108.5 324t284.5 149v219h152v-215q272 -25 272 -147q0 -59 -33 -125l-241 -21q2 12 2 47q0 49 -6 117q-20 2 -45 2q-96 0 -109 -6q-29 -27 -58.5 -122t-29.5 -216q0 -182 69.5 -274t153.5 -92q139 0 254 114l68 -92q-141 -129 -297 -145v-219h-152v219 q-186 23 -289.5 149.5t-103.5 333.5z" />
<glyph unicode="&#xa3;" horiz-adv-x="1116" d="M35 -373q0 66 86 116t188 60q43 125 62 258l-162 -14q-2 14 -2 33q0 66 30.5 83t108.5 17h55q115 768 121 819q8 72 38 139.5t82 132t143.5 104.5t207.5 40q100 0 174 -40t74 -101q0 -14 -1 -24.5t-4 -19.5t-5 -14.5t-9.5 -14.5t-9.5 -12t-13 -14l-15 -16l-201 -37 q8 37 8 86q0 51 -16.5 65.5t-56.5 14.5q-2 0 -7 -2h-4q-115 -70 -137 -246q-4 -29 -57.5 -406.5t-63.5 -455.5h232l-15 -131l-243 14q-18 -143 -72 -272q211 -117 264 -117q29 0 48.5 57.5t19.5 139.5l196 41q25 -113 25 -172q0 -184 -283 -184q-213 0 -364 88 q-172 -86 -264 -86q-90 0 -124 16t-34 55z" />
<glyph unicode="&#xa4;" horiz-adv-x="1024" d="M0 76l221 221q-47 80 -47 166q0 90 47 170l-221 219l131 131l223 -223q70 41 158 41q90 0 170 -45l225 227l129 -131l-227 -227q41 -76 41 -162q0 -88 -41 -158l227 -227l-129 -131l-225 225q-80 -47 -170 -47q-80 0 -162 41l-219 -219zM328 463q0 -78 53 -131t131 -53 t132 53t54 131t-54 133t-132 55t-131 -54t-53 -134z" />
<glyph unicode="&#xa5;" horiz-adv-x="1284" d="M14 1255v101l267 -8l329 8v-101l-151 -18l276 -467l266 469l-143 16v101l254 -8l193 8v-101l-125 -16l-326 -575h272v-129h-297v-127h297v-129h-297v-164l211 -19v-102l-364 10l-350 -10v102l211 19v164h-297v129h297v127h-297v129h241l-340 573z" />
<glyph unicode="&#xa6;" d="M131 344h244v-893h-244v893zM131 668v891h244v-891h-244z" />
<glyph unicode="&#xa7;" horiz-adv-x="970" d="M117 862q0 96 13 181t47 170t87 145.5t139 98.5t197 38q113 0 205 -41t92 -111q0 -39 -68 -126l-225 -21q0 51 -22 164q-125 -6 -166 -101.5t-41 -283.5q0 -88 3 -167t12 -163t16.5 -137t25 -147.5t25.5 -135.5t33.5 -157.5t33.5 -157.5v-2l2 -2q0 -12 -36.5 -22.5 t-67.5 -10.5q-25 0 -49.5 4t-36.5 8l-10 4q-209 524 -209 973zM123 -375q0 51 67 129l226 21q0 -106 22 -164q66 2 108 30.5t62.5 84t27.5 116t7 152.5q0 184 -20.5 362.5t-41 282.5t-71.5 336q-12 55 -18 84v2q0 12 36.5 24.5t67.5 12.5q25 0 48.5 -4t35.5 -9l12 -4 q209 -524 209 -975v3q0 -123 -22.5 -227.5t-73.5 -200t-149.5 -150.5t-235.5 -55q-113 0 -205 40.5t-92 108.5z" />
<glyph unicode="&#xa8;" horiz-adv-x="901" d="M90 1190q0 57 39 100t94 43q57 0 96 -42t39 -101q0 -57 -39.5 -97t-95 -40t-94.5 41t-39 96zM483 1190q0 59 39 101t96.5 42t95.5 -43t38 -100t-38 -97t-96 -40q-55 0 -95 40t-40 97z" />
<glyph unicode="&#xa9;" horiz-adv-x="2048" d="M106 471q0 379 270.5 648.5t649.5 269.5q381 0 648.5 -268.5t267.5 -649.5q0 -248 -122 -458t-333 -332.5t-461 -122.5q-379 0 -649.5 268t-270.5 645zM297 473q0 -303 214 -524t513 -221t513 221t214 524q0 305 -213 524.5t-514 219.5t-514 -219.5t-213 -524.5zM520 471 q0 205 142.5 343t355.5 138q100 0 133 -4t113 -26l6 47h131v-92l8 -259h-119q-8 94 -63.5 146.5t-151.5 52.5q-109 0 -185.5 -97t-76.5 -241q0 -152 82 -260t199 -108q39 0 103.5 18t70.5 29q14 31 22 170h117v-289h2q-176 -66 -375 -66q-215 0 -364.5 130t-149.5 368z" />
<glyph unicode="&#xaa;" horiz-adv-x="747" d="M51 817q0 63 21 109q10 29 132 61.5t204 46.5v164l-7 64q-6 0 -25.5 1t-29.5 1q-35 0 -35 -43v-54l-225 -32q-8 41 -8 69.5t8 42.5q12 29 110.5 77t192.5 48q109 0 187.5 -47t78.5 -125v-352q0 -29 6.5 -39t28.5 -10h49v-82q-20 -2 -92 -19.5t-106 -17.5q-84 0 -109 65 q-49 -68 -174 -67q-94 0 -150.5 34.5t-56.5 104.5zM289 864q0 -59 24 -73q6 -2 11 -3q27 0 55.5 25t28.5 47v78q-61 -12 -115 -31q-4 -33 -4 -43z" />
<glyph unicode="&#xab;" horiz-adv-x="1060" d="M74 451l139 114q68 57 178 172q4 4 18.5 19.5t25.5 27t26.5 24.5t29 20.5t23.5 7.5q14 0 27.5 -7.5t36 -27t24.5 -21.5q-37 -66 -61 -106q-4 -8 -57.5 -95t-84.5 -128q18 -23 33 -45q4 -8 107 -173l61 -110q-4 -4 -18 -17l-22 -18q-7 -6 -20.5 -12t-25.5 -6q-27 0 -61 34 q-156 160 -240 232zM489 451l138 114q35 29 178 172q90 98 123 99q25 0 86 -56q-37 -66 -62 -106q-12 -20 -40.5 -70.5t-51 -86.5t-49.5 -66q8 -8 37 -45q49 -90 102 -173l64 -110q-4 -2 -18.5 -15.5t-22.5 -19.5t-20.5 -12t-24.5 -6q-29 0 -62 34q-172 178 -239 232z" />
<glyph unicode="&#xac;" horiz-adv-x="1024" d="M31 741v187h962v-561h-184v374h-778z" />
<glyph unicode="&#xad;" horiz-adv-x="768" d="M127 358v232h516v-232h-516z" />
<glyph unicode="&#xae;" horiz-adv-x="1333" d="M37 778q0 252 185.5 428t447.5 176t444 -176t182 -428q0 -250 -183 -427t-443 -177q-262 0 -447.5 177t-185.5 427zM176 780.5q0 -196.5 144.5 -336t347 -139.5t346 140.5t143.5 334.5q0 197 -143.5 334t-345.5 137q-205 0 -348.5 -137t-143.5 -333.5zM338 1004v86 q166 8 201 12q6 0 75.5 2t85.5 2q109 0 181.5 -46t72.5 -130q0 -63 -46 -114.5t-99 -65.5q49 -88 88 -138q41 -70 74 -98q2 0 26 -14l-34 -60l-72 21q-78 23 -152 131q-72 98 -94 137h-45v-170l96 -10v-84l-155 8l-185 -8v82l95 10v449zM600 793h82q70 0 91.5 32.5 t21.5 87.5q0 98 -113 99h-82v-219z" />
<glyph unicode="&#xaf;" horiz-adv-x="901" d="M41 1114v184h770v-184h-770z" />
<glyph unicode="&#xb0;" horiz-adv-x="768" d="M70 1178q0 131 92 223t223 92t222 -92t91 -223t-91 -223.5t-222 -92.5t-223 92.5t-92 223.5zM254 1178q0 -53 39 -92t92 -39q55 0 94 38.5t39 92.5q0 55 -39 94t-94 39q-53 0 -92 -39t-39 -94z" />
<glyph unicode="&#xb1;" horiz-adv-x="1024" d="M45 0v184h934v-184h-934zM45 547v184h375v299h184v-297h375v-184h-375v-299h-184v297h-375z" />
<glyph unicode="&#xb2;" horiz-adv-x="681" d="M29 1346q63 88 135 131t184 43q123 0 191.5 -65.5t68.5 -190.5q0 -123 -45 -215.5t-153 -214.5l-154 -172q63 -2 164 -3q51 0 84 7l20 143h99v-281h-572v115q4 4 70.5 84t82 100.5t64.5 92t65.5 111.5t35 101.5t18.5 116.5q0 57 -29.5 96t-74.5 39q-70 0 -146 -112z" />
<glyph unicode="&#xb3;" horiz-adv-x="681" d="M20 614l76 103q106 -80 180 -80q53 0 96.5 43t43.5 125t-32 122t-81 42l-106 6l4 94q88 31 134 81t46 140q0 102 -88 103q-70 0 -156 -107l-102 92q78 84 140.5 115t172.5 31q125 0 197.5 -67.5t72.5 -168.5q0 -156 -137 -239q174 -49 174 -236q0 -133 -99 -217t-269 -84 q-156 0 -267 102z" />
<glyph unicode="&#xb4;" horiz-adv-x="901" d="M322 1090v4l227 465q0 2 19.5 5t51 7t58.5 4q96 0 96 -29v-2l-307 -477q-39 -4 -66 -4q-79 0 -79 27z" />
<glyph unicode="&#xb5;" horiz-adv-x="1101" d="M152 -489q12 242 18 397t7 213.5t3 81.5q12 287 13 725h264q-18 -700 -19 -707q0 -51 19.5 -73.5t42.5 -22.5h39q88 68 127 225.5t39 278.5l6 299h256l-17 -756q66 66 103 113l65 -54q-184 -258 -309 -258q-49 0 -76.5 48.5t-27.5 136.5v18q-39 -96 -109 -150.5 t-143 -54.5q-14 0 -33 3t-23 3q4 -125 12.5 -230t14.5 -157.5t6 -60.5q0 -20 -66.5 -39.5t-121.5 -19.5q-90 0 -90 38v3z" />
<glyph unicode="&#xb6;" horiz-adv-x="1374" d="M133 911q0 246 144.5 400.5t357.5 154.5h674v-112l-183 -23v-1851h-161v1851h-150v-1851h-162v889h-47q-201 0 -337 150t-136 392z" />
<glyph unicode="&#xb7;" horiz-adv-x="1024" d="M338 465q0 72 52 121t122 49t122 -49t52 -119q0 -74 -52 -125t-122 -51t-122 51t-52 123z" />
<glyph unicode="&#xb8;" horiz-adv-x="882" d="M217 -432q0 25 22.5 76t45.5 55q98 -43 133 -43q72 0 71 65q0 49 -51 60.5t-172 11.5l148 246h172l-74 -131q80 -14 136.5 -62.5t56.5 -119.5q0 -109 -82 -163.5t-185 -54.5q-76 0 -148.5 16.5t-72.5 43.5z" />
<glyph unicode="&#xb9;" horiz-adv-x="681" d="M27 1280v106l303 125h127v-872l192 -12v-105l-299 10l-307 -10v105l193 12v688z" />
<glyph unicode="&#xba;" horiz-adv-x="868" d="M53 1018q0 147 111.5 250.5t279.5 103.5q186 0 288 -99t102 -253t-113 -253t-277 -99q-188 0 -289.5 98t-101.5 252zM317 1034q0 -29 4.5 -63.5t14.5 -83.5t36.5 -81t65.5 -32q68 0 78 8q6 4 18.5 36t24.5 85t12 103q0 20 -2 30q-4 43 -8 72t-15 72t-36 65.5t-59 22.5 q-61 0 -80 -13q-6 -4 -18.5 -35.5t-24 -84t-11.5 -101.5z" />
<glyph unicode="&#xbb;" horiz-adv-x="1060" d="M90 780q4 4 18.5 16.5t22.5 19.5t21.5 13.5t23.5 6.5q33 0 123 -99q102 -104 180 -172l137 -114q-129 -109 -137 -115q-61 -51 -241 -232q-35 -35 -62 -34q-25 0 -84 53q35 68 62 110q16 29 52 84.5t52 85.5q8 16 35 48q-25 29 -48.5 64.5t-52 86.5t-40.5 72zM504 123 q37 66 65 110q16 29 51 85.5t52 84.5q8 16 33 48q-25 29 -47.5 65.5t-50 85.5t-42.5 72l-61 106q4 2 19.5 16.5t22.5 20.5t20.5 12.5t25.5 6.5t30.5 -12.5t32 -26t35 -36t23.5 -24.5q137 -137 178 -172l139 -114q-129 -106 -139 -115q-84 -70 -238 -232q-35 -35 -61 -34 q-12 0 -24.5 6t-20.5 12t-22.5 18.5t-20.5 16.5z" />
<glyph unicode="&#xbc;" horiz-adv-x="1884" d="M88 1280v106l303 125h127v-872l193 -12v-105l-299 10l-308 -10v105l193 12v688zM477 -23l811 1547l139 -82l-813 -1546zM1057 258v109q162 344 403 626l135 -2v-600h41q33 0 93 19l-64 -152h-70v-258h-206v258h-332zM1210 391h179v295q-116 -160 -179 -295z" />
<glyph unicode="&#xbd;" horiz-adv-x="1884" d="M88 1280v106l303 125h127v-872l193 -12v-105l-299 10l-308 -10v105l193 12v688zM477 -23l811 1547l139 -82l-813 -1546zM1184 817q63 88 135 131t184 43q123 0 191.5 -65.5t68.5 -190.5q0 -123 -45 -215t-153 -215l-154 -172q63 -2 164 -2q51 0 84 6l20 144h99v-281h-572 v115q4 4 70.5 84t82 100t65 92t65.5 112t34.5 101.5t18.5 116.5q0 57 -29.5 96t-74.5 39q-70 0 -146 -113z" />
<glyph unicode="&#xbe;" horiz-adv-x="1884" d="M82 614l76 103q106 -80 180 -80q53 0 96 43t43 125t-31.5 122t-80.5 42l-107 6l4 94q88 31 134 81t46 140q0 102 -88 103q-70 0 -155 -107l-103 92q78 84 140.5 115t173.5 31q125 0 197.5 -67.5t72.5 -168.5q0 -156 -137 -239q174 -49 174 -236q0 -133 -99.5 -217 t-269.5 -84q-155 0 -266 102zM477 -23l811 1547l139 -82l-813 -1546zM1057 258v109q162 344 403 626l135 -2v-600h41q33 0 93 19l-64 -152h-70v-258h-206v258h-332zM1210 391h179v295q-116 -160 -179 -295z" />
<glyph unicode="&#xbf;" horiz-adv-x="880" d="M90 45q0 102 55.5 182t100.5 80h227v187h254l51 -347q-74 16 -174 17h-174q-2 -10 -8 -29.5t-7 -27t-3 -31t-2 -60.5q0 -72 14 -140.5t26.5 -101t20.5 -40.5q16 -23 170 -23q129 0 207 10l-72 -262q-369 37 -500 164q-186 178 -186 422zM442 778q0 72 52.5 123t122 51 t122 -51t52.5 -123q0 -70 -52.5 -120t-122 -50t-122 50t-52.5 120z" />
<glyph unicode="&#xc0;" horiz-adv-x="1312" d="M0 -6v100l125 21l455 1233q6 4 19 15t17.5 15t14.5 13.5t15 14.5t12.5 14.5t12.5 18.5t9 19h43l473 -1343l113 -21v-100l-209 10l-375 -10v102l201 19l-131 374h-365l-135 -374l203 -19v-102l-293 10zM371 1743q0 51 155 51l45 -2l217 -272v-4q0 -25 -75 -25l-64 4z M477 616h271l-134 383z" />
<glyph unicode="&#xc1;" horiz-adv-x="1312" d="M0 -6v100l125 21l455 1233q6 4 19 15t17.5 15t14.5 13.5t15 14.5t12.5 14.5t12.5 18.5t9 19h43l473 -1343l113 -21v-100l-209 10l-375 -10v102l201 19l-131 374h-365l-135 -374l203 -19v-102l-293 10zM477 616h271l-134 383zM612 1511v5l211 258q0 2 19.5 5t50.5 6t55 3 q92 0 92 -27v-2l-288 -268q-37 -4 -64 -4q-76 -1 -76 24z" />
<glyph unicode="&#xc2;" horiz-adv-x="1312" d="M0 -6v100l125 21l455 1233q6 4 19 15t17.5 15t14.5 13.5t15 14.5t12.5 14.5t12.5 18.5t9 19h43l473 -1343l113 -21v-100l-209 10l-375 -10v102l201 19l-131 374h-365l-135 -374l203 -19v-102l-293 10zM371 1440v4l209 289q68 10 122 10q43 0 64 -10l217 -289v-4 q0 -25 -74 -25l-53 4l-182 150l-178 -150q-29 -4 -52 -4q-73 0 -73 25zM477 616h271l-134 383z" />
<glyph unicode="&#xc3;" horiz-adv-x="1312" d="M0 -6v100l125 21l455 1233q6 4 19 15t17.5 15t14.5 13.5t15 14.5t12.5 14.5t12.5 18.5t9 19h43l473 -1343l113 -21v-100l-209 10l-375 -10v102l201 19l-131 374h-365l-135 -374l203 -19v-102l-293 10zM336 1589q0 4 4 8q123 143 256 144q68 0 141.5 -51.5t126.5 -51.5 q37 0 61.5 11.5t78.5 60.5q0 -2 19 -19.5t37.5 -38t18.5 -30.5q0 -8 -4 -12q-70 -76 -125 -101.5t-123 -25.5q-82 0 -155.5 49t-120.5 49t-135 -82l-45 41q-35 35 -35 49zM477 616h271l-134 383z" />
<glyph unicode="&#xc4;" horiz-adv-x="1312" d="M0 -6v100l125 21l455 1233q6 4 19 15t17.5 15t14.5 13.5t15 14.5t12.5 14.5t12.5 18.5t9 19h43l473 -1343l113 -21v-100l-209 10l-375 -10v102l201 19l-131 374h-365l-135 -374l203 -19v-102l-293 10zM375 1595q0 51 37 91t90 40q55 0 93 -38.5t38 -92t-39 -91.5t-92 -38 q-51 0 -89 38t-38 91zM477 616h271l-134 383zM754 1595q0 51 36.5 91t90.5 40q55 0 93 -38.5t38 -92t-39 -91.5t-92 -38q-51 0 -89 38t-38 91z" />
<glyph unicode="&#xc5;" horiz-adv-x="1312" d="M0 -6v100l125 21l463 1257q-68 23 -109 83.5t-41 133.5q0 98 66.5 166t165.5 68q96 0 166.5 -68.5t70.5 -165.5q0 -72 -43 -130t-110 -83l442 -1261l113 -21v-100l-209 10l-375 -10v102l201 19l-131 374h-365l-135 -374l203 -19v-102l-293 10zM477 616h271l-134 383z M567 1589q0 -41 30 -70.5t73 -29.5t73.5 29.5t30.5 70.5q0 43 -30.5 73t-73.5 30t-73 -29t-30 -74z" />
<glyph unicode="&#xc6;" horiz-adv-x="1779" d="M-6 -6v100l90 21l598 1122l-129 18v101l383 -8l264 6h318l12 80h102v-93l13 -321h-105l-33 207h-436v-477h340l19 161h104v-454h-104l-19 168h-340v-410q0 -88 8 -100q4 -4 54 -4l307 10q27 0 57.5 4t49 7t20.5 5l24 197h105v-334h-584l-172 4l-369 -10v102l209 19v374 h-315l-199 -374l156 -21v-100l-229 10zM528 614h252v476z" />
<glyph unicode="&#xc7;" horiz-adv-x="1409" d="M135 670q0 289 200 498.5t509 209.5q82 0 142.5 -3t86 -6t72.5 -11t69 -12l13 65h102v-106l10 -326h-104q-16 174 -85 226t-280 52q-170 0 -298 -165.5t-128 -409.5q0 -236 135.5 -412t317.5 -176q86 0 158.5 12.5t106.5 25.5t38 26q18 37 37 250h102v-345 q-233 -90 -477 -90h-12l-31 -57q78 -14 139.5 -58t61.5 -110q0 -100 -77 -150.5t-169 -50.5q-129 0 -194 41q-6 2 -6.5 18.5t8.5 47.5q6 27 53 67q86 -37 123 -36q63 0 63 59q0 25 -13 38t-46 19t-59.5 7.5t-84.5 1.5l119 174q-260 39 -431 223t-171 463z" />
<glyph unicode="&#xc8;" horiz-adv-x="1302" d="M94 -6v102l207 19v1120l-188 18v103l342 -8l266 6h315l15 80h102v-93l12 -321h-102l-33 207h-438v-477h340l16 161h105v-454h-105l-16 168h-340v-437q0 -66 6 -73q4 -4 53 -4l307 10q29 0 60 4t49 7t18 5q8 8 29 197h100v-334h-583l-172 4zM383 1677q0 51 156 52l45 -3 l217 -272v-4q0 -25 -76 -25l-63 5z" />
<glyph unicode="&#xc9;" horiz-adv-x="1302" d="M94 -6v102l207 19v1120l-188 18v103l342 -8l266 6h315l15 80h102v-93l12 -321h-102l-33 207h-438v-477h340l16 161h105v-454h-105l-16 168h-340v-437q0 -66 6 -73q4 -4 53 -4l307 10q29 0 60 4t49 7t18 5q8 8 29 197h100v-334h-583l-172 4zM524 1452v4l211 258 q0 2 19.5 5t50.5 6.5t55 3.5q92 0 92 -27v-2l-288 -268q-37 -4 -64 -5q-76 0 -76 25z" />
<glyph unicode="&#xca;" horiz-adv-x="1302" d="M94 -6v102l207 19v1120l-188 18v103l342 -8l266 6h315l15 80h102v-93l12 -321h-102l-33 207h-438v-477h340l16 161h105v-454h-105l-16 168h-340v-437q0 -66 6 -73q4 -4 53 -4l307 10q29 0 60 4t49 7t18 5q8 8 29 197h100v-334h-583l-172 4zM358 1440v4l209 289 q68 10 123 10q43 0 64 -10l217 -289v-4q0 -25 -74 -25l-53 4l-182 150l-179 -150q-29 -4 -51 -4q-74 0 -74 25z" />
<glyph unicode="&#xcb;" horiz-adv-x="1302" d="M94 -6v102l207 19v1120l-188 18v103l342 -8l266 6h315l15 80h102v-93l12 -321h-102l-33 207h-438v-477h340l16 161h105v-454h-105l-16 168h-340v-437q0 -66 6 -73q4 -4 53 -4l307 10q29 0 60 4t49 7t18 5q8 8 29 197h100v-334h-583l-172 4zM350 1548q0 51 37 91t90 40 q55 0 93 -38.5t38 -92t-39 -91.5t-92 -38q-51 0 -89 38t-38 91zM729 1548q0 51 37 91t90 40q55 0 93 -38.5t38 -92t-39 -91.5t-92 -38q-51 0 -89 38t-38 91z" />
<glyph unicode="&#xcc;" horiz-adv-x="864" d="M88 -6v102l209 19v1120l-209 18v103l363 -8l348 8v-103l-211 -18v-1120l211 -19v-102l-348 10zM127 1677q0 51 156 52l45 -3l217 -272v-4q0 -25 -76 -25l-63 5z" />
<glyph unicode="&#xcd;" horiz-adv-x="864" d="M88 -6v102l209 19v1120l-209 18v103l363 -8l348 8v-103l-211 -18v-1120l211 -19v-102l-348 10zM358 1452v4l211 258q0 2 19.5 5t50.5 6.5t55 3.5q92 0 92 -27v-2l-288 -268q-37 -4 -64 -5q-76 0 -76 25z" />
<glyph unicode="&#xce;" horiz-adv-x="864" d="M88 -6v102l209 19v1120l-209 18v103l363 -8l348 8v-103l-211 -18v-1120l211 -19v-102l-348 10zM145 1440v4l209 289q68 10 123 10q43 0 64 -10l217 -289v-4q0 -25 -74 -25l-53 4l-182 150l-179 -150q-29 -4 -51 -4q-74 0 -74 25z" />
<glyph unicode="&#xcf;" horiz-adv-x="864" d="M88 -6v102l209 19v1120l-209 18v103l363 -8l348 8v-103l-211 -18v-1120l211 -19v-102l-348 10zM137 1548q0 51 37 91t90 40q55 0 93 -38.5t38 -92t-39 -91.5t-92 -38q-51 0 -89 38t-38 91zM516 1548q0 51 37 91t90 40q55 0 93 -38.5t38 -92t-39 -91.5t-92 -38 q-51 0 -89 38t-38 91z" />
<glyph unicode="&#xd0;" horiz-adv-x="1632" d="M20 647v107h285v471l-225 -6v102q229 23 371 31q66 4 385 4q156 0 277.5 -43t196 -110.5t123 -159t67 -179.5t18.5 -182q0 -86 -20.5 -175t-71 -182.5t-125 -164t-195.5 -116.5t-270 -46q-14 0 -361 6l-379 -10v102l209 19v532h-285zM598 258q0 -51 13.5 -83t45 -44 t57 -15t74.5 -3q186 0 302 158.5t116 410.5q0 94 -16 180t-55 177t-121 145.5t-199 54.5h-12l-205 -4v-481h295v-107h-295v-389z" />
<glyph unicode="&#xd1;" horiz-adv-x="1597" d="M92 1243v109h459l657 -940v825l-184 16v101l264 -4l250 6v-101l-170 -18v-1255h-203l-706 1036v-903l184 -21v-100l-262 10l-254 -10v100l174 21v1061q-27 27 -63 51q-23 16 -146 16zM430 1563q0 4 4 8q123 143 256 143q68 0 141.5 -51t126.5 -51q37 0 61.5 11t78.5 60 q0 -2 19.5 -19t38 -37.5t18.5 -31.5q0 -8 -5 -12q-70 -76 -125 -101.5t-122 -25.5q-82 0 -156 49t-121 49t-135 -81l-45 40q-35 36 -35 50z" />
<glyph unicode="&#xd2;" horiz-adv-x="1652" d="M152 674q0 182 78.5 339.5t241.5 261t380 103.5q322 0 510 -207.5t188 -494.5q0 -133 -47 -258t-132 -225.5t-220 -161t-299 -60.5q-217 0 -380 102.5t-241.5 259.5t-78.5 341zM461 676q0 -244 113.5 -414t275.5 -170t275.5 170t113.5 414t-113.5 412.5t-275.5 168.5 t-275.5 -169.5t-113.5 -411.5zM522 1677q0 51 156 52l45 -3l217 -272v-4q0 -25 -76 -25l-63 5z" />
<glyph unicode="&#xd3;" horiz-adv-x="1652" d="M152 674q0 182 78.5 339.5t241.5 261t380 103.5q322 0 510 -207.5t188 -494.5q0 -133 -47 -258t-132 -225.5t-220 -161t-299 -60.5q-217 0 -380 102.5t-241.5 259.5t-78.5 341zM461 676q0 -244 113.5 -414t275.5 -170t275.5 170t113.5 414t-113.5 412.5t-275.5 168.5 t-275.5 -169.5t-113.5 -411.5zM754 1452v4l211 258q0 2 19.5 5t50 6.5t55.5 3.5q92 0 92 -27v-2l-289 -268q-37 -4 -64 -5q-75 0 -75 25z" />
<glyph unicode="&#xd4;" horiz-adv-x="1652" d="M152 674q0 182 78.5 339.5t241.5 261t380 103.5q322 0 510 -207.5t188 -494.5q0 -133 -47 -258t-132 -225.5t-220 -161t-299 -60.5q-217 0 -380 102.5t-241.5 259.5t-78.5 341zM461 676q0 -244 113.5 -414t275.5 -170t275.5 170t113.5 414t-113.5 412.5t-275.5 168.5 t-275.5 -169.5t-113.5 -411.5zM547 1440v4l209 289q68 10 123 10q43 0 63 -10l217 -289v-4q0 -25 -74 -25l-53 4l-182 150l-178 -150q-29 -4 -51 -4q-74 0 -74 25z" />
<glyph unicode="&#xd5;" horiz-adv-x="1652" d="M152 674q0 182 78.5 339.5t241.5 261t380 103.5q322 0 510 -207.5t188 -494.5q0 -133 -47 -258t-132 -225.5t-220 -161t-299 -60.5q-217 0 -380 102.5t-241.5 259.5t-78.5 341zM461 676q0 -244 113.5 -414t275.5 -170t275.5 170t113.5 414t-113.5 412.5t-275.5 168.5 t-275.5 -169.5t-113.5 -411.5zM479 1563q0 4 4 8q123 143 256 143q68 0 141.5 -51t127.5 -51q37 0 61.5 11t77.5 60q0 -2 19.5 -19t38 -37.5t18.5 -31.5q0 -8 -4 -12q-70 -76 -125.5 -101.5t-122.5 -25.5q-82 0 -156 49t-121 49t-135 -81l-45 40q-35 36 -35 50z" />
<glyph unicode="&#xd6;" horiz-adv-x="1652" d="M152 674q0 182 78.5 339.5t241.5 261t380 103.5q322 0 510 -207.5t188 -494.5q0 -133 -47 -258t-132 -225.5t-220 -161t-299 -60.5q-217 0 -380 102.5t-241.5 259.5t-78.5 341zM461 676q0 -244 113.5 -414t275.5 -170t275.5 170t113.5 414t-113.5 412.5t-275.5 168.5 t-275.5 -169.5t-113.5 -411.5zM492 1548q0 51 36.5 91t89.5 40q55 0 93.5 -38.5t38.5 -92t-39 -91.5t-93 -38q-51 0 -88.5 38t-37.5 91zM963 1548q0 51 36.5 91t90.5 40q55 0 93 -38.5t38 -92t-39 -91.5t-92 -38q-51 0 -89 38t-38 91z" />
<glyph unicode="&#xd7;" horiz-adv-x="1024" d="M8 86l373 375l-373 373l129 131l375 -373l373 397l131 -153l-373 -375l373 -373l-129 -131l-375 373l-373 -373z" />
<glyph unicode="&#xd8;" horiz-adv-x="1652" d="M147 674q0 182 79 339.5t243 261t381 103.5q221 0 389 -108l154 180l120 -111l-147 -176q182 -199 182 -487q0 -180 -77.5 -338t-240.5 -262.5t-380 -104.5q-219 0 -393 111l-154 -180l-121 110l148 176q-183 201 -183 486zM459 676q0 -150 47 -279l600 715 q-106 145 -256 145q-164 0 -277.5 -169.5t-113.5 -411.5zM588 240q111 -147 262 -148q162 0 274.5 170t112.5 412q0 152 -47 280z" />
<glyph unicode="&#xd9;" horiz-adv-x="1556" d="M68 1253v103l321 -8l354 8v-103l-190 -18v-750q0 -186 96 -275t215 -89q121 0 227.5 92t106.5 274v750l-182 16v101l258 -4l254 6v-101l-172 -18v-760q0 -248 -133 -376t-392 -128q-246 0 -407.5 126t-161.5 327v809zM561 1677q0 51 156 52l45 -3l217 -272v-4 q0 -25 -76 -25l-63 5z" />
<glyph unicode="&#xda;" horiz-adv-x="1556" d="M68 1253v103l321 -8l354 8v-103l-190 -18v-750q0 -186 96 -275t215 -89q121 0 227.5 92t106.5 274v750l-182 16v101l258 -4l254 6v-101l-172 -18v-760q0 -248 -133 -376t-392 -128q-246 0 -407.5 126t-161.5 327v809zM772 1452v4l211 258q0 2 19.5 5t50 6.5t55.5 3.5 q92 0 92 -27v-2l-289 -268q-37 -4 -63 -5q-76 0 -76 25z" />
<glyph unicode="&#xdb;" horiz-adv-x="1556" d="M68 1253v103l321 -8l354 8v-103l-190 -18v-750q0 -186 96 -275t215 -89q121 0 227.5 92t106.5 274v750l-182 16v101l258 -4l254 6v-101l-172 -18v-760q0 -248 -133 -376t-392 -128q-246 0 -407.5 126t-161.5 327v809zM569 1440v4l209 289q68 10 123 10q43 0 64 -10 l217 -289v-4q0 -25 -74 -25l-53 4l-183 150l-178 -150q-29 -4 -51 -4q-74 0 -74 25z" />
<glyph unicode="&#xdc;" horiz-adv-x="1556" d="M68 1253v103l321 -8l354 8v-103l-190 -18v-750q0 -186 96 -275t215 -89q121 0 227.5 92t106.5 274v750l-182 16v101l258 -4l254 6v-101l-172 -18v-760q0 -248 -133 -376t-392 -128q-246 0 -407.5 126t-161.5 327v809zM446 1548q0 51 37 91t90 40q55 0 93.5 -38.5 t38.5 -92t-39 -91.5t-93 -38q-51 0 -89 38t-38 91zM989 1548q0 51 37 91t90 40q55 0 93 -38.5t38 -92t-39 -91.5t-92 -38q-51 0 -89 38t-38 91z" />
<glyph unicode="&#xdd;" horiz-adv-x="1284" d="M14 1255v101l267 -8l329 8v-101l-151 -18l276 -467l266 469l-143 16v101l254 -8l193 8v-101l-125 -16l-351 -621v-503l211 -19v-102l-364 10l-350 -10v102l211 19v450l-396 672zM629 1452v4l211 258q0 2 19.5 5t50 6.5t55.5 3.5q92 0 92 -27v-2l-289 -268q-37 -4 -63 -5 q-76 0 -76 25z" />
<glyph unicode="&#xde;" horiz-adv-x="1288" d="M92 -6v102l209 19v1120l-209 18v103l363 -8l348 8v-103l-209 -18v-133q76 2 178 2q217 0 342 -110.5t125 -297.5q0 -182 -146.5 -299.5t-365.5 -117.5q-27 0 -133 4v-168l209 -19v-102l-348 10zM594 395h76q92 0 175 78t83 223q0 133 -45 210t-162 77h-4l-123 -4v-584z " />
<glyph unicode="&#xdf;" horiz-adv-x="1187" d="M57 846v18q0 29 14.5 44.5t65.5 15.5h6q57 0 58 39q0 225 126 381.5t369 156.5q213 0 329 -83t116 -218q0 -59 -45 -119.5t-100.5 -103.5t-100.5 -97.5t-45 -99.5q0 -59 20.5 -87.5t112.5 -98.5q121 -92 164 -155.5t43 -176.5q0 -131 -97.5 -210t-265.5 -79 q-27 0 -80 10.5t-73 10.5h-37q-8 0 -35 -4v252h94q0 -150 119 -150q47 0 82 37t35 98q0 23 -7 43.5t-15.5 34.5t-32 35.5t-39 34t-55.5 42t-62 46.5q-102 78 -125 113.5t-23 99.5q0 39 6.5 67.5t27 57t30.5 41t47 46.5t49 44q78 74 101.5 109.5t23.5 95.5q0 129 -51 233 q-10 2 -39 2q-115 0 -152 -12q-18 -4 -47.5 -48t-59.5 -145.5t-30 -226.5v-948h-407v108l133 17v678l-142 -13q-6 31 -6 64z" />
<glyph unicode="&#xe0;" horiz-adv-x="942" d="M68 193q0 98 32 145q4 10 82 44t148 56q49 14 86 22.5t76.5 13.5t56.5 9v215q0 117 -10 121q-16 8 -76 8q-96 0 -96 -10q-6 -35 -7 -84q0 -8 1 -25.5t1 -23.5l-256 -37q-8 43 -8 78q0 37 11 57q20 43 141 106.5t244 63.5q137 0 234 -63.5t97 -165.5v-551q0 -27 7.5 -37 t31.5 -10h86v-92q-195 -43 -284 -51h-21q-59 0 -74 61q-8 25 -8 41q-92 -111 -239 -111q-117 0 -186.5 55.5t-69.5 164.5zM168 1520q0 2 1 6t9 14t23.5 17.5t49.5 13.5t79 6l47 -2l213 -479v-4q0 -27 -78 -27l-68 4zM344 258q0 -55 18.5 -95t53.5 -40q78 0 133 74v184 q-72 -14 -96 -21q-39 -10 -101 -32q-8 -41 -8 -70z" />
<glyph unicode="&#xe1;" horiz-adv-x="942" d="M68 193q0 98 32 145q4 10 82 44t148 56q49 14 86 22.5t76.5 13.5t56.5 9v215q0 117 -10 121q-16 8 -76 8q-96 0 -96 -10q-6 -35 -7 -84q0 -8 1 -25.5t1 -23.5l-256 -37q-8 43 -8 78q0 37 11 57q20 43 141 106.5t244 63.5q137 0 234 -63.5t97 -165.5v-551q0 -27 7.5 -37 t31.5 -10h86v-92q-195 -43 -284 -51h-21q-59 0 -74 61q-8 25 -8 41q-92 -111 -239 -111q-117 0 -186.5 55.5t-69.5 164.5zM344 258q0 -55 18.5 -95t53.5 -40q78 0 133 74v184q-72 -14 -96 -21q-39 -10 -101 -32q-8 -41 -8 -70zM375 1090v4l227 465q0 2 19.5 5t51.5 7t58 4 q96 0 96 -29v-2l-307 -477q-39 -4 -65 -4q-80 0 -80 27z" />
<glyph unicode="&#xe2;" horiz-adv-x="942" d="M68 193q0 98 32 145q4 10 82 44t148 56q49 14 86 22.5t76.5 13.5t56.5 9v215q0 117 -10 121q-16 8 -76 8q-96 0 -96 -10q-6 -35 -7 -84q0 -8 1 -25.5t1 -23.5l-256 -37q-8 43 -8 78q0 37 11 57q20 43 141 106.5t244 63.5q137 0 234 -63.5t97 -165.5v-551q0 -27 7.5 -37 t31.5 -10h86v-92q-195 -43 -284 -51h-21q-59 0 -74 61q-8 25 -8 41q-92 -111 -239 -111q-117 0 -186.5 55.5t-69.5 164.5zM231 1081v4l213 480q35 10 68 10q27 0 47 -10l215 -480v-4q0 -27 -78 -26l-55 4l-139 239l-140 -237q-31 -6 -55 -6t-50 7t-26 19zM344 258 q0 -55 18.5 -95t53.5 -40q78 0 133 74v184q-72 -14 -96 -21q-39 -10 -101 -32q-8 -41 -8 -70z" />
<glyph unicode="&#xe3;" horiz-adv-x="942" d="M68 193q0 98 32 145q4 10 82 44t148 56q49 14 86 22.5t76.5 13.5t56.5 9v215q0 117 -10 121q-16 8 -76 8q-96 0 -96 -10q-6 -35 -7 -84q0 -8 1 -25.5t1 -23.5l-256 -37q-8 43 -8 78q0 37 11 57q20 43 141 106.5t244 63.5q137 0 234 -63.5t97 -165.5v-551q0 -27 7.5 -37 t31.5 -10h86v-92q-195 -43 -284 -51h-21q-59 0 -74 61q-8 25 -8 41q-92 -111 -239 -111q-117 0 -186.5 55.5t-69.5 164.5zM102 1176q0 6 4 10q129 156 269 155q70 0 146.5 -56t133.5 -56q39 0 64.5 13t79.5 67l41 -39q39 -39 39 -56q0 -10 -7 -16q-70 -82 -128 -110.5 t-130 -28.5q-84 0 -160.5 54t-125.5 54q-47 0 -144 -90l-41 45q-41 44 -41 54zM344 258q0 -55 18.5 -95t53.5 -40q78 0 133 74v184q-72 -14 -96 -21q-39 -10 -101 -32q-8 -41 -8 -70z" />
<glyph unicode="&#xe4;" horiz-adv-x="942" d="M68 193q0 98 32 145q4 10 82 44t148 56q49 14 86 22.5t76.5 13.5t56.5 9v215q0 117 -10 121q-16 8 -76 8q-96 0 -96 -10q-6 -35 -7 -84q0 -8 1 -25.5t1 -23.5l-256 -37q-8 43 -8 78q0 37 11 57q20 43 141 106.5t244 63.5q137 0 234 -63.5t97 -165.5v-551q0 -27 7.5 -37 t31.5 -10h86v-92q-195 -43 -284 -51h-21q-59 0 -74 61q-8 25 -8 41q-92 -111 -239 -111q-117 0 -186.5 55.5t-69.5 164.5zM164 1190q0 57 38 100t95 43t96 -42t39 -101q0 -57 -40 -97t-95 -40q-57 0 -95 40t-38 97zM344 258q0 -55 18.5 -95t53.5 -40q78 0 133 74v184 q-72 -14 -96 -21q-39 -10 -101 -32q-8 -41 -8 -70zM557 1190q0 57 38 100t95.5 43t96 -42t38.5 -101q0 -57 -40 -97t-95 -40q-57 0 -95 40t-38 97z" />
<glyph unicode="&#xe5;" horiz-adv-x="942" d="M68 193q0 98 32 145q4 10 82 44t148 56q49 14 86 22.5t76.5 13.5t56.5 9v215q0 117 -10 121q-16 8 -76 8q-96 0 -96 -10q-6 -35 -7 -84q0 -8 1 -25.5t1 -23.5l-256 -37q-8 43 -8 78q0 37 11 57q20 43 141 106.5t244 63.5q137 0 234 -63.5t97 -165.5v-551q0 -27 7.5 -37 t31.5 -10h86v-92q-195 -43 -284 -51h-21q-59 0 -74 61q-8 25 -8 41q-92 -111 -239 -111q-117 0 -186.5 55.5t-69.5 164.5zM244 1259.5q0 106.5 69.5 180t170 73.5t175 -74.5t74.5 -179t-74.5 -178t-175 -73.5t-170 72.5t-69.5 179zM344 258q0 -55 18.5 -95t53.5 -40 q78 0 133 74v184q-72 -14 -96 -21q-39 -10 -101 -32q-8 -41 -8 -70zM379 1260q0 -45 30.5 -78t73.5 -33q45 0 78 32.5t33 78.5q0 47 -33 78.5t-78 31.5q-43 0 -73.5 -31.5t-30.5 -78.5z" />
<glyph unicode="&#xe6;" horiz-adv-x="1396" d="M68 193q0 92 32 145q6 8 81 39t149 53q61 18 125.5 32.5t93.5 22.5v213q0 117 -10 121q-16 8 -82 8q-90 0 -90 -10q-6 -35 -7 -80q0 -8 1 -25.5t1 -27.5l-256 -37q-8 43 -8 80q0 35 11 55q23 45 142.5 107.5t242.5 62.5q147 0 241 -69q104 66 232 65q199 0 299 -82 t100 -235q0 -35 -6 -76l-535 -119q0 -4 -1 -11t-1 -9q0 -8 3 -15.5t3 -13.5q6 -121 62.5 -198.5t148.5 -77.5q178 0 291 102l55 -88q-156 -143 -393 -143q-213 0 -338 129q-143 -137 -331 -138q-119 0 -187.5 54.5t-68.5 165.5zM344 256q0 -133 72 -133q53 0 133 49v213 q-12 -4 -45 -13.5t-51 -13.5q-55 -14 -101 -30q-8 -45 -8 -72zM829 545h5q12 0 61 12q53 14 111.5 24.5t78.5 14.5q2 20 2 57q0 168 -96 168q-74 0 -88 -6q-10 -6 -26.5 -42t-32 -100.5t-15.5 -127.5z" />
<glyph unicode="&#xe7;" horiz-adv-x="931" d="M84 471q0 215 128 347t337 132q154 0 253 -39t99 -110q0 -59 -33 -125l-241 -21q2 12 2 47q0 49 -6 117q-20 2 -45 2q-96 0 -109 -6q-29 -27 -58.5 -122t-29.5 -216q0 -174 66.5 -270t142.5 -96h14q139 0 254 114l68 -92q-72 -66 -144.5 -103.5t-177.5 -43.5l-43 -78 q82 -16 137.5 -62.5t55.5 -119.5q0 -109 -82 -163.5t-185 -54.5q-139 0 -217 43q-6 0 -6 17q0 23 10 55q4 12 18.5 31.5t26.5 32.5l15 12q98 -43 133 -43q72 0 72 65q0 49 -51.5 60.5t-172.5 11.5l119 199q-168 35 -259 160.5t-91 318.5z" />
<glyph unicode="&#xe8;" horiz-adv-x="958" d="M84 453q0 221 122 358t318 137q397 0 398 -317q0 -72 -4 -113h-535q-2 -37 -2 -55q0 -147 52 -249.5t165 -102.5q176 0 289 102l57 -88q-160 -143 -393 -143q-211 0 -339 128t-128 343zM197 1520q0 2 1 6t9 14t23.5 17.5t49 13.5t78.5 6l48 -2l212 -479v-4q0 -27 -77 -27 l-68 4zM393 625h90q111 0 158 10q2 14 2 41q0 63 -23.5 104t-70.5 41q-74 0 -90 -6q-12 -8 -35 -70.5t-31 -119.5z" />
<glyph unicode="&#xe9;" horiz-adv-x="958" d="M84 453q0 221 122 358t318 137q397 0 398 -317q0 -72 -4 -113h-535q-2 -37 -2 -55q0 -147 52 -249.5t165 -102.5q176 0 289 102l57 -88q-160 -143 -393 -143q-211 0 -339 128t-128 343zM393 625h90q111 0 158 10q2 14 2 41q0 63 -23.5 104t-70.5 41q-74 0 -90 -6 q-12 -8 -35 -70.5t-31 -119.5zM442 1090v4l228 465q0 2 19.5 5t51 7t58.5 4q96 0 96 -29v-2l-307 -477q-39 -4 -66 -4q-80 0 -80 27z" />
<glyph unicode="&#xea;" horiz-adv-x="958" d="M84 453q0 221 122 358t318 137q397 0 398 -317q0 -72 -4 -113h-535q-2 -37 -2 -55q0 -147 52 -249.5t165 -102.5q176 0 289 102l57 -88q-160 -143 -393 -143q-211 0 -339 128t-128 343zM254 1081v4l213 480q35 10 68 10q27 0 47 -10l215 -480v-4q0 -27 -78 -26l-55 4 l-140 239l-139 -237q-31 -6 -55.5 -6t-50 7t-25.5 19zM393 625h90q111 0 158 10q2 14 2 41q0 63 -23.5 104t-70.5 41q-74 0 -90 -6q-12 -8 -35 -70.5t-31 -119.5z" />
<glyph unicode="&#xeb;" horiz-adv-x="958" d="M84 453q0 221 122 358t318 137q397 0 398 -317q0 -72 -4 -113h-535q-2 -37 -2 -55q0 -147 52 -249.5t165 -102.5q176 0 289 102l57 -88q-160 -143 -393 -143q-211 0 -339 128t-128 343zM197 1190q0 57 37.5 100t95 43t96.5 -42t39 -101q0 -57 -40 -97t-95 -40 q-57 0 -95 40t-38 97zM393 625h90q111 0 158 10q2 14 2 41q0 63 -23.5 104t-70.5 41q-74 0 -90 -6q-12 -8 -35 -70.5t-31 -119.5zM590 1190q0 57 38 100t95 43t96 -42t39 -101q0 -57 -40 -97t-95 -40q-57 0 -95 40t-38 97z" />
<glyph unicode="&#xec;" horiz-adv-x="624" d="M2 1520q0 2 1 6t9 14t23.5 17.5t49.5 13.5t79 6l47 -2l213 -479v-4q0 -27 -78 -27l-67 4zM51 786v107q322 37 428 68v-842l127 -21v-106l-258 14l-276 -14v104l133 21v678z" />
<glyph unicode="&#xed;" horiz-adv-x="624" d="M51 786v107q322 37 428 68v-842l127 -21v-106l-258 14l-276 -14v104l133 21v678zM229 1090v4l228 465q0 2 19.5 5t51 7t58.5 4q96 0 96 -29v-2l-307 -477q-39 -4 -66 -4q-80 0 -80 27z" />
<glyph unicode="&#xee;" horiz-adv-x="624" d="M51 786v107q322 37 428 68v-842l127 -21v-106l-258 14l-276 -14v104l133 21v678zM57 1081v4l213 480q35 10 68 10q27 0 47 -10l215 -480v-4q0 -27 -78 -26l-55 4l-139 239l-140 -237q-31 -6 -55 -6t-50 7t-26 19z" />
<glyph unicode="&#xef;" horiz-adv-x="624" d="M-4 1190q0 57 38 100t95 43t96 -42t39 -101q0 -57 -40 -97t-95 -40q-57 0 -95 40t-38 97zM51 786v107q322 37 428 68v-842l127 -21v-106l-258 14l-276 -14v104l133 21v678zM367 1190q0 57 37.5 100t95 43t96.5 -42t39 -101q0 -57 -40 -97t-95 -40q-57 0 -95 40t-38 97z " />
<glyph unicode="&#xf0;" horiz-adv-x="1095" d="M98 483q0 180 102.5 324.5t252.5 144.5h77q102 0 179 -39q-10 104 -66 181l-162 -107l-75 131l157 103q-63 70 -122.5 107.5t-157.5 57.5l43 130q145 -33 236 -71t169 -114l180 121l76 -131l-170 -113q78 -82 140.5 -218t62.5 -275q0 -346 -117 -545t-352 -199 q-213 0 -333 135t-120 377zM391 477q0 -367 152 -366q98 0 135 136t37 478v68q-111 8 -121 8q-100 0 -151.5 -94.5t-51.5 -229.5z" />
<glyph unicode="&#xf1;" horiz-adv-x="1200" d="M66 786v107q260 31 391 68l16 -113q43 47 123 75.5t147 28.5q326 0 347 -254q10 -137 10 -241q0 -170 -19 -338l107 -21v-106l-246 14l-264 -14v104l127 21q20 68 20 372q0 252 -39 308q-18 18 -81 18q-61 0 -103 -10q-80 -70 -108 -100v-586l127 -21v-106l-259 14 l-276 -14v104l131 21v678zM238 1176q0 6 4 10q129 156 268 155q70 0 146.5 -56t134.5 -56q39 0 64.5 13t78.5 67l41 -39q39 -39 39 -56q0 -10 -6 -16q-70 -82 -128.5 -110.5t-129.5 -28.5q-84 0 -161 54t-126 54q-47 0 -144 -90l-40 45q-41 44 -41 54z" />
<glyph unicode="&#xf2;" horiz-adv-x="1105" d="M88 463q0 98 26.5 183t81 155.5t150.5 111.5t225 41q236 0 364 -136t128 -355q0 -215 -123 -352.5t-367 -137.5q-233 0 -359 136.5t-126 353.5zM246 1520q0 2 1 6t9 14t23.5 17.5t49 13.5t79.5 6l47 -2l213 -479v-4q0 -27 -78 -27l-68 4zM383 485q0 -172 53 -276.5 t137 -104.5q94 0 115 27q10 10 27.5 51t35 116t17.5 146q0 31 -2 45q-29 336 -197 336q-82 0 -110 -28q-18 -18 -47 -115t-29 -197z" />
<glyph unicode="&#xf3;" horiz-adv-x="1105" d="M88 463q0 98 26.5 183t81 155.5t150.5 111.5t225 41q236 0 364 -136t128 -355q0 -215 -123 -352.5t-367 -137.5q-233 0 -359 136.5t-126 353.5zM383 485q0 -172 53 -276.5t137 -104.5q94 0 115 27q10 10 27.5 51t35 116t17.5 146q0 31 -2 45q-29 336 -197 336 q-82 0 -110 -28q-18 -18 -47 -115t-29 -197zM473 1090v4l227 465q0 2 19.5 5t51.5 7t58 4q96 0 97 -29v-2l-308 -477q-39 -4 -65 -4q-80 0 -80 27z" />
<glyph unicode="&#xf4;" horiz-adv-x="1105" d="M88 463q0 98 26.5 183t81 155.5t150.5 111.5t225 41q236 0 364 -136t128 -355q0 -215 -123 -352.5t-367 -137.5q-233 0 -359 136.5t-126 353.5zM303 1081v4l213 480q35 10 68 10q27 0 47 -10l215 -480v-4q0 -27 -78 -26l-55 4l-140 239l-139 -237q-31 -6 -55.5 -6t-50 7 t-25.5 19zM383 485q0 -172 53 -276.5t137 -104.5q94 0 115 27q10 10 27.5 51t35 116t17.5 146q0 31 -2 45q-29 336 -197 336q-82 0 -110 -28q-18 -18 -47 -115t-29 -197z" />
<glyph unicode="&#xf5;" horiz-adv-x="1105" d="M88 463q0 98 26.5 183t81 155.5t150.5 111.5t225 41q236 0 364 -136t128 -355q0 -215 -123 -352.5t-367 -137.5q-233 0 -359 136.5t-126 353.5zM193 1176q0 6 4 10q129 156 268 155q70 0 146.5 -56t133.5 -56q39 0 65 13t79 67l41 -39q39 -39 39 -56q0 -10 -6 -16 q-70 -82 -128.5 -110.5t-129.5 -28.5q-84 0 -161 54t-126 54q-47 0 -144 -90l-41 45q-40 44 -40 54zM383 485q0 -172 53 -276.5t137 -104.5q94 0 115 27q10 10 27.5 51t35 116t17.5 146q0 31 -2 45q-29 336 -197 336q-82 0 -110 -28q-18 -18 -47 -115t-29 -197z" />
<glyph unicode="&#xf6;" horiz-adv-x="1105" d="M88 463q0 98 26.5 183t81 155.5t150.5 111.5t225 41q236 0 364 -136t128 -355q0 -215 -123 -352.5t-367 -137.5q-233 0 -359 136.5t-126 353.5zM256 1190q0 57 38 100t95 43t96 -42t39 -101q0 -57 -40 -97t-95 -40q-57 0 -95 40t-38 97zM383 485q0 -172 53 -276.5 t137 -104.5q94 0 115 27q10 10 27.5 51t35 116t17.5 146q0 31 -2 45q-29 336 -197 336q-82 0 -110 -28q-18 -18 -47 -115t-29 -197zM649 1190q0 57 38 100t95.5 43t96.5 -42t39 -101q0 -57 -40 -97t-96 -40q-57 0 -95 40t-38 97z" />
<glyph unicode="&#xf7;" horiz-adv-x="1024" d="M45 369v184h934v-184h-934zM358 127q0 66 45.5 111t108.5 45t107.5 -45t44.5 -111v2q0 -63 -45.5 -109.5t-106.5 -46.5q-63 0 -108.5 45.5t-45.5 108.5zM358 793q0 66 45.5 110.5t108.5 44.5t107.5 -45t44.5 -108.5t-45.5 -109.5t-106.5 -46q-63 0 -108.5 45.5 t-45.5 108.5z" />
<glyph unicode="&#xf8;" horiz-adv-x="1105" d="M37 -102l172 219q-121 131 -121 346q0 98 26.5 183t81 155.5t150.5 111.5t225 41q145 0 252 -53l178 225l111 -86l-176 -223q127 -137 127 -354q0 -215 -123 -352.5t-367 -137.5q-145 0 -254 58l-172 -221zM383 485q0 -53 12 -131l307 391q-49 80 -133 80q-82 0 -110 -28 q-18 -18 -47 -115t-29 -197zM444 188q49 -84 129 -84q94 0 115 27q10 10 27.5 51t35 116t17.5 146q0 31 -2 45q-4 33 -12 95z" />
<glyph unicode="&#xf9;" horiz-adv-x="1181" d="M41 786v105q299 43 428 70v-707q0 -82 19.5 -111.5t70.5 -29.5q84 0 98 10q37 25 109 96v576l-150 -9v107q303 37 428 68v-799q0 -25 6.5 -31t30.5 -6h88v-94q-150 -16 -368 -58l-25 109q-63 -66 -120.5 -87.5t-149.5 -21.5q-174 0 -243.5 80t-69.5 254v488zM297 1520 q0 2 1 6t9 14t23.5 17.5t49.5 13.5t79 6l47 -2l213 -479v-4q0 -27 -78 -27l-68 4z" />
<glyph unicode="&#xfa;" horiz-adv-x="1181" d="M41 786v105q299 43 428 70v-707q0 -82 19.5 -111.5t70.5 -29.5q84 0 98 10q37 25 109 96v576l-150 -9v107q303 37 428 68v-799q0 -25 6.5 -31t30.5 -6h88v-94q-150 -16 -368 -58l-25 109q-63 -66 -120.5 -87.5t-149.5 -21.5q-174 0 -243.5 80t-69.5 254v488zM516 1090v4 l227 465q0 2 19.5 5t51.5 7t58 4q96 0 97 -29v-2l-307 -477q-39 -4 -66 -4q-80 0 -80 27z" />
<glyph unicode="&#xfb;" horiz-adv-x="1181" d="M41 786v105q299 43 428 70v-707q0 -82 19.5 -111.5t70.5 -29.5q84 0 98 10q37 25 109 96v576l-150 -9v107q303 37 428 68v-799q0 -25 6.5 -31t30.5 -6h88v-94q-150 -16 -368 -58l-25 109q-63 -66 -120.5 -87.5t-149.5 -21.5q-174 0 -243.5 80t-69.5 254v488zM334 1081v4 l213 480q35 10 67 10q27 0 48 -10l215 -480v-4q0 -27 -78 -26l-56 4l-139 239l-139 -237q-31 -6 -55.5 -6t-50 7t-25.5 19z" />
<glyph unicode="&#xfc;" horiz-adv-x="1181" d="M41 786v105q299 43 428 70v-707q0 -82 19.5 -111.5t70.5 -29.5q84 0 98 10q37 25 109 96v576l-150 -9v107q303 37 428 68v-799q0 -25 6.5 -31t30.5 -6h88v-94q-150 -16 -368 -58l-25 109q-63 -66 -120.5 -87.5t-149.5 -21.5q-174 0 -243.5 80t-69.5 254v488zM240 1190 q0 57 37.5 100t95 43t96.5 -42t39 -101q0 -57 -40 -97t-95 -40q-57 0 -95 40t-38 97zM709 1190q0 57 37.5 100t95 43t96.5 -42t39 -101q0 -57 -40 -97t-95 -40q-57 0 -95 40t-38 97z" />
<glyph unicode="&#xfd;" horiz-adv-x="970" d="M0 831v107l236 -12l253 12v-107l-100 -12l189 -514l174 516l-123 10v107l170 -12l182 12v-107l-96 -6l-445 -1243l125 -20v-101l-231 11l-201 -11v103l152 18q59 82 98 189q43 121 57 166l-340 884zM434 1081v4l228 465q0 2 19 5.5t51 7.5t59 4q96 0 96 -29v-2l-307 -477 q-39 -4 -66 -4q-80 -1 -80 26z" />
<glyph unicode="&#xfe;" horiz-adv-x="1196" d="M16 1350v106q328 31 476 68v-662q98 90 256 90q199 0 295 -114.5t96 -370.5q0 -227 -132.5 -364.5t-381.5 -139.5q-76 0 -133 23v-389l196 -27v-105l-321 11l-283 -11v103l133 24v1766zM492 276q0 -117 24.5 -148.5t108.5 -31.5q88 0 138 54.5t63.5 129t13.5 193.5 q0 260 -70 330q-12 12 -63 12q-86 0 -107 -10q-45 -31 -108 -107v-422z" />
<glyph unicode="&#xff;" horiz-adv-x="970" d="M0 831v107l236 -12l253 12v-107l-100 -12l189 -514l174 516l-123 10v107l170 -12l182 12v-107l-96 -6l-445 -1243l125 -20v-101l-231 11l-201 -11v103l152 18q59 82 98 189q43 121 57 166l-340 884zM158 1192q0 57 37.5 100t95 43t96.5 -42t39 -101q0 -57 -40 -97 t-95 -40q-57 0 -95 40t-38 97zM604 1192q0 57 38 100t95.5 43t96 -42t38.5 -101q0 -57 -39.5 -97t-95.5 -40q-57 0 -95 40t-38 97z" />
<glyph unicode="&#x152;" horiz-adv-x="2078" d="M152 674q0 182 78.5 339.5t241.5 261t380 103.5q76 0 172 -15t168 -15q25 0 305 6h315l15 80h104v-93l13 -321h-105l-33 207h-438v-477h342l16 161h105v-454h-105l-16 168h-342v-410q0 -88 8 -100q4 -4 54 -4l307 10q27 0 57.5 4t50 7t19.5 5l26 197h103v-334h-584 q-180 4 -197 4q-72 0 -179 -16.5t-181 -16.5q-217 0 -380 102.5t-241.5 259.5t-78.5 341zM461 676q0 -244 113.5 -414t275.5 -170q156 0 229 47v1075q-72 43 -229 43q-162 0 -275.5 -169.5t-113.5 -411.5z" />
<glyph unicode="&#x153;" horiz-adv-x="1617" d="M88 463q0 213 111.5 352t359.5 139q119 0 194.5 -36.5t133.5 -137.5q96 168 319 168q180 0 278.5 -83t98.5 -234q0 -72 -4 -113h-537q-2 -37 -2 -55q0 -147 52.5 -249.5t167.5 -102.5q176 0 288 102l56 -88q-68 -59 -166.5 -101t-202.5 -42q-119 0 -207 32.5t-137 128.5 q-70 -104 -138.5 -137t-191.5 -33q-231 0 -352 135.5t-121 354.5zM381 481q0 -98 24.5 -192t63.5 -139q37 -45 92 -46q82 0 101 27q8 8 26.5 50t35.5 117t17 146q0 31 -2 45.5t-4 49t-4 50t-5 43t-7 44.5l-9 37q-5 20 -13.5 35.5t-18.5 27.5q-41 49 -123 49q-68 0 -96 -28 q-18 -20 -48 -118t-30 -198zM1055 625h88q115 0 160 10q2 14 2 41q0 63 -24 104t-71 41q-78 0 -90 -6q-12 -10 -34.5 -71.5t-30.5 -118.5z" />
<glyph unicode="&#x178;" horiz-adv-x="1284" d="M14 1255v101l267 -8l329 8v-101l-151 -18l276 -467l266 469l-143 16v101l254 -8l193 8v-101l-125 -16l-351 -621v-503l211 -19v-102l-364 10l-350 -10v102l211 19v450l-396 672zM305 1548q0 51 37 91t90 40q55 0 93 -38.5t38 -92t-39 -91.5t-92 -38q-51 0 -89 38t-38 91z M803 1548q0 51 37 91t90 40q55 0 93 -38.5t38 -92t-39 -91.5t-92 -38q-51 0 -89 38t-38 91z" />
<glyph unicode="&#x2c6;" horiz-adv-x="901" d="M164 1081v4l215 480q35 10 67 10q27 0 48 -10l215 -480v-4q0 -27 -78 -26l-56 4l-141 239l-137 -237q-33 -6 -57 -6q-76 -1 -76 26z" />
<glyph unicode="&#x2dc;" horiz-adv-x="901" d="M41 1176q0 6 4 10q129 156 266 155q70 0 148 -56t133 -56q41 0 66.5 13t78.5 67l41 -39q39 -41 39 -58q0 -8 -6 -14q-70 -82 -128 -110.5t-130 -28.5q-84 0 -161 54t-126 54q-51 0 -143 -90q-82 83 -82 99z" />
<glyph unicode="&#x2013;" horiz-adv-x="1024" d="M0 369v184h1024v-184h-1024z" />
<glyph unicode="&#x2014;" horiz-adv-x="2048" d="M0 369v184h2048v-184h-2048z" />
<glyph unicode="&#x2018;" d="M66 1053q0 119 68.5 245.5t164.5 225.5l123 -82q-115 -131 -115 -287q0 -27 139 -70q-68 -211 -194 -211q-88 0 -137 55.5t-49 123.5z" />
<glyph unicode="&#x2019;" d="M66 1292q68 211 192 211q88 0 137 -56t49 -124q0 -119 -68.5 -246t-166.5 -223l-123 82q119 129 119 285q0 28 -139 71z" />
<glyph unicode="&#x201a;" d="M66 111q68 209 192 208q88 0 138 -56t50 -122q0 -119 -68.5 -245.5t-166.5 -225.5l-125 82q119 129 119 287q0 29 -139 72z" />
<glyph unicode="&#x201c;" horiz-adv-x="948" d="M66 1049q0 119 68.5 246.5t164.5 226.5l123 -82q-115 -131 -115 -287q0 -27 137 -70q-68 -211 -194 -211q-86 0 -135 55.5t-49 121.5zM502 1049q0 121 67.5 247.5t163.5 225.5l123 -82q-115 -131 -115 -287q0 -27 140 -70q-68 -211 -195 -211q-88 0 -136 55.5t-48 121.5z " />
<glyph unicode="&#x201d;" horiz-adv-x="948" d="M66 1292q68 211 192 211q90 0 139 -56t49 -124q0 -117 -68.5 -244t-166.5 -225l-125 82q119 129 119 285q0 28 -139 71zM502 1292q68 211 192 211q88 0 137.5 -56t49.5 -124q0 -119 -69 -246t-167 -223l-123 82q119 129 119 285q0 28 -139 71z" />
<glyph unicode="&#x201e;" horiz-adv-x="948" d="M66 113q68 211 192 211q90 0 139 -56.5t49 -124.5q0 -117 -68.5 -243.5t-166.5 -225.5l-125 82q119 129 119 285q0 29 -139 72zM502 113q68 211 192 211q88 0 137.5 -56.5t49.5 -124.5q0 -119 -69 -245.5t-167 -223.5l-123 82q119 129 119 285q0 29 -139 72z" />
<glyph unicode="&#x2022;" horiz-adv-x="878" d="M70 452.5q0 153.5 108.5 261t259.5 107.5q154 0 262.5 -107.5t108.5 -261t-108.5 -261t-260.5 -107.5q-154 0 -262 107.5t-108 261z" />
<glyph unicode="&#x2026;" horiz-adv-x="1921" d="M172 147.5q0 71.5 52 120.5t122 49t122 -49t52 -118q0 -74 -52 -125.5t-122 -51.5t-122 51.5t-52 123zM786 147.5q0 71.5 52.5 120.5t122 49t122 -49t52.5 -118q0 -74 -52.5 -125.5t-122 -51.5t-122 51.5t-52.5 123zM1401 147.5q0 71.5 52 120.5t122 49t122 -49t52 -118 q0 -74 -52 -125.5t-122 -51.5t-122 51.5t-52 123z" />
<glyph unicode="&#x2039;" horiz-adv-x="636" d="M63 451l140 114q41 35 178 172q2 2 23.5 24.5t35 36t31.5 26t30.5 12.5t26 -6.5t20.5 -12.5t22.5 -20.5t19.5 -16.5q-35 -66 -60 -106q-4 -8 -57 -95t-84 -128q18 -23 33 -45q53 -90 106 -173l62 -110q-4 -4 -19 -17l-21 -18q-7 -6 -21.5 -12t-26.5 -6q-27 0 -62 34 q-156 160 -237 232z" />
<glyph unicode="&#x203a;" horiz-adv-x="636" d="M80 123q37 66 63 110q68 106 103 170q25 37 37 48q-37 43 -142 223l-61 106q4 4 18.5 16.5t22.5 19.5t21.5 13.5t23.5 6.5q33 0 123 -99q121 -125 178 -172l137 -114q-129 -106 -137 -115q-31 -25 -64.5 -55.5t-56 -54t-60.5 -62.5t-59 -60q-35 -35 -61 -34 q-12 0 -24.5 6t-20.5 12t-22.5 19.5t-18.5 15.5z" />
<glyph unicode="&#x20ac;" horiz-adv-x="1409" d="M-51 516q0 70 22 96q4 4 105 4q35 0 46 14.5t13 43.5q0 27 4 80l-157 -11q-2 12 -2 29q0 72 22 98q4 6 104 7q51 0 68 32q72 207 251 338t419 131q82 0 142.5 -3t86 -6t72.5 -11t69 -12l13 65h102v-106l10 -326h-104q-16 174 -85 226t-280 52q-131 0 -242.5 -104 t-156.5 -272h694l-12 -129h-707q-2 -23 -2 -70q0 -39 2 -57h707l-10 -131h-672q49 -174 167 -287t259 -113q86 0 158.5 12.5t106.5 25.5t38 26q18 37 37 250h102v-345q-233 -90 -477 -90q-260 0 -456.5 141.5t-251.5 385.5h-31l-172 -13q-2 13 -2 29z" />
<glyph unicode="&#x2122;" horiz-adv-x="2342" d="M90 1059l31 280l2 62h98l6 -60q100 -2 346 0t293 2l6 58h99v-340l-99 -2l-20 182h-205v-604l150 -14v-86l-256 12l-265 -12v86l152 14v604h-141q-49 0 -66 -57q-4 -14 -10 -37t-14.5 -49.5t-12.5 -38.5h-94zM1081 537v86l123 14l25 612l-135 11v88l204 -7l103 7l225 -494 l238 496l108 -9l226 7v-88l-142 -11l23 -612l135 -14v-84l-227 10l-250 -12v86l135 14l-12 393l-261 -514l-251 510l-17 -389l129 -14v-86l-172 12z" />
<glyph unicode="&#xe000;" horiz-adv-x="935" d="M0 935h935v-935h-935v935z" />
<glyph unicode="&#xfb01;" horiz-adv-x="1269" d="M59 846q0 45 11 65q4 12 53 13h8q70 0 70 39q0 229 126 388.5t369 159.5q188 0 298 -43t110 -106q0 -123 -37 -178l-240 -23q0 188 -6 219q-10 2 -45 2q-129 0 -160 -10q-25 -12 -50 -37.5t-56 -115t-31 -218.5v-75h158q369 0 489 35v-842l127 -21v-106l-258 14l-278 -14 v104l133 21v678q-41 -2 -84 -4.5t-66.5 -3.5t-37.5 -1h-21q-41 0 -162 11v-676l150 -21v-108l-277 14l-280 -14v108l133 21v674l-142 -13q-4 31 -4 64z" />
<glyph unicode="&#xfb02;" horiz-adv-x="1239" d="M59 846q0 45 11 65q4 12 53 13h8q70 0 70 39q0 217 118.5 360t356.5 156q336 20 428 45v-1405l127 -21v-106l-268 14l-271 -14v104l135 21v1132q0 53 -6 80q-63 16 -139 17q-16 0 -31.5 -1.5t-23.5 -1.5l-11 -2q-23 -10 -36 -20t-41.5 -45t-44 -104.5t-15.5 -170.5v-73 h180v-146l-180 15v-676l150 -21v-108l-277 14l-280 -14v108l133 21v674l-142 -13q-4 31 -4 64z" />
<glyph unicode="&#xfb03;" horiz-adv-x="1902" d="M57 850q0 41 11 61q8 12 55 13q80 0 80 59q0 227 132 347t363 120q141 0 297 -64q131 125 332 125q188 0 297 -43t109 -106q0 -119 -35 -178l-236 -23v60q0 115 -12 159q-10 2 -43 2q-131 0 -152 -10q-145 -63 -145 -358v-86q25 0 153 -2t201 0q199 8 293 35v-842 l127 -21v-106l-258 14l-276 -14v104l131 21v678q-92 -6 -168 -7q-102 0 -203 9v-676l150 -21v-108l-277 14l-281 -14v108l134 21v674q-113 -8 -156 -9q-68 0 -201 11v-676l150 -21v-108l-279 14l-278 -14v108l131 21v674l-140 -13q-6 33 -6 68zM479 926h273q41 0 62.5 11 t21.5 46v184q-12 96 -62 152q-10 2 -37 2q-66 0 -96 -10q-2 0 -16.5 -6.5t-23.5 -10.5t-25.5 -15t-27.5 -25.5t-25.5 -39t-22.5 -54.5t-14.5 -74t-6.5 -95v-65z" />
<glyph unicode="&#xfb04;" horiz-adv-x="1882" d="M57 850q0 41 11 61q8 12 55 13q80 0 80 59q0 227 132 347t363 120q166 0 299 -84q61 51 117.5 73.5t161.5 35.5q29 4 200 15t261 34v-1405l127 -21v-106l-269 14l-266 -14v104l131 21v1075q0 45 -10 137q-86 16 -98 17q-10 0 -26.5 1t-22.5 1q-53 0 -62 -9l-10 -6 q-10 -6 -21.5 -14t-26 -22.5t-26.5 -39t-23.5 -56.5t-17.5 -81t-6 -106v-88h176v-138q-88 0 -176 9v-676l150 -21v-108l-277 14l-281 -14v108l134 21v674q-113 -8 -156 -9q-68 0 -201 11v-676l150 -21v-108l-279 14l-278 -14v108l131 21v674l-140 -13q-6 33 -6 68zM479 926 h273q41 0 62.5 11t21.5 46v184q-12 96 -62 152q-10 2 -37 2q-66 0 -96 -10q-2 0 -16.5 -6.5t-23.5 -10.5t-25.5 -15t-27.5 -25.5t-25.5 -39t-22.5 -54.5t-14.5 -74t-6.5 -95v-65z" />
<glyph />
</font>
</defs>
</svg>
